<?xml version="1.0" encoding="UTF-8" standalone="no"?>
<!-- Created with Inkscape (http://www.inkscape.org/) -->

<svg
   width="62.918446mm"
   height="66.698952mm"
   viewBox="0 0 62.918446 66.698952"
   version="1.1"
   id="svg1"
   xmlns="http://www.w3.org/2000/svg"
   xmlns:svg="http://www.w3.org/2000/svg">
  <defs
     id="defs1" />
  <g
     id="layer1"
     style="display:inline"
     transform="translate(-350.09152,-93.106775)">
    <g
       id="g18">
      <path
         style="fill:#1a1a1a;fill-opacity:1"
         d="m 377.65152,158.83935 c -1.14321,-0.51513 -4.87522,-1.95515 -8.29334,-3.20003 -20.8296,-7.58612 -24.12029,-15.23287 -13.00054,-30.21001 5.62527,-7.57665 7.60101,-11.99931 11.58257,-25.927461 1.19951,-4.19611 0.78939,-4.00676 12.38199,-5.71668 8.08305,-1.19226 6.8146,-1.6365 16.80605,5.88585 9.1579,6.894791 8.84321,6.480271 9.68579,12.758501 0.42089,3.13611 0.78237,4.45456 1.22131,4.45456 3.82807,0 5.29242,1.98368 4.91797,6.66218 -0.20489,2.55996 -0.32387,5.80233 -0.2644,7.20526 0.11075,2.6129 -0.2345,3.75181 -2.7473,9.06288 -1.24889,2.63964 -1.34248,3.22236 -1.34248,8.35817 0,6.93843 0.14953,6.77465 -7.04622,7.71793 -2.97033,0.38938 -6.39345,0.93199 -7.60695,1.2058 -1.97737,0.44618 -14.21588,2.77742 -14.21588,2.7079 0,-0.0155 -0.93535,-0.44971 -2.07857,-0.96485 z m 8.54524,-1.48731 c 1.77833,-0.35226 4.79226,-0.96246 6.69762,-1.356 1.90536,-0.39354 5.53738,-1.05801 8.07117,-1.47659 6.66313,-1.10077 6.28839,-0.67964 6.21489,-6.98419 -0.0582,-4.9901 -0.11789,-5.31471 -0.93838,-5.10015 -0.48194,0.12603 -0.87625,0.0725 -0.87625,-0.11893 0,-0.19144 -0.46768,-0.57363 -1.03929,-0.8493 -0.57161,-0.27568 -0.7672,-0.5153 -0.43464,-0.53249 0.33255,-0.0172 0.47617,-0.23912 0.31916,-0.49317 -0.15701,-0.25405 -0.0876,-0.46191 0.15428,-0.46191 0.24186,0 0.55939,0.31179 0.70562,0.69286 0.14623,0.38107 0.5057,0.69286 0.79883,0.69286 0.38023,0 0.36552,-0.20176 -0.0513,-0.70402 -0.32136,-0.38721 -0.45254,-0.83577 -0.29152,-0.99679 0.16102,-0.16102 0.0613,-0.57171 -0.22169,-0.91264 -0.39908,-0.48087 -0.32049,-0.62147 0.35044,-0.62696 0.72746,-0.006 0.7548,-0.0782 0.17203,-0.45483 -0.5766,-0.37262 -0.53784,-0.45506 0.23095,-0.4913 0.5081,-0.0239 0.66966,-0.14649 0.35902,-0.27232 -0.38963,-0.15783 0.0739,-1.50041 1.49452,-4.32911 4.3599,-8.68108 5.39442,-13.13399 3.1684,-13.63776 -4.06998,-0.92108 -4.59526,-1.14296 -4.65736,-1.96732 -0.50004,-6.63824 -2.19268,-11.36146 -4.4961,-12.54615 -1.89115,-0.97266 -9.84961,-6.817711 -13.21991,-9.709311 -1.5752,-1.35146 -1.7456,-1.39264 -3.92619,-0.94869 -1.25373,0.25525 -4.56595,0.88899 -7.36047,1.40831 -6.44693,1.19807 -7.56219,1.646 -7.90458,3.17474 -2.63141,11.749041 -7.0422,21.989441 -12.16072,28.233201 -4.87022,5.94088 -5.84137,8.45246 -5.18231,13.40253 0.70637,5.30546 0.6717,5.23548 3.46366,6.99042 1.31117,0.82416 3.7531,2.378 5.4265,3.45298 1.79971,1.15612 4.91295,2.54218 7.62143,3.39316 2.51838,0.79126 5.46783,1.84545 6.55433,2.34264 2.83417,1.29694 2.86779,1.16686 0.35725,-1.38201 -2.4991,-2.53725 -2.31719,-2.99744 3.47422,-8.78884 2.19975,-2.19975 2.19975,-2.19975 2.02467,-5.14699 -0.17508,-2.94723 -0.17508,-2.94723 0.47867,0.0551 0.79216,3.638 0.8415,4.61905 0.23233,4.61905 -0.54495,0 -4.07219,3.50528 -5.77897,5.74299 -1.18719,1.55648 -1.18719,1.55648 0.0256,2.86505 0.66701,0.71971 1.5523,1.8834 1.96732,2.58598 0.89842,1.5209 2.91654,1.67783 8.17684,0.63585 z"
         id="path7" />
      <path
         style="display:inline;fill:#4d4d4d;fill-opacity:1;stroke-width:0;stroke-miterlimit:0;stroke-opacity:0;paint-order:markers fill stroke"
         d="m 1436.3533,596.75312 c -2.3204,-0.38542 -4.509,-1.33502 -5.7287,-2.4857 -0.5022,-0.47377 -1.7159,-2.04714 -2.6972,-3.49638 -2.0518,-3.03053 -4.3046,-5.90685 -7.4051,-9.45466 -1.1971,-1.36979 -2.2831,-2.82633 -2.4134,-3.23674 -0.1463,-0.46113 0.044,-1.31657 0.4979,-2.23918 1.1938,-2.42607 6.877,-9.22071 12.7526,-15.24648 6.468,-6.63342 10.3925,-10.08592 11.7804,-10.36349 1.8466,-0.36932 2.0563,-2.28644 0.9549,-8.72934 -1.119,-6.54534 -3.6141,-17.53503 -3.9812,-17.53503 -0.2108,0 -0.2244,2.14078 -0.036,5.74525 0.1647,3.15988 0.2914,7.09758 0.2814,8.75044 -0.03,4.92859 -0.5025,5.65887 -9.826,15.1773 -14.014,14.30705 -16.8492,18.06876 -16.8492,22.35557 0,2.27596 1.4919,4.56964 6.216,9.55649 4.9922,5.26987 6.281,6.81873 6.1033,7.33494 -0.067,0.19536 -1.4657,-0.2039 -3.1269,-0.89272 -9.9139,-4.11097 -13.7394,-5.54335 -24.9141,-9.3286 -13.4022,-4.53983 -20.2057,-7.25877 -26.8651,-10.73643 -5.7597,-3.00786 -32.0116,-19.74965 -34.0028,-21.68489 -2.9263,-2.84406 -3.9295,-6.32479 -5.6372,-19.55983 -2.608,-20.21224 0.2767,-28.24416 18.2212,-50.73491 8.5777,-10.7509 14.6789,-20.32492 21.0663,-33.05725 9.9422,-19.81816 18.3082,-43.1736 24.1892,-67.52869 2.1331,-8.83372 2.3865,-9.67679 3.2315,-10.75103 2.3068,-2.93259 7.9302,-4.7571 24.5342,-7.96014 27.2214,-5.2512 37.0837,-7.09823 37.9013,-7.09823 1.7614,0 3.6278,0.82735 5.8957,2.61342 1.2612,0.9933 5.3667,4.28463 9.1233,7.31408 14.1228,11.38901 33.6492,25.55317 42.761,31.0181 4.1948,2.51595 6.3767,5.04421 9.1507,10.60351 3.7916,7.59855 6.5728,18.97836 7.9665,32.5966 0.3532,3.45036 0.76,5.78703 1.0984,6.30884 0.8585,1.32357 3.9958,2.5166 11.4106,4.33908 6.4659,1.58926 6.9949,1.78075 8.0368,2.9092 1.3747,1.489 2.0411,4.30372 1.7082,7.21526 -0.9589,8.38879 -6.2244,22.47421 -14.8089,39.61464 -3.6278,7.24346 -6.0854,12.76736 -6.9573,15.63783 -0.7062,2.32512 -0.6773,3.87821 0.072,3.87821 0.1928,0 0.2523,0.1591 0.1321,0.35356 -0.1202,0.19445 -0.8853,0.35598 -1.7003,0.35896 -0.8149,0.003 -1.7204,0.16408 -2.012,0.358 -0.4416,0.29355 -0.3231,0.52787 0.7071,1.39929 0.6806,0.57569 1.3567,1.05098 1.5026,1.05622 0.1458,0.005 0.2651,0.1686 0.2651,0.36306 0,0.19445 -0.776,0.35355 -1.7244,0.35355 -2.5763,0 -2.8815,0.60932 -1.4347,2.86395 1.0238,1.59559 1.1169,1.93351 0.7788,2.82906 -0.4945,1.31015 -0.2477,2.21205 1.196,4.3708 0.7984,1.19382 1.0585,1.87073 0.8131,2.11614 -0.5328,0.53282 -2.1137,-0.47131 -3.048,-1.93599 -1.5605,-2.44629 -2.284,-3.17289 -3.1595,-3.17289 -1.047,0 -1.3998,0.73281 -0.8486,1.76274 0.4893,0.91422 -0.057,1.77279 -1.1272,1.77279 -1.3204,0 -0.4866,1.19312 1.6624,2.3787 1.1655,0.64302 2.6878,1.81143 3.3829,2.59648 1.2556,1.41827 1.278,1.42667 3.5219,1.31968 2.1791,-0.1039 2.2755,-0.0722 2.7525,0.9051 1.1745,2.40677 1.4982,32.53236 0.3842,35.75678 -0.2687,0.77782 -1.1506,2.07833 -1.9597,2.89004 -2.0696,2.07634 -4.9321,2.8879 -17.8394,5.05771 -15.4358,2.59488 -23.6816,4.13315 -43.5802,8.12999 -27.618,5.54733 -32.5807,6.22862 -38.3688,5.26724 z"
         id="path12"
         transform="scale(0.26458333)" />
    </g>
  </g>
</svg>
