<?xml version="1.0" encoding="UTF-8" standalone="no"?>
<!-- Created with Inkscape (http://www.inkscape.org/) -->

<svg
   width="118.83719mm"
   height="108.22931mm"
   viewBox="0 0 118.83719 108.22931"
   version="1.1"
   id="svg1"
   xmlns="http://www.w3.org/2000/svg"
   xmlns:svg="http://www.w3.org/2000/svg">
  <defs
     id="defs1" />
  <g
     id="layer1"
     style="display:inline"
     transform="translate(-296.2764,-335.04697)">
    <g
       id="g20">
      <path
         style="fill:#1a1a1a;fill-opacity:1"
         d="m 360.33009,442.28443 c -12.33275,-1.80175 -19.10677,-3.53104 -21.84582,-5.57686 -0.94123,-0.703 -4.51739,-4.00487 -7.94704,-7.33748 -3.42964,-3.33261 -7.36115,-6.87096 -8.73668,-7.863 -2.18062,-1.57266 -2.75428,-2.34575 -4.4784,-6.03528 -2.33055,-4.98723 -4.59741,-7.25422 -9.65258,-9.6531 -3.28921,-1.56087 -3.28921,-1.56087 -7.05316,-9.10132 -6.21052,-12.44177 -6.4906,-10.72418 4.01648,-24.63093 3.83885,-5.08095 9.55523,-12.77167 12.70306,-17.09048 7.34845,-10.08205 6.99867,-9.77865 12.56453,-10.89846 2.50962,-0.50491 8.09652,-2.03887 12.41533,-3.40878 22.82112,-7.2388 22.79408,-7.23737 29.5619,-1.56371 5.97958,5.01285 11.29223,8.97674 19.00059,14.17678 7.11827,4.80196 6.52446,3.71789 6.87946,12.55935 0.54347,13.53526 -0.0878,11.12402 5.07649,19.38958 1.82539,2.92155 4.46016,7.49441 5.85506,10.16191 1.3949,2.6675 3.49758,6.39294 4.67261,8.27875 2.13643,3.42875 2.13643,3.42875 0.97526,5.56221 -4.24738,7.80382 -22.37406,29.24747 -27.44756,32.47012 -2.85031,1.8105 -16.09149,2.09004 -26.55953,0.5607 z m 4.3881,-2.52892 c -0.82783,-0.26512 -0.91657,-0.38286 -0.31344,-0.41587 0.97238,-0.0532 0.24812,-1.01495 -1.16803,-1.55101 -0.43373,-0.16418 -1.32972,-1.15569 -1.99108,-2.20336 -1.668,-2.64227 -1.84119,-3.22024 -0.96497,-3.22024 0.40826,0 0.74228,-0.20786 0.74228,-0.4619 0,-0.27987 -1.9569,-0.45825 -4.96548,-0.45262 -4.52475,0.008 -6.81739,0.22248 -12.43227,1.16055 -1.82908,0.30558 -1.96178,0.24827 -2.69118,-1.16224 -1.15026,-2.22437 -1.2446,-3.24093 -0.30074,-3.24093 0.4427,0 1.00237,-0.18353 1.24372,-0.40783 0.25771,-0.23953 2.34504,0.15656 5.05785,0.95977 7.92762,2.34721 19.42807,2.46568 21.90747,0.22568 3.10807,-2.80795 5.42695,-4.09254 8.58115,-4.75372 7.37611,-1.54616 23.89708,-8.6744 25.39186,-10.95573 0.38843,-0.59281 2.31637,-1.97971 4.28431,-3.08201 7.15944,-4.01017 6.62405,-7.58626 -2.19574,-14.66603 -10.47909,-8.41171 -12.25581,-9.89366 -12.41472,-10.35498 -0.24018,-0.69728 2.08754,0.72885 5.73578,3.51415 8.16957,6.23718 9.15527,6.77629 7.07576,3.87003 -3.48841,-4.87531 -8.2492,-14.74622 -8.2492,-17.1037 0,-3.01823 -6.17137,-17.52905 -8.36864,-19.67728 -2.52281,-2.46651 -2.69276,-2.35972 -12.83621,8.0662 -5.10447,5.24662 -9.28086,9.34022 -9.28086,9.09688 0,-0.92629 2.57275,-3.86858 9.63135,-11.01477 10.83544,-10.96988 10.62848,-9.55079 2.3045,-15.80187 -3.38913,-2.54514 -7.68785,-5.90288 -9.55273,-7.46164 -1.86488,-1.55876 -3.63166,-2.83407 -3.92619,-2.83403 -1.28037,1.7e-4 -14.23874,3.50443 -22.93789,6.20296 -5.20797,1.61555 -10.91249,3.27286 -12.6767,3.68291 -3.95435,0.9191 -4.0722,1.0302 -10.24233,9.65607 -2.76081,3.85963 -7.39918,10.03144 -10.30749,13.71513 -13.82942,17.51647 -13.00101,15.44482 -9.25503,23.14443 5.11044,10.50416 6.11494,12.10499 7.88201,12.56121 0.86534,0.22341 1.87307,0.64729 2.2394,0.94195 0.53406,0.42957 0.59592,0.39844 0.31218,-0.15712 -0.20468,-0.40073 -0.0745,-0.35204 0.30868,0.11548 0.36441,0.44458 0.86828,0.80833 1.11971,0.80833 1.82175,0 4.48203,3.05079 6.59373,7.56164 2.20745,4.7154 2.20745,4.7154 6.76546,8.13126 2.5069,1.87873 6.86658,5.74438 9.68818,8.59035 5.08073,5.1246 5.16087,5.18145 8.31429,5.89863 8.63625,1.96414 26.06822,4.41297 21.89125,3.07527 z"
         id="path1" />
      <path
         style="fill:#4d4d4d;fill-opacity:1;stroke-width:0;stroke-miterlimit:0;stroke-opacity:0;paint-order:markers fill stroke"
         d="m 1366,1661.8843 c -27.5263,-3.3926 -72.1555,-11.7536 -79.0742,-14.8141 -2.9204,-1.2918 -9.6801,-7.0562 -19.6867,-16.7879 -18.2617,-17.7602 -27.7104,-26.1132 -42.1309,-37.2454 -12.4472,-9.6089 -14.7497,-12.4528 -22.2945,-27.5369 -8.8429,-17.6793 -18.5915,-29.5 -24.3289,-29.5 -0.9433,0 -3.0023,-1.0125 -4.5755,-2.25 -1.5732,-1.2375 -2.8714,-2.064 -2.8849,-1.8366 -0.051,0.8579 -11.1064,-3.2403 -12.9272,-4.7919 -3.8012,-3.2392 -10.0283,-14.1104 -21.8113,-38.0776 -14.1529,-28.7879 -14.3044,-29.5166 -8.4304,-40.5439 3.5574,-6.6784 8.6916,-13.5228 43.2699,-57.6832 8.319,-10.6242 23.3245,-30.5668 33.3457,-44.3168 18.2054,-24.9796 25.3213,-33.5021 30.0289,-35.9647 1.375,-0.7193 7.9,-2.7406 14.5,-4.4917 6.6,-1.7512 25.275,-7.1591 41.5,-12.0176 52.8404,-15.8227 85.7729,-24.5508 89.2972,-23.6663 1.2172,0.3055 8.0607,5.208 15.2079,10.8944 7.1472,5.6864 22.3447,17.4595 33.7723,26.1625 11.4276,8.703 21.4401,16.7697 22.25,17.926 2.3935,3.4171 1.7887,7.921 -1.7127,12.7545 -1.7519,2.4185 -14.7198,16.1525 -28.8176,30.5201 -24.7958,25.2705 -34.9971,36.9536 -34.9971,40.0808 0,2.4559 10.2301,-7.0899 34.1703,-31.8844 23.784,-24.6329 35.305,-35.2141 39.4832,-36.2628 3.588,-0.9005 8.339,2.5686 12.805,9.3501 8.0959,12.2935 23.0834,47.5564 26.6412,62.6817 1.1536,4.9046 2.9646,11.9099 4.0243,15.5674 2.6072,8.9979 17.1692,38.0556 25.219,50.3231 3.5993,5.4852 6.3762,10.141 6.1709,10.3464 -0.5205,0.5204 -7.7382,-4.501 -23.5139,-16.3589 -17.7134,-13.3143 -24.4648,-17.7121 -26.5577,-17.2993 -2.5204,0.4971 1.1961,3.8725 30.1392,27.3732 34.3098,27.858 42.4185,36.758 42.4185,46.5576 0,7.6416 -3.953,11.9289 -20.5,22.2336 -4.95,3.0826 -11.475,7.8919 -14.5,10.6874 -9.9514,9.1962 -54.0641,29.1037 -83,37.4569 -24.5871,7.0977 -25.9714,7.6224 -33.2547,12.6038 -3.9849,2.7254 -8.8632,6.3212 -10.8407,7.9905 -4.7549,4.014 -11.9376,5.8428 -25.9046,6.5957 -18.3488,0.9891 -35.0855,-1.1212 -61.8584,-7.7994 -11.7659,-2.9349 -12.581,-3.012 -17,-1.6079 -3.665,1.1645 -4.6923,1.9769 -4.8825,3.8611 -0.2898,2.8707 4.5602,12.876 6.9263,14.2884 1.1694,0.6981 4.9961,0.481 12.5,-0.7091 21.9551,-3.4821 46.5123,-4.6878 55.8146,-2.7405 3.4837,0.7293 3.7096,0.9305 1.75,1.559 -3.1008,0.9945 -2.8302,3.1281 1.2744,10.0472 3.2756,5.5217 6.105,8.5612 13.1767,14.1552 2.1834,1.7272 2.4141,2.222 1.0489,2.25 -0.9625,0.02 -1.75,0.453 -1.75,0.9627 0,0.5096 0.7875,1.1324 1.75,1.384 2.8694,0.7498 -3.7383,0.4994 -11.25,-0.4264 z"
         id="path14"
         transform="scale(0.26458333)" />
    </g>
  </g>
</svg>
