<?xml version="1.0" encoding="UTF-8" standalone="no"?>
<!-- Created with Inkscape (http://www.inkscape.org/) -->

<svg
   width="158.64037mm"
   height="120.96109mm"
   viewBox="0 0 158.64037 120.96109"
   version="1.1"
   id="svg1"
   xmlns="http://www.w3.org/2000/svg"
   xmlns:svg="http://www.w3.org/2000/svg">
  <defs
     id="defs1" />
  <g
     id="layer1"
     style="display:inline"
     transform="translate(-239.16697,-187.79606)">
    <g
       id="g19">
      <path
         style="display:inline;fill:#1a1a1a;fill-opacity:1;stroke-width:0;stroke-miterlimit:0;stroke-opacity:0;paint-order:markers fill stroke"
         id="path16"
         d="m 273.62195,194.36105 c -7.93756,-4.32999 -15.49325,4.07532 -13.63363,11.63055 -3.55941,6.79486 -13.31134,10.83509 -11.35572,19.68076 -1.19456,8.4628 -2.30593,17.2591 -6.4875,24.85157 -2.58661,5.06007 0.72871,9.45357 -1.73021,14.41522 2.02151,9.14772 12.79919,12.16596 13.31662,21.95537 3.42982,6.43517 11.65199,4.70959 17.53657,6.97444 6.28532,1.66354 13.29048,2.91514 18.40872,7.01155 6.02292,8.02555 17.42624,6.81465 26.11356,5.98458 -2.8143,-0.37902 -3.38153,0.0334 -1.62318,-1.05015 -2.9428,-0.0938 -13.12772,-2.30191 -11.45254,-3.18779 7.0285,1.62564 13.91506,-1.74199 19.18695,-6.70271 7.77684,-3.72788 -5.83615,-2.50379 -9.00325,-5.01659 -6.87361,-1.955 -13.69399,-6.43135 -9.23015,-13.93013 -0.29945,-2.97148 -1.3622,-13.04589 2.74393,-10.37007 -0.23944,5.2954 -2.96746,7.6392 -1.8575,13.46654 -4.61274,4.18573 6.12911,11.30598 5.74497,4.02916 3.23431,-0.9762 2.3541,-7.54603 3.24713,-8.24218 -3.65037,-1.31084 -4.95111,-2.76971 -0.29398,-1.60902 5.31244,1.79231 14.93246,8.6293 16.49548,-0.55623 4.35491,-0.6564 0.49407,6.51756 2.9663,3.77724 0.66766,7.17536 6.87111,4.96178 11.34924,6.59402 3.41757,2.3961 -4.86068,3.23915 -0.99614,4.11003 2.0747,-5.67526 6.83966,4.35798 0.12574,1.93543 7.57834,2.06182 14.78024,-3.59797 22.28414,-1.49412 -2.05535,5.96189 6.63105,-3.66305 1.5864,-0.33019 -1.03354,-3.05725 -1.48722,-0.96157 0.1323,-3.10693 -0.86428,-3.68157 -9.82163,-4.88296 -8.74513,-4.65471 6.3764,-3.54655 -2.74352,-3.91625 -2.34696,-3.74526 -7.06936,4.38354 -7.21578,-8.11341 -15.00122,-5.96365 -7.83041,-2.71669 -13.99534,6.73282 -20.79294,-0.11604 -3.83225,-6.73043 6.05883,-15.29942 12.75313,-15.53631 7.5486,-0.67608 4.19231,11.83924 5.84219,11.88819 6.62517,-4.14097 8.61852,-11.4465 8.54447,-18.2128 2.50424,-4.81002 12.17282,-8.36726 14.1421,-8.72771 -7.41824,3.12622 -15.52172,8.70992 -14.19846,17.7781 -0.87,4.82654 -5.59355,12.98195 2.98169,12.3272 7.15601,1.24032 16.00596,0.31693 21.17357,-5.09999 0.88123,-4.66778 -0.0259,-8.64779 5.45034,-11.03524 7.93972,-5.37047 -2.99178,-12.34704 -6.68277,-16.72713 -2.42088,-2.78878 -10.52056,-1.68859 -10.93694,-1.11534 5.80181,1.15077 -0.43136,1.16096 -1.77947,1.56576 2.6377,0.84007 10.29733,0.59105 3.06221,1.24438 -3.04212,1.74394 -7.22427,4.12085 -5.47654,-1.0646 0.28393,-3.8812 8.47086,-4.51415 5.64063,-5.82475 3.25978,-1.08002 -6.53621,-3.06071 -1.62453,-6.20456 4.30086,-5.63697 -2.47137,-7.59848 -5.78848,-3.23556 -4.95585,5.0742 -16.89311,15.18797 -20.27425,3.38249 -0.0978,-9.60641 -7.38802,-15.72666 -11.06334,-23.92831 -4.36724,-9.38752 -14.19196,-1.79787 -20.70556,0.26024 -5.8392,2.07873 -4.73565,-0.621 0.17798,-1.86056 6.35574,-2.50983 13.17579,-4.26172 18.71654,-8.43778 -14.39746,-3.51951 -29.97069,-4.59087 -43.94155,1.23022 -0.90458,0.31939 -1.80457,0.6517 -2.70096,0.99337 z m 5.25988,-2.62235 c 15.86002,-6.72892 33.8641,-3.80742 49.79737,1.05495 10.2038,4.08879 18.8789,10.98941 28.20153,16.65898 8.18353,2.33848 16.79658,6.81835 19.90113,15.27782 3.95124,6.95523 13.25164,10.88753 13.56417,19.75123 0.78953,9.06325 11.3306,18.60497 5.92649,27.09595 -6.46938,6.11892 -13.64603,11.47997 -19.36899,18.39145 -5.69288,7.6181 -13.43306,13.98548 -23.49062,13.5424 -9.71429,-0.0573 -19.1631,1.97393 -28.59507,4.05586 -10.10186,1.1674 -20.38246,1.78168 -30.49985,0.38728 -5.61708,-7.04774 -14.00736,-11.20621 -22.79293,-12.44975 -6.73605,-2.11916 -15.91116,-1.15183 -19.80828,-8.26636 0.0698,-9.34537 -10.29506,-12.7318 -12.5498,-20.85496 1.44548,-7.43638 -0.94024,-14.46861 4.19086,-20.73681 2.90971,-8.10007 4.38962,-16.6127 4.60083,-25.19218 2.05661,-7.71781 12.1787,-10.71459 12.29726,-19.78372 -1.32881,-10.41297 9.4067,-6.28095 15.36397,-7.45434 0.97222,-0.72724 2.18141,-0.97136 3.26193,-1.4778 z" />
      <path
         style="display:inline;fill:#4d4d4d;fill-opacity:1;stroke-width:0;stroke-miterlimit:0;stroke-opacity:0;paint-order:markers fill stroke"
         d="m 1150.25,1161.6612 c -18.0093,-1.0074 -31.7829,-5.1122 -42.8682,-12.7754 -1.9901,-1.3758 -5.938,-4.9255 -8.773,-7.8883 -11.2964,-11.8054 -25.3184,-18.201 -59.1471,-26.9776 -8.5039,-2.2062 -17.2758,-4.5562 -19.4929,-5.2221 -3.8595,-1.1591 -6.1754,-1.5861 -24.61585,-4.5386 -9.98231,-1.5982 -15.47999,-3.1401 -21.35295,-5.9884 -8.01813,-3.8888 -14.34721,-10.9088 -15.01096,-16.6496 -0.97823,-8.4609 -4.9908,-18.2531 -10.60119,-25.8712 -1.62021,-2.2 -5.63279,-6.8757 -8.91685,-10.3905 -3.28405,-3.5147 -8.43123,-9.0272 -11.43818,-12.25 -8.67945,-9.3023 -13.67998,-16.5486 -16.74568,-24.266 -2.24008,-5.6391 -2.33523,-6.9529 -0.82804,-11.43282 1.97487,-5.87002 2.33957,-11.28353 1.54823,-22.98159 -1.04606,-15.46356 -0.37232,-19.7212 4.73429,-29.91776 10.32651,-20.61936 15.94761,-41.17799 21.26136,-77.76133 1.4534,-10.00611 1.74734,-13.24817 1.47335,-16.25 -0.86931,-9.5238 0.003,-15.06155 3.51176,-22.29282 3.60712,-7.43407 7.52653,-12.29971 21.31199,-26.45718 9.38757,-9.64091 14.18485,-15.42746 17.40049,-20.98875 1.08326,-1.87344 1.11686,-2.1937 0.57967,-5.52378 -0.47601,-2.95073 -0.43912,-4.02695 0.22317,-6.51125 0.43639,-1.63692 0.92268,-5.00122 1.08063,-7.47622 0.24477,-3.8351 0.57755,-5.12782 2.25227,-8.74903 4.54575,-9.82921 12.50533,-17.17801 22.22929,-20.52355 2.1316,-0.73338 4.1635,-0.97491 8.1377,-0.96737 7.1368,0.0136 10.9981,0.63899 14.7319,2.38621 l 3.1291,1.46429 3.4678,-1.23504 c 1.9074,-0.67927 6.3929,-2.36277 9.9679,-3.7411 42.4368,-16.36141 88.6107,-18.70467 144.75,-7.34585 6.7375,1.36321 13.4758,2.77035 14.9741,3.12697 l 2.7241,0.64839 -4.9765,3.31298 c -6.0274,4.01257 -16.311,9.38748 -24.5814,12.84791 -7.0377,2.94463 -36.7209,13.94722 -43.3903,16.08337 -8.0398,2.57506 -13.9123,6.49461 -13.0597,8.71651 0.2807,0.73164 0.8764,0.81945 4.1935,0.61812 5.1847,-0.31468 14.2253,-3.38743 28.3662,-9.64125 13.5899,-6.01016 18.668,-7.97063 24.7292,-9.54718 17.8593,-4.64529 29.0662,0.68111 36.7116,17.44839 2.5833,5.66538 7.8969,14.74767 14.9758,25.59723 13.4791,20.65885 18.6347,30.1078 22.0663,40.44219 1.9587,5.89887 3.7671,15.30297 3.7671,19.59002 0,4.38785 2.9031,11.60779 6.4942,16.1509 12.3957,15.68166 38.2483,6.45839 69.3478,-24.74077 6.5597,-6.58068 8.7661,-8.14245 13.3705,-9.46393 5.4933,-1.5766 11.3412,0.0561 13.5054,3.77063 2.5092,4.30677 -0.1295,12.75885 -5.3603,17.1695 -2.8306,2.3868 -3.859,4.10286 -3.8543,6.43163 0.01,2.82582 2.3137,5.40047 8.7467,9.75685 1.65,1.11737 3.5187,2.59064 4.1526,3.27393 1.0371,1.11774 1.0756,1.31944 0.384,2.01105 -0.4228,0.42279 -1.054,0.86867 -1.4027,0.99085 -0.4222,0.14794 -0.2218,0.56125 0.5999,1.23734 1.0948,0.90086 1.1532,1.11232 0.518,1.87762 -0.3937,0.47433 -3.7817,2.37823 -7.529,4.23088 -7.4622,3.68931 -11.5809,6.53091 -13.4126,9.25375 -1.5204,2.26 -3.5407,9.73599 -3.5517,13.14256 -0.021,6.40825 5.1149,6.28502 17.4915,-0.41972 4.428,-2.39879 5.137,-2.6201 10.459,-3.26493 8.8118,-1.06765 8.4655,-1.44457 -2.2589,-2.45848 -4.3726,-0.41338 -9.3001,-1.0164 -10.9501,-1.34004 l -3,-0.58842 6.6347,-0.87108 c 7.1041,-0.93272 8.6153,-1.26683 8.6153,-1.9048 0,-0.85987 -1.4776,-1.54468 -5.2572,-2.43653 l -3.9255,-0.92628 2.2163,-0.55248 c 7.4365,-1.85369 20.6653,-2.04412 27.7164,-0.39898 6.4086,1.49523 7.7089,2.4868 22.4345,17.10813 17.2835,17.16104 22.2508,23.66479 23.8816,31.26893 1.7556,8.18631 -2.7553,15.79474 -12.5661,21.1948 -5.4893,3.02138 -8.4703,5.5455 -10.9696,9.28822 -2.9372,4.39847 -4.2921,9.32972 -5.7699,20.99942 l -1.2888,10.17724 -2.8609,2.6524 c -3.4451,3.1942 -9.5724,7.3457 -14.3989,9.7558 -14.6393,7.3104 -37.1431,10.445 -55.9619,7.7952 -1.925,-0.2711 -6.4564,-0.6704 -10.0698,-0.8875 -5.6923,-0.3419 -6.9479,-0.5795 -9.4005,-1.7795 -4.7257,-2.312 -6.679,-6.6962 -6.031,-13.5364 0.3477,-3.6707 2.4923,-12.38131 5.5395,-22.5 1.7443,-5.79219 1.811,-6.30306 1.9244,-14.75 0.098,-7.30206 0.3033,-9.41192 1.2397,-12.75 4.8844,-17.41073 18.9255,-31.47103 43.7445,-43.80414 4.9207,-2.44522 8.6007,-4.44586 8.1776,-4.44586 -2.6425,0 -15.0041,4.78411 -24.1218,9.33548 -12.6355,6.30737 -23.0253,14.23919 -27.3334,20.86704 -1.894,2.9137 -1.9192,3.01689 -1.9192,7.84939 0,12.35095 -3.5221,27.56965 -8.8182,38.10279 -2.5298,5.03142 -6.7051,10.89307 -10.7904,15.1484 -3.8976,4.0598 -11.3814,10.1969 -12.4346,10.1969 -0.9927,0 -1.3361,-2.5621 -1.8767,-14 -0.6029,-12.75733 -1.2876,-17.00798 -3.5022,-21.74033 -3.5003,-7.47993 -9.3074,-10.11517 -19.3655,-8.78803 -11.2278,1.48146 -23.672,7.84679 -33.4673,17.11889 -5.3596,5.07326 -8.6711,9.43424 -11.5115,15.15947 -3.0552,6.1582 -3.9192,9.8741 -3.604,15.5 0.4546,8.1142 2.6386,11.8598 9.5016,16.2956 4.8728,3.1495 8.7094,4.2062 15.1188,4.1644 6.464,-0.042 10.0944,-0.8915 21.4219,-5.0116 11.1767,-4.0653 16.0791,-5.2537 22.8281,-5.5339 4.6474,-0.193 6.4626,-0.053 9.4661,0.7329 2.8738,0.7515 4.1197,0.8602 5.497,0.48 0.9794,-0.2705 3.4869,-0.393 5.5722,-0.2723 7.2684,0.4208 12.0408,3.7294 21.4845,14.8949 5.5174,6.5234 6.8519,7.8351 9.8795,9.7113 4.605,2.8537 9.7856,2.7834 15.6818,-0.2128 2.8306,-1.4384 2.9927,-1.4612 6.905,-0.9706 8.3047,1.0413 13.0411,3.4357 12.2165,6.1757 -0.4777,1.5872 -2.6377,3.7309 -5.8011,5.7573 l -2.8485,1.8247 4.313,0.8878 c 13.6434,2.8084 24.3358,8.2135 27.6187,13.9617 l 1.4878,2.605 -2.0906,2.1302 -2.0906,2.1302 1.3239,2.6247 c 0.7281,1.4437 1.5512,3.2281 1.8289,3.9655 l 0.505,1.3407 2.8052,-1.5194 c 1.5428,-0.8356 2.9347,-1.3897 3.0931,-1.2312 0.7328,0.7328 -4.7498,7.0144 -8.1875,9.3806 -3.8822,2.6721 -5.2904,1.4828 -4.0096,-3.3864 l 0.6773,-2.575 -3.0388,-0.675 c -1.9616,-0.4357 -6.2292,-0.6663 -12.0388,-0.6505 -9.7159,0.026 -11.0803,0.2433 -31,4.93 -10.946,2.5753 -15.7483,3.336 -22.75,3.6038 -5.8565,0.2241 -6.1642,0.1898 -4.8876,-0.544 1.836,-1.0553 2.3876,-2.2411 2.3876,-5.1333 0,-2.9593 -1.9507,-7.1718 -3.9952,-8.6276 -0.8837,-0.6292 -2.2082,-1.0034 -3.5519,-1.0034 h -2.1427 l 1.5949,-1.5593 c 2.1749,-2.1264 2.1479,-4.0511 -0.086,-6.1582 -2.1216,-2.0009 -5.6703,-2.8914 -17.0688,-4.2832 -10.0403,-1.226 -13.4826,-2.0429 -17.4169,-4.1334 -4.8614,-2.5831 -8.1742,-7.687 -9.3842,-14.4581 l -0.6127,-3.4282 -1.0753,1.0102 c -1.9953,1.8745 -2.197,1.3818 -1.9003,-4.6427 0.2368,-4.8068 0.1429,-5.9386 -0.6272,-7.5615 -1.0504,-2.2135 -3.3706,-3.4219 -6.1209,-3.1879 -1.738,0.1479 -1.8076,0.234 -2.4356,3.0115 -0.8261,3.6532 -3.1182,8.1641 -5.2564,10.3441 -0.9188,0.9368 -2.908,2.2844 -4.4205,2.9945 -2.3536,1.1052 -3.3986,1.2849 -7.25,1.2471 -7.3835,-0.072 -13.3819,-1.9371 -30,-9.326 -11.9166,-5.2985 -14.4717,-6.2281 -19.5578,-7.115 -9.6062,-1.6752 -8.6427,1.3288 1.8956,5.91 3.2041,1.3929 3.7302,1.7856 3.3361,2.4899 -0.2574,0.4599 -0.9071,4.2697 -1.4438,8.4662 -1.5589,12.1888 -4.0906,18.3601 -8.4586,20.6189 -1.1814,0.6109 -1.4261,1.1208 -1.7142,3.5723 -0.5507,4.6855 -1.8695,7.0514 -4.6051,8.2614 -4.0761,1.8031 -9.3357,0.066 -14.6249,-4.8313 -6.6391,-6.1466 -8.0729,-13.3953 -3.7657,-19.038 l 1.7191,-2.2522 -0.5781,-4.3444 c -0.9846,-7.3992 -0.017,-14.5195 3.5484,-26.1067 2.0282,-6.5919 3.3853,-12.6183 3.776,-16.7688 0.377,-4.0046 0.062,-4.5345 -3.1216,-5.2525 -3.5944,-0.8107 -5.9969,1.3378 -7.4901,6.6983 -1.0661,3.8273 -1.3983,16.0942 -0.6957,25.6877 l 0.6141,8.3853 -1.776,3.75 c -5.7982,12.2422 -4.1001,23.1795 5.0241,32.3586 6.1563,6.1934 15.0941,11.3049 26.3801,15.0869 3.1837,1.0669 6.2947,2.2683 6.9133,2.6699 3.3237,2.1576 8.7426,3.4653 24.3748,5.8823 13.1712,2.0365 17,3.2252 17,5.278 0,0.9291 -3.1925,3.5517 -6.1435,5.0467 -1.4336,0.7264 -3.9565,2.5428 -5.6065,4.0365 -12.1888,11.0342 -27.6726,19.4535 -41.75,22.7015 -6.102,1.4079 -17.4345,1.7863 -23.217,0.7752 -2.4568,-0.4295 -4.6505,-0.6675 -4.875,-0.5288 -0.7581,0.4686 -0.4145,1.6319 0.717,2.4278 3.566,2.5082 25.3439,7.8118 39.2956,9.5698 l 2.6707,0.3365 -1.5457,0.9787 c -0.8501,0.5382 -1.5456,1.1677 -1.5456,1.3989 0,0.4049 2.3359,0.8361 6,1.1075 2.3994,0.1778 -9.8426,1.3 -20.5,1.8793 -8.3891,0.456 -12.5138,0.4907 -18.5,0.1559 z"
         id="path4"
         transform="scale(0.26458333)" />
    </g>
  </g>
</svg>
