<?xml version="1.0" encoding="UTF-8" standalone="no"?>
<!-- Created with Inkscape (http://www.inkscape.org/) -->

<svg
   width="104.08189mm"
   height="77.632195mm"
   viewBox="0 0 104.08189 77.632195"
   version="1.1"
   id="svg1"
   xmlns="http://www.w3.org/2000/svg"
   xmlns:svg="http://www.w3.org/2000/svg">
  <defs
     id="defs1" />
  <g
     id="layer1"
     style="display:inline"
     transform="translate(-249.85702,2.0542469)">
    <g
       id="g17">
      <path
         style="fill:#1a1a1a;fill-opacity:1"
         d="m 253.63846,35.842703 c 1.28705,0.6522 5.44497,1.589924 5.50556,1.509332 0.0606,-0.08059 0.77012,-1.123248 1.57672,-2.317012 0.8066,-1.193764 1.66178,-2.291143 1.9004,-2.43862 0.23862,-0.147477 -0.28371,0.798163 -1.16074,2.101421 -2.4592,3.654366 -2.31358,3.790011 4.87207,4.538025 2.92155,0.304129 6.03941,0.750624 6.92857,0.992212 0.88917,0.241589 4.44999,0.608025 7.91295,0.814303 6.29627,0.375051 6.29627,0.375051 10.61392,3.332265 2.37471,1.626468 6.1412,3.743389 8.36998,4.70427 2.22878,0.96088 4.7118,2.319954 5.51783,3.020163 5.39612,4.687724 11.10645,9.83055 13.03345,11.738181 4.05137,4.010627 6.70568,3.079818 10.08474,-3.536501 0.51899,-1.016191 1.1122,-1.956798 1.31824,-2.090238 0.20604,-0.133441 0.18308,-1.068798 -0.051,-2.078572 -0.66753,-2.879236 -0.59748,-3.091284 2.10294,-6.365127 2.74472,-3.327555 3.50591,-3.638579 5.14237,-2.101204 1.05492,0.991049 1.05492,0.991049 1.57486,-0.346429 0.28597,-0.735613 0.73256,-1.857121 0.99242,-2.49224 0.83103,-2.031057 1.17272,-4.014856 0.80486,-4.67279 -0.44835,-0.801867 1.5087,-5.712959 2.91267,-7.309189 0.99546,-1.131781 0.99673,-1.144274 0.0339,-0.334461 -1.29423,1.088551 -1.13453,-0.812275 0.67275,-8.007369 1.62706,-6.477587 3.43273,-9.410424 4.05246,-6.582143 0.87418,3.989526 1.63284,1.838125 1.13714,-3.224661 -0.42694,-4.360432 -0.35328,-4.261718 -4.06287,-5.4446 -5.29065,-1.687038 -6.10766,-2.261426 -9.02175,-6.342644 -3.08299,-4.317758 -3.20778,-4.337512 -21.12462,-3.34374699 -8.09946,0.44924 -8.09946,0.44924 -11.01675,3.28621699 -2.17873,2.118749 -2.6424,2.770386 -1.83149,2.573944 2.39835,-0.580998 11.14704,-0.879778 15.0025,-0.512355 3.98189,0.379472 3.84328,0.399166 -4.90956,0.697545 -6.494,0.221378 -9.52266,0.509819 -10.85476,1.033782 -1.01619,0.399703 -4.00024,1.247872 -6.63121,1.884821 -5.09109,1.232533 -6.37283,1.953995 -10.45927,5.887243 -2.48722,2.393982 -4.6207,4.028822 -4.33422,3.32122 1.21882,-3.0105 10.057,-9.030655 15.15597,-10.323541 2.14125,-0.542931 4.32375,-1.362938 4.85,-1.822238 6.16753,-5.38287999 6.25197,-5.54994999 2.80444,-5.54863099 -2.93593,0.0011 -3.4105,0.138288 -5.15947,1.49122699 -1.05938,0.819494 -3.03403,2.345012 -4.3881,3.39004 -2.26022,1.744364 -5.35005,3.218198 -5.80114,2.767115 -0.10285,-0.10285 0.54024,-0.427009 1.42909,-0.720354 1.64744,-0.543707 3.11272,-1.586775 6.8421,-4.870621 3.01652,-2.65614399 -9.21369,-2.69660799 -13.24885,-0.04383 -4.09441,2.691719 -10.76775,5.355738 -13.41608,5.355738 -1.16133,0 -4.11698,2.751627 -6.20192,5.77381 -1.34946,1.956089 -10.45385,18.202022 -11.11202,19.828371 z m -3.78113,-3.937349 c -0.0339,-1.483995 2.90766,-3.205645 8.94795,-14.074876 6.31949,-11.371644 6.75143,-11.833959 11.64045,-12.458988 3.43908,-0.439663 7.48629,-1.876989 11.59153,-4.116621 3.46429,-1.88995299 3.46429,-1.88995299 14.78096,-2.23148899 6.22416,-0.18784601 16.61702,-0.54797701 23.09524,-0.80029301 14.39837,-0.560794 14.47411,-0.548394 16.74172,2.74089701 3.56629,5.17308499 3.77296,5.34812699 8.45761,7.16328099 5.12775,1.986841 4.89031,1.63428 5.89588,8.754433 0.39467,2.794524 1.26645,7.679167 1.9373,10.854762 0.9239,4.373517 1.14284,6.389938 0.90275,8.314286 -0.17433,1.397262 -0.34699,5.346547 -0.38368,8.77619 -0.0842,7.874902 0.82604,6.713414 -17.25663,22.018916 -9.84083,8.329465 -10.33668,8.658092 -12.73281,8.438873 -3.55165,-0.324934 -16.22461,-0.208921 -18.805,0.172148 -2.54048,0.375175 -2.54048,0.375175 -13.39524,-7.734289 l -3e-5,-4e-6 C 279.2723,58.755262 274.62783,56.079105 270.25866,55.612739 265.01845,55.053397 262.33326,53.775836 253.5378,38.389136 Z"
         id="path8" />
      <path
         style="display:inline;fill:#4d4d4d;fill-opacity:1;stroke-width:0;stroke-miterlimit:0;stroke-opacity:0;paint-order:markers fill stroke"
         d="m 1217.25,249.53243 c -4.0566,-1.23842 -7.6313,-3.87677 -16.0159,-11.82073 -7.5026,-7.1083 -22.4134,-20.55255 -36.3679,-32.79092 -12.1809,-10.68285 -15.9413,-13.17933 -28.1162,-18.66554 -11.7979,-5.31632 -23.359,-11.82508 -36.0323,-20.28567 -13.6775,-9.13097 -15.472,-9.68128 -35.7177,-10.95389 -12.1374,-0.76293 -24.85,-1.97093 -29.5,-2.80321 -10.0298,-1.79516 -16.9571,-2.78667 -29.5,-4.22234 -19.58392,-2.24159 -22.75,-3.15332 -22.75,-6.55125 0,-1.81635 0.73951,-3.28527 4.83162,-9.59729 3.61654,-5.57847 5.37943,-8.84159 4.77662,-8.84159 -0.80186,0 -3.53976,3.32586 -7.82054,9.5 -2.38337,3.4375 -4.71686,6.75604 -5.18555,7.37453 L 979,140.99907 l -5.25,-1.20895 c -2.8875,-0.66493 -7.39372,-1.89676 -10.01382,-2.7374 l -4.76382,-1.52844 -3.15997,-5.49405 -3.15997,-5.49405 5.86831,-10.89309 C 974.8922,83.253425 992.87756,52.192275 997.68815,46 c 6.16005,-7.929323 14.26665,-15.609621 18.06185,-17.111927 0.6875,-0.272146 2.9541,-0.692723 5.037,-0.934615 10.2109,-1.185852 30.2951,-9.263581 44.713,-17.9832605 3.3,-1.9957855 7.732,-4.2613795 9.8489,-5.0346535 13.8372,-5.0546337 39.0778,-5.82178225 43.8948,-1.334114 0.5535,0.515639 1.0063,1.136497 1.0063,1.379685 0,0.927573 -2.8598,3.763368 -8.944,8.868998 -7.5574,6.341834 -13.0791,10.02899 -17.806,11.890141 -4.5858,1.805565 -6.25,2.676989 -6.25,3.272586 0,1.006074 3.3853,0.415886 7.2223,-1.259119 6.2992,-2.749889 10.9974,-5.84621 23.4152,-15.431517 6.3869,-4.9300705 12.85,-9.547067 14.3625,-10.259992 2.5479,-1.200955 3.3612,-1.3096216 11.0658,-1.47847385 8.3747,-0.1835358 10.4342,0.13493385 10.4342,1.61345885 0,1.120144 -3.9066,5.1806575 -11.7465,12.20939 -8.3279,7.46625 -10.5977,8.798798 -19.7535,11.596584 -12.1182,3.70303 -15.1392,4.858437 -22.7593,8.704407 -8.3646,4.221817 -19.6661,11.452647 -26.4907,16.949222 -7.406,5.96481 -15.2563,15.00353 -14.0653,16.194555 0.8621,0.862115 7.9377,-4.75382 18.1255,-14.386405 14.463,-13.674755 18.4434,-15.834916 39.0351,-21.184601 6.8481,-1.779135 16.0407,-4.338847 20.4279,-5.688248 11.68,-3.592487 15.9997,-4.051708 50.4601,-5.364371 19.4185,-0.739686 24.6071,-1.206156 21.2596,-1.911307 -10.8925,-2.294548 -55.9946,-1.602909 -65.4246,1.003286 -1.1108,0.306986 -1.1444,0.254646 -0.5597,-0.871555 0.927,-1.7856 12.9228,-13.4773235 15.7474,-15.348224 5.2214,-3.45851645 9.4404,-4.12622035 35.244,-5.5777711 40.7263,-2.291009 52.8233,-2.4494758 60.6133,-0.7940132 7.5157,1.5971565 10.0214,3.6091073 18.1976,14.6114713 6.2796,8.450165 9.9611,12.38728 13.9979,14.96957 3.7604,2.405496 5.9541,3.307514 17.6912,7.274276 5.6375,1.905297 10.9846,3.959707 11.8824,4.565356 2.3822,1.606942 3.5482,4.481223 4.4298,10.919361 0.8379,6.119245 1.1878,21.2854 0.5444,23.59234 -0.7879,2.8246 -1.6533,1.397405 -4.1904,-6.91052 -0.7879,-2.57971 -1.0995,-3.02126 -2.2242,-3.15175 -3.7209,-0.43167 -8.632,10.96691 -13.9559,32.391525 -3.8312,15.417565 -5.4106,24.250895 -4.7831,26.751155 0.2335,0.93022 0.6463,1.25907 1.5805,1.25907 h 1.2645 l -1.4589,2.125 c -2.4452,3.56164 -6.0566,11.19496 -7.8932,16.68345 -1.6701,4.99096 -1.7273,5.40112 -1.4052,10.07724 0.286,4.1526 0.174,5.46617 -0.7564,8.86942 -1.1301,4.13408 -6.8012,19.01762 -7.6662,20.11989 -0.7391,0.94175 -1.0547,0.80896 -3.689,-1.55223 -2.737,-2.45321 -5.1281,-3.82277 -6.6742,-3.82277 -3.417,0 -11.3087,7.6744 -19.1562,18.62873 -3.8788,5.41443 -4.3149,7.57479 -2.9122,14.4254 1.4938,7.29522 1.4207,9.54918 -0.3843,11.85019 -0.7963,1.01512 -2.8446,4.43318 -4.5517,7.59568 -6.202,11.48919 -10.5937,16.96908 -15.6071,19.47431 -3.1066,1.55242 -6.1055,1.90923 -8.8934,1.05812 z"
         id="path5"
         transform="scale(0.26458333)" />
    </g>
  </g>
</svg>
