<?xml version="1.0" encoding="UTF-8" standalone="no"?>
<!-- Created with Inkscape (http://www.inkscape.org/) -->

<svg
   width="54.786137mm"
   height="69.81234mm"
   viewBox="0 0 54.786137 69.81234"
   version="1.1"
   id="svg1"
   xmlns="http://www.w3.org/2000/svg"
   xmlns:svg="http://www.w3.org/2000/svg">
  <defs
     id="defs1" />
  <g
     id="layer1"
     style="display:inline"
     transform="translate(-36.481328,-362.49191)">
    <g
       id="g22">
      <path
         style="fill:#1a1a1a;fill-opacity:1"
         d="m 80.933892,378.49553 c -0.15701,-0.25405 -0.13697,-1.04099 -0.39102,-1.04099 -0.25404,0 -2.172497,-1.12106 -1.976587,-0.80351 0.55424,0.89838 -3.010661,-1.95924 -5.146721,-4.11495 -7.706492,-7.77742 -13.053601,-9.69813 -17.646938,-6.33891 -1.997431,1.46078 -4.902363,3.56464 -6.455404,4.67525 -5.201302,3.71956 -7.470461,6.54078 -7.470461,9.28793 0,4.28927 -0.971053,11.15519 -2.149059,15.19512 -2.803313,9.61385 -3.006097,12.25492 -1.286859,16.76009 5.412983,14.18442 7.135233,15.70834 15.482171,13.69921 4.264744,-1.02653 5.014222,-7.03979 3.395409,-27.24227 -0.135557,-1.69173 -0.05591,-3.19364 0.176993,-3.33759 0.653273,-0.40374 0.957838,3.50374 1.302377,16.70912 0.174256,6.6788 0.451407,12.22646 0.615891,12.32811 0.547326,0.33827 4.287632,-1.82225 4.981296,-2.87735 0.375797,-0.5716 0.971147,-1.03928 1.323,-1.03928 0.351854,0 0.639734,-0.20786 0.639734,-0.46191 0,-0.25405 0.514305,-0.4619 1.1429,-0.4619 1.8518,0 2.551768,-1.98614 2.555827,-7.25206 0.0055,-7.15768 1.625095,-13.99556 3.314903,-13.99556 0.59025,0 0.45526,0.39324 -0.64653,1.8835 -0.936465,1.26664 -1.044341,2.06326 -1.270238,9.38013 -0.2508,8.1235 -0.388207,8.74728 -2.27557,10.33042 -0.587558,0.49284 -0.523251,0.58213 0.439234,0.60984 1.033396,0.0298 1.050414,0.0635 0.20376,0.40411 -0.508096,0.2044 -1.131667,0.26039 -1.385715,0.12443 -0.254047,-0.13597 -0.306344,-0.0756 -0.116215,0.13404 0.591905,0.6528 2.572836,0.65163 2.823529,-0.002 0.145324,-0.37871 0.655771,-0.52976 1.306098,-0.3865 0.851747,0.18763 0.927487,0.13536 0.374684,-0.25861 -0.524818,-0.37402 -0.173909,-0.46492 1.446863,-0.37482 1.70897,0.095 2.08802,-0.0158 1.8829,-0.5503 -0.18877,-0.49194 -0.035,-0.5841 0.58063,-0.34788 0.85953,0.32983 3.48008,-0.57193 3.48008,-1.19754 0,-0.19204 0.21725,-0.34915 0.48277,-0.34915 0.71863,0 6.96769,-4.32855 8.25751,-5.71975 1.06984,-1.15393 1.09362,-1.31307 0.54285,-3.63281 -2.91994,-12.29834 -3.37518,-14.77955 -3.51962,-19.18302 -0.15042,-4.58559 -1.556188,-5.79411 -3.372158,-8.94387 z m 3.265829,0.13291 c 2.37838,1.97387 2.465763,5.28812 2.892303,10.52135 0.4259,5.22534 2.08957,13.58832 3.81347,19.16966 1.16394,3.76838 0.14685,4.83793 -12.56826,13.21644 -18.791228,12.38232 -23.00306,13.29591 -31.120085,6.7503 v 3.3e-4 c -10.34379,-8.34129 -12.856862,-17.2632 -9.064563,-32.18101 1.387033,-5.45619 1.972572,-8.85775 2.237212,-12.99658 0.481474,-7.53 1.716027,-9.05735 13.908753,-17.20746 5.663735,-3.78588 5.663735,-3.78588 6.883354,-2.98329 0.67079,0.44142 2.841374,1.71602 4.823519,2.83245 4.259354,2.39906 9.76377,6.45404 10.83279,7.98029 0.69034,0.98559 0.60398,0.96497 -0.96244,-0.2298 -0.94645,-0.72189 -1.82756,-1.2058 -1.95801,-1.07535 -0.13045,0.13045 0.75701,0.9736 1.97213,1.87366 1.21512,0.90006 2.31489,1.46563 2.44393,1.25683 0.12905,-0.2088 0.67997,-0.63804 1.44203,-0.0283 0.76207,0.60972 2.608013,2.04505 2.305443,2.04631 z"
         id="path3" />
      <path
         style="fill:#4d4d4d;fill-opacity:1;stroke-width:0;stroke-miterlimit:0;stroke-opacity:0;paint-order:markers fill stroke"
         d="m 183.51104,1611.9208 c -12.27937,-1.0522 -19.61292,-9.3523 -30.19609,-34.1759 -2.46307,-5.7773 -6.50695,-15.969 -8.62494,-21.7372 -2.49492,-6.7948 -3.52133,-12.179 -3.52105,-18.4703 3.9e-4,-9.0169 1.9171,-18.6084 7.94015,-39.7337 2.79941,-9.8187 4.09517,-15.5571 5.69043,-25.2004 1.97356,-11.9304 3.06719,-22.574 3.37008,-32.7992 0.0996,-3.3639 0.24249,-5.599 0.41416,-6.4804 1.61047,-8.2688 8.69589,-16.9575 22.40188,-27.4711 1.20377,-0.9234 6.54495,-4.8247 11.8693,-8.6696 5.32434,-3.8449 11.6883,-8.4553 14.14213,-10.2453 5.58808,-4.0762 6.50642,-4.678 9.00719,-5.9018 2.32763,-1.1392 4.31172,-1.8292 6.81853,-2.3716 2.36183,-0.511 7.97184,-0.5595 10.35407,-0.09 4.11463,0.8116 7.17172,1.836 11.11168,3.7233 9.4212,4.5128 18.70263,11.6288 31.33865,24.0269 8.36295,8.2056 16.38053,15.1185 20.16922,17.3904 1.21807,0.7304 1.51938,0.7668 1.36845,0.1654 -0.0984,-0.3922 -0.0717,-0.4228 0.27637,-0.3156 0.21197,0.065 1.79479,0.7911 3.51739,1.6129 1.72261,0.8217 3.26064,1.4941 3.41786,1.4941 0.35281,0 0.67377,0.7391 0.95047,2.1887 0.11488,0.6018 0.30447,1.2852 0.4213,1.5186 0.11682,0.2334 1.54388,1.6979 3.17124,3.2544 2.47513,2.3675 3.10226,3.0688 3.83616,4.2898 0.48253,0.8028 1.79472,2.9369 2.91599,4.7426 4.73637,7.6273 6.26353,10.8049 7.50292,15.6117 0.98222,3.8095 1.38241,7.176 1.67647,14.1036 0.63252,14.9003 2.32566,24.2468 11.36073,62.7136 1.42458,6.0652 2.71647,11.7094 2.87087,12.5428 0.40226,2.1711 0.28247,4.2643 -0.30993,5.4159 -1.25143,2.4328 -4.63606,5.6215 -11.19675,10.5486 -10.12835,7.6065 -21.06475,14.5926 -22.84395,14.5926 -0.91501,0 -1.77044,0.7113 -1.77044,1.4722 0,0.813 -2.22692,2.3162 -4.8897,3.3007 -3.31488,1.2255 -6.44235,1.5789 -8.43773,0.9535 -2.11432,-0.6628 -2.53582,-0.4098 -2.08599,1.252 0.16047,0.5928 0.24413,1.2279 0.18592,1.4113 -0.0585,0.1842 -0.42031,0.4593 -0.80862,0.6146 -0.59318,0.2374 -1.22886,0.2727 -4.07635,0.2266 -7.83889,-0.1271 -8.67688,-0.067 -8.67688,0.6211 0,0.1341 0.50884,0.6429 1.13074,1.1305 l 1.13074,0.8868 -0.52777,0.052 c -0.29027,0.029 -1.09896,-0.066 -1.79707,-0.2104 -2.99394,-0.6185 -4.43819,-0.208 -5.55283,1.5782 -1.34446,2.1545 -7.70119,2.1897 -10.0632,0.056 -0.80703,-0.7291 -0.83021,-0.9436 -0.0676,-0.6249 0.82655,0.3453 2.81787,0.3062 4.22225,-0.083 1.67028,-0.4628 3.44348,-1.2879 3.44348,-1.6022 0,-0.1428 -0.0189,-0.2619 -0.0421,-0.2648 -0.0231,0 -1.23364,-0.075 -2.68998,-0.1605 -2.5649,-0.1503 -3.32884,-0.313 -3.32884,-0.7092 0,-0.1043 0.47351,-0.6092 1.05224,-1.1221 2.41969,-2.1443 4.42097,-4.3223 5.12784,-5.5807 1.3422,-2.3893 2.14913,-5.6146 2.64106,-10.5561 0.5215,-5.2386 0.67611,-8.3089 1.19783,-23.7875 0.68272,-20.2548 1.00905,-25.0755 1.9586,-28.9327 0.67097,-2.7256 1.14197,-3.6255 4.02225,-7.6853 2.25463,-3.178 2.92895,-4.754 2.26854,-5.3021 -0.35792,-0.2971 -1.78381,-0.2577 -2.41076,0.066 -3.99666,2.0667 -7.89607,14.0741 -9.95618,30.6578 -0.85451,6.8787 -1.16513,11.954 -1.35497,22.1391 -0.15692,8.4193 -0.42248,12.6268 -1.01825,16.1333 -0.96425,5.6753 -2.76825,9.1005 -5.46496,10.3762 -0.75644,0.3579 -1.42791,0.5006 -3.17745,0.6754 -1.22007,0.1219 -2.51832,0.347 -2.885,0.5002 -0.85491,0.3572 -1.42888,0.899 -1.42888,1.3487 0,0.8083 -1.10525,1.6075 -2.22314,1.6075 -1.30191,0 -3.21993,1.3969 -4.8398,3.5249 -1.72465,2.2656 -3.92368,4.0832 -8.21697,6.7916 -3.57986,2.2583 -8.8387,4.6675 -10.18857,4.6675 -0.22965,0 -0.49557,-0.095 -0.59094,-0.2105 -0.72875,-0.8845 -1.58541,-18.916 -2.56556,-54.0011 -1.0482,-37.521 -2.05136,-52.4704 -3.70324,-55.1867 -0.42956,-0.7063 -1.06421,-0.7379 -1.40954,-0.07 -0.8024,1.5517 -0.81005,7.2031 -0.0236,17.4383 3.10823,40.4522 3.37434,62.9503 0.9162,77.4581 -1.37656,8.1244 -4.09415,14.0743 -7.84835,17.1833 -2.4275,2.0104 -4.81231,2.8753 -11.81627,4.2857 -6.30459,1.2696 -10.95016,1.7177 -14.58118,1.4066 z"
         id="path15"
         transform="scale(0.26458333)" />
    </g>
  </g>
</svg>
