<?xml version="1.0" encoding="UTF-8" standalone="no"?>
<!-- Created with Inkscape (http://www.inkscape.org/) -->

<svg
   width="206.5984mm"
   height="294.55017mm"
   viewBox="0 0 206.5984 294.55017"
   version="1.1"
   id="svg1"
   xmlns="http://www.w3.org/2000/svg"
   xmlns:svg="http://www.w3.org/2000/svg">
  <defs
     id="defs1" />
  <g
     id="layer1"
     style="display:inline"
     transform="translate(-2.1854563,-1.2423014)">
    <g
       id="g11"
       style="display:inline">
      <path
         id="path6"
         style="display:inline;fill:#1a1a1a;fill-opacity:1"
         d="m 149.00848,2.3151042 c 8.16267,4.374256 17.69394,14.9194248 23.81146,26.3451618 1.2922,2.413453 4.29051,8.020591 6.66316,12.460221 2.37265,4.439631 7.19531,14.208663 10.71718,21.70927 8.13966,17.335184 10.00899,20.914167 13.83119,26.482104 2.89572,4.21828 3.0718,4.616058 2.55592,5.773808 -1.34422,3.01669 -2.24223,4.251296 -3.28249,4.512386 -0.73274,0.18391 -1.02718,0.511795 -0.85731,0.954465 0.2009,0.52354 -0.005,0.60748 -0.92191,0.37724 -1.05385,-0.2645 -1.15564,-0.17996 -0.94257,0.78496 0.19677,0.89115 0.14452,0.95965 -0.29818,0.38861 -0.40568,-0.52329 -0.59459,-0.55184 -0.77153,-0.11576 -1.14061,2.81102 -2.61208,-1.56591 -6.6399,-19.746595 -1.82076,-8.218519 -3.65528,-13.54177 -6.12728,-17.782894 -3.27924,-5.626057 -8.6872,-13.760412 -10.97814,-16.512687 -3.24537,-3.89889 -5.00139,-7.259605 -5.78052,-11.06134 -1.28882,-6.288724 -1.99959,-6.919246 -1.11363,-0.988054 0.65644,4.394625 2.50529,8.446618 5.12837,11.240658 2.56738,2.734714 10.21583,14.433813 12.68295,19.399849 2.5319,5.096454 3.78588,9.327205 6.84454,23.095231 2.77422,12.487662 2.61332,11.964732 5.92057,19.279962 2.71459,6.00435 2.87443,5.45 -3.64009,12.64625 -4.34728,4.80221 -4.92148,5.66371 -4.55063,6.83215 0.39972,1.25941 2.04037,-0.18576 6.11281,-5.38572 2.42951,-3.10215 4.81344,-5.31102 3.58273,-3.3197 -0.1669,0.27006 0.007,0.84163 0.38602,1.27021 0.57947,0.6549 0.794,3.7419 0.32711,4.70514 -0.0612,0.12702 -0.0875,0.3872 -0.0574,0.57774 0.0301,0.19053 -0.14059,0.34623 -0.37931,0.34623 -0.23871,0 -0.5225,-0.67555 -0.63096,-1.5012 -0.1085,-0.82566 -0.13577,-0.66944 -0.0605,0.34675 0.0753,1.0162 0.35744,3.09456 0.62684,4.61884 1.63349,9.24255 0.43806,33.65549 -1.77405,36.22828 -0.74983,0.8721 -2.00093,3.27505 -2.78019,5.33973 -0.77926,2.06468 -2.00175,4.67682 -2.71612,5.80481 -3.72831,5.88701 -4.00553,6.93224 -3.8685,14.56294 0.14302,7.96415 0.77511,6.91032 -8.49767,14.16296 -4.83671,3.78301 -7.98834,6.64391 -11.07219,10.05158 -1.03199,1.14037 -2.90242,2.89761 -4.15685,3.90519 -1.25443,1.00757 -2.38497,1.95084 -2.51199,2.09599 -0.12703,0.14515 -1.1662,0.61042 -2.30942,1.03353 -1.96453,0.72708 -2.01559,0.72586 -0.92811,-0.0176 3.50831,-2.39835 9.24233,-9.53774 9.24233,-11.50782 0,-1.12651 -0.70131,-0.50546 -3.2396,2.86907 -3.27737,4.35711 -5.34442,6.47456 -7.96127,8.15558 -1.20673,0.77518 -2.19418,1.50964 -2.19418,1.63194 0,0.40479 5.26858,-0.29835 7.85223,-1.048 7.03426,-2.041 7.35392,-0.37229 0.70384,3.67678 -17.6528,10.74835 -24.15317,14.48452 -24.45898,14.05806 -0.72537,-1.01157 -1.19649,-3.37229 -0.96221,-4.82193 0.23631,-1.4622 0.19212,-1.63591 -0.24236,-0.94568 -0.52112,0.82787 -0.42937,4.01923 0.15503,5.39089 0.33578,0.7881 -4.06005,3.60174 -12.14758,7.77575 -5.5342,2.85622 -6.26297,3.27747 -20.09283,11.60963 -5.58905,3.36728 -11.409301,6.99863 -12.933581,8.06979 -2.7117,1.9056 -13.024056,8.14116 -17.495056,10.57868 -3.1874,1.73774 -3.816444,1.64993 -17.897099,-2.49391 -19.320175,-5.68579 -23.109752,-6.90667 -25.156088,-8.10493 -3.077497,-1.80208 -6.843575,-2.78406 -5.042069,-1.31465 3.284223,2.67882 7.713886,4.41236 21.214726,8.30131 7.545725,2.17357 14.797176,4.33865 16.114262,4.81107 1.317086,0.47242 3.065058,0.97762 3.884517,1.12293 1.524405,0.27032 3.617024,2.2511 6.355684,6.01721 0.75822,1.04268 1.849129,2.41328 2.424659,3.0458 0.57553,0.63253 1.046447,1.36219 1.046447,1.62109 0,0.48364 -7.626994,0.18333 -11.316622,-0.44545 -4.605026,-0.78477 -8.545214,-1.75862 -8.545214,-2.11201 0,-0.21263 -0.779515,-0.2914 -1.732194,-0.1757 -1.095155,0.13301 -1.425775,0.0745 -0.89917,-0.15917 1.111552,-0.49318 -9.429829,-4.94357 -10.837582,-4.57543 -0.527743,0.138 -3.272948,-0.48892 -6.100919,-1.39319 -2.82797,-0.90427 -5.501314,-1.6837 -5.940723,-1.7322 -0.439408,-0.0485 -0.941671,-0.23112 -1.116211,-0.40566 -0.475819,-0.47582 -2.568059,-0.38241 -2.269112,0.10129 0.14227,0.23048 0.72624,0.32955 1.297595,0.22117 0.909758,-0.17259 0.928284,-0.14829 0.148828,0.19379 -0.847157,0.37179 -0.849258,0.40608 -0.04909,0.71313 0.462371,0.17743 0.709344,0.45338 0.54932,0.6134 -0.448295,0.44829 -8.492563,-5.88345 -11.797213,-9.28573 -1.622021,-1.66994 -3.118483,-3.03651 -3.325378,-3.03651 -1.307826,0 -2.893253,-3.73905 -5.692676,-13.42657 C 10.444318,251.09248 7.9375576,242.92629 6.5262166,238.66295 2.4222586,226.26583 2.2594593,228.58971 8.0398193,217.07512 15.665083,201.88545 18.75131,194.90507 18.75131,192.84818 c 0,-2.5223 -0.447868,-1.80272 -3.461287,5.56193 -1.455294,3.55666 -4.882825,11.03991 -7.6171063,16.62896 -0.6835703,1.39726 -1.9611397,4.52338 -2.5699318,5.78067 l -2.2796354,-8.87817 c 0.7240794,-2.18582 2.1936562,-7.78019 3.7049342,-13.51751 0.9348566,-3.54903 1.8833994,-6.93694 2.1083984,-7.52874 0.225,-0.59179 0.6322774,-5.06675 0.9048544,-9.94461 0.4885595,-8.74294 0.5130705,-8.88531 1.7347775,-10.02368 1.942766,-1.81024 3.888867,-4.5189 6.305042,-8.7762 2.614964,-4.60755 4.177574,-6.74339 7.338053,-10.03143 2.505121,-2.60623 2.441735,-3.39281 -0.389123,-4.85242 -0.726755,-0.37472 -0.660358,-0.18946 0.303857,0.85111 1.232512,1.3301 1.232387,1.33025 -1.949752,4.79454 -1.908024,2.0772 -4.144448,5.22111 -5.585189,7.85223 -2.501993,4.56921 -6.032027,9.88017 -6.940661,10.44174 -1.2307018,0.76062 1.256564,-17.91272 4.519621,-33.93229 4.915217,-24.13063 11.162223,-39.545033 23.345345,-57.602687 6.012464,-8.911591 8.072827,-13.481593 10.60142,-23.513811 2.891099,-11.470468 6.31181,-17.959876 11.15074,-21.156331 24.426077,-16.135147 34.350657,-21.110069 40.337073,-20.219438 6.69705,0.996356 10.4106,0.235248 21.44365,-4.393013 13.8724,-5.8193411 23.07205,-8.3363157 22.46633,-6.1469117 -1.31015,4.735681 -1.02716,6.1156817 1.89084,9.2278607 1.52126,1.6225 3.45607,3.78145 4.3,4.79764 0.84392,1.016191 2.9207,3.302493 4.6147,5.080827 1.694,1.778333 3.34619,3.960666 3.67161,4.849833 0.55121,1.506114 3.1535,6.93195 3.52227,7.343738 0.18578,0.207459 3.87677,-2.269754 3.87677,-2.601909 0,-0.117567 -0.73911,0.222321 -1.6428,0.75551 -0.90369,0.533189 -1.73238,0.96945 -1.84123,0.96945 -0.34368,0 -2.98225,-5.48482 -2.98225,-6.199105 0,-0.375374 -1.43305,-2.303716 -3.1843,-4.285527 C 143.13456,9.1138582 143.95228,10.261389 144.86506,7.91993 c 1.0304,-2.6431635 1.66849,-4.3148171 1.81992,-5.3245566 m -1.10007,-1.353072 c -0.61084,0.003 -1.48032,0.1626518 -2.6355,0.3870565 -5.71663,1.110516 -10.55253,2.8450701 -28.12179,10.0862061 -4.91382,2.025222 -8.91024,2.460832 -15.354105,1.673283 C 93.586575,12.669365 93.823022,12.569886 76.140572,23.21047 52.639644,37.352379 51.615578,38.560885 47.432247,57.08127 45.264331,66.67904 43.41128,71.016724 38.999687,76.821667 20.627703,100.99623 8.1276693,144.05781 8.1276693,183.17383 c 0,3.13907 -0.2069983,6.25165 -0.4599203,6.91689 -0.64801,1.70439 -5.3188401,20.61673 -5.4749095,21.66296 -0.1560694,1.04623 2.2139022,10.29745 2.2139022,10.29745 -0.4765094,0.997 -1.2015745,2.24511 -1.4882968,2.86149 -0.2867222,0.61639 -0.4641747,1.01239 -0.5036052,1.12785 -0.6039636,1.76852 3.268833,15.95921 8.2801143,30.33871 0.841093,2.41345 1.975162,5.91992 2.519743,7.79229 0.548491,1.88581 1.449547,3.84339 2.020032,4.38836 0.566419,0.54108 1.492425,1.74743 2.058272,2.68098 4.379081,7.22477 18.923391,17.30271 25.477515,17.6537 7.637625,0.40901 10.12061,0.82736 20.795113,3.5016 7.956756,1.99336 12.949395,2.90489 18.46709,3.37188 1.887731,0.15962 3.685923,-0.44984 6.421313,-2.17661 1.83254,-1.15683 9.336432,-4.91193 18.517738,-9.26662 3.00807,-1.42672 4.86073,-2.7539 8.13335,-5.82445 3.84201,-3.60478 4.52787,-4.05466 7.33754,-4.81521 2.72855,-0.73858 3.23741,-1.05801 4.25607,-2.67167 1.5874,-2.5146 3.22783,-3.96412 5.6813,-5.02036 2.78152,-1.19747 4.72155,-3.14496 7.27656,-7.30447 2.78157,-4.52835 5.07507,-7.37367 6.29264,-7.80624 9.43383,-3.35157 9.45596,-3.36753 13.71596,-10.26035 1.88231,-3.04564 3.70868,-5.33681 5.40329,-6.77789 4.70453,-4.00071 4.99306,-4.3719 6.01513,-7.73699 1.05656,-3.47862 3.09546,-5.7884 11.87525,-13.45396 1.77834,-1.55265 5.20779,-4.54416 7.62124,-6.64766 12.25264,-10.67909 13.06677,-11.59728 14.05599,-15.85278 0.32928,-1.4165 1.14654,-3.2941 1.81642,-4.17235 1.53168,-2.00814 1.52294,-2.67457 -0.15554,-11.64115 -1.35669,-7.24762 -1.37525,-7.5641 -1.5012,-25.58397 -0.13718,-19.62738 0.003,-21.60611 2.72593,-38.5687 2.53189,-15.769795 1.704,-19.460539 -6.65386,-29.660209 -1.61771,-1.974199 -1.61779,-1.974056 -1.29604,-9.714136 C 200.18735,56.004077 199.5059,54.714192 186.40929,45.893323 182.0788,42.976625 182.6962,43.7985 177.62998,34.20308 173.10192,25.626927 169.32534,19.284091 166.49216,15.496212 163.4131,11.379602 150.74419,1.3940766 148.64364,1.4283366 M 167.84867,227.75767 c 0.20764,-0.0331 0.17886,0.0791 -0.1819,0.38138 -1.58441,1.32774 -4.30978,3.12491 -6.33812,4.17959 -3.07238,1.59756 -5.85339,3.30406 -5.85339,3.59151 0,0.1238 1.37144,-0.54175 3.04736,-1.47898 2.31176,-1.29281 3.17554,-1.5747 3.57963,-1.16737 0.40313,0.40636 0.36419,0.47534 -0.1602,0.28318 -0.39926,-0.14631 -1.38506,0.38031 -2.32647,1.24282 -0.89851,0.82322 -1.42841,1.34086 -1.17771,1.15032 0.25069,-0.19054 0.66134,-0.34675 0.91313,-0.34675 0.8258,0 -1.31413,1.35639 -2.1637,1.37149 -0.77846,0.0138 -7.10077,6.08058 -12.79766,12.28039 -2.06239,2.24445 -3.40998,3.17994 -7.15977,4.97179 -4.68999,2.24112 -9.00417,4.88154 -9.00617,5.51129 -0.002,0.73614 1.42852,0.28067 4.07882,-1.29811 3.00152,-1.788 7.47567,-3.64102 7.45587,-3.08818 -0.007,0.1895 -0.78631,1.21337 -1.73219,2.27531 -0.94589,1.06194 -2.4275,2.93867 -3.29231,4.17081 -1.05705,1.50607 -2.32968,2.61423 -3.88348,3.38118 -1.48104,0.73103 -3.07309,2.08322 -4.43229,3.76463 -1.16662,1.44319 -2.43912,2.63857 -2.82721,2.65617 -1.03997,0.0471 -7.68541,3.53087 -9.62629,5.0462 -2.57974,2.01413 -5.8702,3.79921 -6.29419,3.41478 -0.20967,-0.19011 -0.25054,-0.11557 -0.0904,0.16537 0.31205,0.54751 -6.14385,4.29018 -14.686962,8.51472 -4.14208,2.04824 -5.480341,2.49454 -7.645011,2.55024 -1.44318,0.0372 -2.837539,0.19992 -3.098519,0.36121 -0.26099,0.1613 -0.720317,-0.003 -1.021127,-0.36587 -0.44423,-0.53526 -0.272774,-0.80112 0.914156,-1.4149 0.80373,-0.41563 1.357446,-0.85947 1.230416,-0.9865 -0.12702,-0.12702 -0.894886,0.11265 -1.706356,0.53227 -1.43305,0.74106 -1.496897,0.73183 -2.226737,-0.31264 -0.41328,-0.59142 -1.847019,-2.36794 -3.186369,-3.94808 -2.879,-3.39661 -2.80732,-3.09909 -0.93431,-3.86437 0.82565,-0.33736 4.668651,-2.46399 8.539531,-4.72632 8.11788,-4.74446 11.513702,-5.50051 7.419702,-1.65158 -1.09255,1.02716 -1.751984,1.80022 -1.465544,1.71772 1.1857,-0.34166 9.869512,-6.20807 10.115662,-6.83369 0.14689,-0.37331 0.120972,-0.53231 -0.05788,-0.35347 -0.17884,0.17885 -0.585107,-0.0306 -0.902787,-0.46508 -0.67476,-0.92279 0.271524,-1.63535 9.031495,-6.80321 2.92155,-1.72353 6.45497,-3.91152 7.85223,-4.86223 1.39726,-0.95071 5.8659,-3.49435 9.93066,-5.65237 4.06476,-2.15802 8.42994,-4.53663 9.70018,-5.28598 1.27024,-0.74935 5.27179,-2.89245 8.89197,-4.7625 3.62018,-1.87005 6.58202,-3.57204 6.58202,-3.78168 0,-0.20964 0.3114,-0.38086 0.69247,-0.38086 0.38107,0 0.69298,-0.20795 0.69298,-0.46199 0,-0.25405 0.21126,-0.46198 0.46922,-0.46198 0.45568,0 1.73948,-0.78243 9.46196,-5.76864 2.30176,-1.4862 5.05268,-2.89161 5.67562,-2.99104 z" />
      <path
         style="display:inline;fill:#4d4d4d;stroke:#1a1a1a;stroke-width:0;stroke-linecap:square;stroke-miterlimit:0;paint-order:markers fill stroke"
         d="m 271.13552,1101.7812 c -1.71014,-0.2511 -7.30698,-1.0585 -12.43741,-1.7944 -11.75442,-1.6859 -30.09593,-6.0275 -31.6532,-7.4926 -0.64986,-0.6113 -2.76067,-1.1115 -4.6907,-1.1115 -1.93002,0 -5.59595,-1.3732 -8.1465,-3.0514 -7.51,-4.9415 -29.67044,-13.2423 -38.63037,-14.47 -7.6701,-1.0509 -36.46708,-8.8396 -48.13548,-13.019 -6.50382,-2.3296 -10.24793,-2.2792 -10.74995,0.1447 -0.47042,2.2713 -17.114133,-10.5869 -32.117527,-24.8125 -5.130432,-4.8645 -12.242117,-11.2903 -15.803746,-14.2796 -8.435112,-7.0797 -10.794159,-12.8077 -25.773848,-62.58218 -6.44621,-21.41944 -15.476457,-50.41795 -20.067214,-64.44113 -12.292696,-37.54994 -13.3930038,-30.78063 14.079798,-86.62165 26.356456,-53.57193 33.88386,-71.19819 33.88386,-79.34284 0,-3.11946 -0.47683,-5.67175 -1.05962,-5.67175 -1.115838,0 -5.361418,8.89764 -13.714898,28.74289 -2.767121,6.57381 -9.58564,21.68527 -15.152263,33.581 -5.566623,11.89574 -12.371174,26.66577 -15.121225,32.82229 -2.75005,6.15651 -5.414791,11.64753 -5.921646,12.20226 -1.077065,1.1788 -9.101275,-29.87316 -8.126971,-31.44963 0.82893,-1.34122 20.45769,-73.54091 21.817904,-80.25191 0.55459,-2.73623 1.901267,-18.25197 2.992615,-34.47943 2.031436,-30.20584 2.890439,-35.0286 6.818106,-38.27941 4.658131,-3.8554 13.937136,-16.57663 21.978286,-30.13155 11.672631,-19.67649 16.592347,-26.67383 25.835406,-36.74582 12.482593,-13.60205 13.154843,-16.48158 5.021362,-21.50836 -5.396379,-3.33514 -6.553939,-2.45192 -3.115401,2.37706 1.44274,2.02615 2.623163,4.24574 2.623163,4.93246 0,0.6867 -3.777863,5.63845 -8.395251,11.00386 -10.983618,12.76299 -15.81012,19.56435 -24.571724,34.62573 -8.637465,14.84798 -21.115582,33.65926 -23.169115,34.92843 -3.076073,1.90112 1.221007,-36.38535 9.523183,-84.8504 14.359384,-83.8248 30.360988,-138.45984 55.649546,-190.00689 11.65319,-23.75334 18.96385,-36.36468 38.48138,-66.3827 24.77773,-38.10821 30.48326,-50.58312 41.59675,-90.94971 14.63776,-53.16749 23.12683,-67.65468 50.21413,-85.69406 42.72178,-28.451487 86.66,-54.373399 106.69856,-62.948178 17.09116,-7.313538 21.82584,-8.096539 47.4954,-7.854573 27.56582,0.259841 28.07387,0.133331 75.58865,-18.822697 39.30362,-15.680178 60.63095,-22.673937 71.68648,-23.507765 8.07852,-0.609297 8.53872,-0.505997 7.61659,1.709694 -0.53977,1.296995 -1.25682,6.595654 -1.59343,11.774798 -0.74479,11.459482 0.0641,13.265403 11.69017,26.100961 22.40622,24.737086 37.24382,41.497455 39.92407,45.097722 1.62106,2.177488 6.35642,11.095038 10.52301,19.816768 4.16658,8.72174 8.09453,15.8577 8.72875,15.8577 1.81613,0 14.63397,-8.82103 14.63397,-10.07087 0,-1.76631 -1.49221,-1.34004 -6.84058,1.95411 -2.73623,1.68529 -5.41827,3.08163 -5.96008,3.10298 -0.54182,0.0214 -4.32781,-6.81731 -8.41332,-15.19701 -6.44746,-13.22423 -9.17341,-17.206371 -20.64643,-30.160717 -23.2865,-26.293141 -36.70107,-42.198359 -38.46915,-45.611597 -1.57092,-3.032637 -1.32228,-4.39711 2.83298,-15.546761 2.50528,-6.722297 4.63696,-12.356448 4.73708,-12.520336 0.10011,-0.163889 1.85144,-0.631862 3.89183,-1.0399392 8.34402,-1.6688059 41.51148,25.9940472 61.97954,51.6931792 24.39106,30.624728 52.2629,81.973521 107.01151,197.149181 20.73442,43.61939 28.21763,57.6363 42.42278,79.46272 5.73869,8.81755 10.43397,16.85462 10.43397,17.86015 0,3.99319 -8.12726,16.95557 -12.10093,19.30009 -2.23724,1.32 -4.0677,3.2542 -4.0677,4.29824 0,1.44581 -0.88929,1.72036 -3.73123,1.15197 -3.12195,-0.62439 -3.73122,-0.3515 -3.73122,1.67112 0,1.53664 -0.62121,2.17896 -1.70512,1.76303 -0.9378,-0.35987 -2.03961,0.21738 -2.44844,1.28278 -3.14543,8.19685 -8.76422,-9.25139 -23.06354,-71.62015 -6.91384,-30.15572 -12.74068,-48.74084 -19.47219,-62.10783 -8.87762,-17.62861 -29.53265,-49.45265 -47.16013,-72.66154 -12.44341,-16.38339 -17.15732,-26.04736 -21.21348,-43.48979 -1.83514,-7.89153 -3.84137,-14.66019 -4.45829,-15.04147 -1.76959,-1.09367 -1.31034,9.8369 0.85453,20.33867 2.87115,13.92788 8.8776,25.78029 20.75834,40.96206 18.27485,23.3524 40.75083,58.98487 48.80456,77.3727 7.43364,16.97206 11.40587,31.17364 22.98213,82.16602 8.79442,38.73868 10.37418,44.00989 19.42803,64.82592 4.37679,10.06285 8.29004,19.9573 8.69611,21.98766 1.12738,5.63686 -1.90368,10.53537 -17.08467,27.61059 -19.72884,22.19055 -20.46237,23.28015 -19.8858,29.53884 0.51366,5.57589 10.14522,-2.70769 26.83688,-23.08098 l 8.46545,-10.33263 2.3203,5.18256 c 2.41105,5.38525 3.07293,15.47837 1.20807,18.42186 -0.80577,1.27181 -1.39798,0.80568 -2.37025,-1.86561 l -1.29611,-3.56102 -0.0759,3.73122 c -0.0417,2.05217 0.79083,9.04822 1.85011,15.54676 5.83404,35.79076 2.16164,122.79012 -5.77505,136.8115 -1.35522,2.39421 -4.96777,9.67009 -8.02788,16.16864 -5.5466,11.77894 -10.6633,21.90775 -21.55081,42.66117 l -5.7423,10.94578 -0.64806,27.08857 -0.64808,27.08858 -3.40821,4.46494 c -1.87452,2.45573 -13.06818,12.17707 -24.87482,21.60299 -11.80663,9.42591 -31.10476,26.54266 -42.88473,38.03721 -19.30549,18.83775 -30.86673,28.35304 -34.44942,28.35304 -0.70281,0 2.41079,-3.77786 6.91908,-8.39525 14.24366,-14.58832 23.45178,-27.91691 23.45178,-33.94604 0,-4.24623 -2.55089,-2.34149 -11.01123,8.22209 -14.60724,18.23856 -22.31637,26.219 -31.17407,32.2712 -4.84444,3.31006 -8.80808,6.55638 -8.80808,7.21405 0,1.84146 16.61543,-0.0542 30.99627,-3.5363 6.98122,-1.69042 14.05668,-3.07349 15.72325,-3.07349 4.90318,0 3.57508,3.24229 -3.49953,8.54346 -7.28709,5.46039 -75.16437,46.3718 -91.92337,55.40459 l -10.76928,5.80445 -1.60092,-4.71553 c -0.8805,-2.59355 -1.54506,-7.93371 -1.4768,-11.86704 0.0683,-3.93333 -0.37108,-7.15151 -0.97633,-7.15151 -1.91373,0 -2.75396,6.19934 -2.02261,14.923 0.63513,7.57575 0.43123,8.68489 -2.00755,10.92044 -4.66099,4.27256 -15.87348,10.90838 -42.70853,25.27589 -26.5825,14.2323 -80.76226,46.31013 -111.74236,66.15852 -54.63486,35.0035 -81.8507,50.6958 -89.39975,51.5467 -7.65353,0.8627 -18.3566,-1.7131 -68.61833,-16.5135 -58.70979,-17.288 -69.83836,-20.9531 -85.23533,-28.0711 -7.23874,-3.3465 -14.7521,-6.0846 -16.69637,-6.0846 h -3.53502 l 2.89564,3.0823 c 4.17553,4.4447 22.19893,13.3749 37.33767,18.5 7.1826,2.4317 33.20788,10.4015 57.83395,17.7108 24.62607,7.3093 49.1336,14.5989 54.46119,16.1991 13.96424,4.1945 14.70521,4.8611 36.81825,33.1244 l 6.56841,8.3952 -13.47732,-0.1693 c -7.41251,-0.093 -14.87651,-0.3748 -16.58665,-0.6258 z"
         id="path9"
         transform="scale(0.26458333)" />
      <path
         style="display:inline;fill:#1a1a1a;stroke:#1a1a1a;stroke-width:0;stroke-linecap:square;stroke-miterlimit:0;paint-order:markers fill stroke"
         d="m 307.20401,1099.6547 c 0,-0.9942 2.09881,-3.0622 4.66403,-4.5955 5.81873,-3.4782 3.37078,-4.6733 -3.74243,-1.8271 -5.1418,2.0573 -5.24208,2.0464 -7.50101,-0.8149 -1.25925,-1.5951 -6.31062,-7.8317 -11.22528,-13.8593 -4.91466,-6.0275 -9.08133,-11.3615 -9.25927,-11.8533 -0.17794,-0.4918 3.41535,-2.7379 7.98509,-4.9914 4.56973,-2.2534 16.13145,-8.5933 25.6927,-14.0886 19.26708,-11.0737 32.67232,-17.4694 35.46924,-16.9225 1.25059,0.2445 -0.20979,2.5977 -4.57643,7.3741 -3.52722,3.8582 -6.41312,7.3706 -6.41312,7.8053 0,1.3923 7.70001,-3.0937 22.5556,-13.1407 17.80497,-12.0417 18.45577,-12.7371 14.73717,-15.7483 l -2.79986,-2.2672 4.51313,-3.7201 c 2.48222,-2.046 14.17031,-9.5305 25.97354,-16.63207 11.80323,-7.1016 26.21772,-15.96277 32.03221,-19.69147 9.98412,-6.40259 64.17854,-36.37819 109.4492,-60.53771 19.2177,-10.25588 29.63908,-16.34271 31.09353,-18.16083 1.68927,-2.11168 11.04102,-5.92256 11.45871,-4.66948 0.28091,0.84273 3.41486,-0.12349 8.14463,-2.51107 9.46807,-4.77947 10.38267,-4.83552 6.10862,-0.37439 -1.8477,1.92859 -2.98239,3.8836 -2.52152,4.34446 0.46087,0.46087 -1.07042,1.21336 -3.40287,1.6722 -3.3853,0.66596 -10.13705,6.64682 -33.46872,29.64736 l -29.22792,28.81309 -14.30302,7.2084 c -22.94435,11.56344 -34.82474,19.08117 -34.82474,22.03657 0,2.43026 6.3312,0.59057 16.16863,-4.69822 12.41502,-6.67455 24.88218,-12.09444 25.77246,-11.20415 0.34544,0.34544 -2.68194,4.71562 -6.7275,9.7115 -4.04558,4.99588 -9.48843,11.77235 -12.09523,15.05883 -2.69713,3.40036 -7.76174,7.65281 -11.75245,9.86778 -3.91429,2.1726 -11.40908,8.4302 -16.96275,14.1626 -7.63083,7.8763 -11.53215,10.8863 -16.73837,12.9143 -8.73333,3.4017 -21.07257,10.1967 -30.52378,16.8087 -9.75686,6.8258 -20.84525,13.0301 -23.28764,13.0301 -1.0686,0 -2.24919,0.7981 -2.6235,1.7735 -1.36177,3.5488 -52.0052,31.244 -67.9913,37.1823 -10.17219,3.7786 -29.84978,5.6885 -29.84978,2.8972 z"
         id="path11"
         transform="scale(0.26458333)" />
    </g>
  </g>
</svg>
