<?xml version="1.0" encoding="UTF-8" standalone="no"?>
<!-- Created with Inkscape (http://www.inkscape.org/) -->

<svg
   width="122.77636mm"
   height="110.22932mm"
   viewBox="0 0 122.77636 110.22932"
   version="1.1"
   id="svg1"
   xmlns="http://www.w3.org/2000/svg"
   xmlns:svg="http://www.w3.org/2000/svg">
  <defs
     id="defs1" />
  <g
     id="layer1"
     style="display:inline"
     transform="translate(-133.25216,-322.28463)">
    <g
       id="g21">
      <path
         style="display:inline;fill:#4d4d4d;fill-opacity:1;stroke-width:0;stroke-miterlimit:0;stroke-opacity:0;paint-order:markers fill stroke"
         d="m 634.62833,1628.1301 c -12.17153,-5.4767 -28.30249,-10.3077 -38.83389,-11.63 -6.02114,-0.7561 -9.74432,-2.7648 -14.45111,-7.7968 -3.00222,-3.2096 -3.33055,-3.8685 -2.90138,-5.8225 0.41044,-1.8687 0.30513,-2.1348 -0.69326,-1.7516 -2.60603,1 -7.09891,-4.0939 -6.30124,-7.1442 0.29636,-1.1333 0.0124,-1.5176 -1.25544,-1.6993 -1.17542,-0.1684 -1.84387,-0.9342 -2.3654,-2.7097 -0.39984,-1.3611 -1.01162,-2.9166 -1.35952,-3.4566 -1.06604,-1.6545 2.77893,-0.5733 32.34036,9.0946 29.21942,9.556 37.39642,11.7212 41.42185,10.9684 1.33043,-0.2488 5.78521,-2.1328 9.89949,-4.1866 4.11428,-2.0538 9.14483,-4.2801 11.17899,-4.9472 3.90378,-1.2804 7.22816,-3.4939 6.43836,-4.287 -0.25838,-0.2594 -1.16067,-0.102 -2.00511,0.35 -0.84443,0.4519 -1.65792,0.6991 -1.80776,0.5492 -0.14983,-0.1498 3.0594,-4.0291 7.13163,-8.6206 6.81233,-7.681 8.5251,-10.3134 6.71034,-10.3134 -1.1888,0 -19.10748,12.3817 -26.5299,18.332 -11.26957,9.0344 -12.14176,9.5629 -15.53943,9.415 -3.83381,-0.1669 -9.48796,-2.2732 -34.66515,-12.9137 -26.00038,-10.9884 -32.95473,-13.5818 -41.7193,-15.5578 -6.81654,-1.5369 -7.20284,-1.7283 -10.73199,-5.3166 -4.29678,-4.3688 -35.41061,-50.7422 -38.86906,-57.9321 -1.30421,-2.7114 -2.3713,-5.755 -2.3713,-6.7637 0,-1.0086 1.70058,-5.1807 3.77907,-9.2714 4.36263,-8.5861 9.50032,-23.654 10.13468,-29.7233 0.33116,-3.1683 0.77647,-4.3562 1.84815,-4.9297 3.18985,-1.7072 16.1481,-14.3059 35.22774,-34.2504 30.39418,-31.7719 45.27569,-48.3271 58.10005,-64.6346 12.86201,-16.3553 24.55921,-30.722 25.74389,-31.619 0.62459,-0.4729 3.7147,-1.7057 6.8669,-2.7395 8.61776,-2.8261 14.38097,-6.1244 20.62868,-11.8058 3.10178,-2.8206 6.67349,-5.8646 7.93714,-6.7644 5.55461,-3.9552 13.18155,-5.384 42.21929,-7.9092 9.33381,-0.8117 19.97738,-2.0799 23.65238,-2.8182 11.94645,-2.4001 16.88396,-5.6522 37.51236,-24.707 19.84283,-18.3293 42.14743,-35.3362 53.20199,-40.5659 9.44855,-4.4699 28.13424,-7.4093 51.09626,-8.0379 17.15683,-0.4697 27.18068,0.4152 34.64823,3.0587 2.72236,0.9637 7.01803,2.4212 9.54594,3.2389 3.90786,1.2641 5.33995,2.2382 9.56246,6.5043 5.75341,5.8128 11.25389,14.232 12.2866,18.8061 0.39512,1.7501 1.06718,5.4094 1.49348,8.1318 0.42628,2.7223 1.56858,7.48 2.53843,10.5726 4.20227,13.3999 2.34387,38.4626 -3.71458,50.0954 -1.05375,2.0233 -2.704,5.2095 -3.66722,7.0804 -2.28764,4.4436 -2.2502,8.6778 0.11239,12.7092 0.97273,1.6599 4.47275,6.4748 7.77781,10.6999 3.76798,4.8169 6.32686,8.8165 6.86088,10.7238 1.58664,5.6669 -0.3793,10.9288 -17.58668,47.071 -11.08201,23.2765 -14.84558,30.4622 -16.01712,30.5811 -0.38891,0.039 -0.80682,-0.9625 -0.92869,-2.2264 -0.19138,-1.9849 -0.48791,-2.2981 -2.17563,-2.2981 -1.80194,0 -1.92782,-0.1787 -1.61711,-2.2958 0.37282,-2.5401 0.65753,-2.6315 -4.34844,1.3951 -2.42679,1.9521 -3.28523,2.0404 -2.82774,0.291 0.40593,-1.5523 -1.35263,-2.1944 -6.05016,-2.2091 -1.91382,-0.01 -4.03087,-0.5859 -5.53705,-1.5167 -2.27138,-1.4038 -7.98143,-7.8716 -7.98143,-9.0406 0,-0.2866 0.89429,-0.3899 1.98732,-0.2294 2.56438,0.3763 16.85425,-5.941 18.28994,-8.0857 0.56649,-0.8462 1.49991,-4.5055 2.07426,-8.1317 0.95051,-6.0011 3.25674,-13.4433 9.38364,-30.2812 3.3252,-9.1383 2.79386,-15.5717 -0.62781,-7.6014 -0.87654,2.0418 -3.63718,8.1308 -6.13478,13.5313 -2.49758,5.4004 -5.34606,12.2416 -6.32993,15.2028 -0.98388,2.9611 -2.17026,5.7801 -2.6364,6.2645 -0.46614,0.4844 -10.06535,2.7708 -21.33158,5.081 -55.09922,11.2982 -64.24323,13.2731 -66.26923,14.3128 -1.47904,0.7589 -1.65287,2.7065 -0.24157,2.7065 1.29304,0 18.22374,-3.129 43.89458,-8.1122 20.98976,-4.0745 30.36818,-5.3851 32.65603,-4.5634 1.84485,0.6626 -2.34478,2.3477 -12.49265,5.0246 -18.07523,4.7682 -26.28963,7.7753 -38.89087,14.2372 -9.11338,4.6733 -14.04272,7.7094 -18.70519,11.5211 -3.48195,2.8466 -6.42946,5.077 -6.55002,4.9565 -0.12056,-0.1206 0.30036,-1.4613 0.93538,-2.9795 2.94706,-7.0454 -1.76784,-20.7691 -8.03507,-23.3877 -4.37974,-1.83 -3.96732,0.1102 1.60726,7.5614 5.84467,7.8122 4.54623,7.5326 -6.39975,-1.3781 -9.85499,-8.0225 -10.09298,-8.113 -22.13213,-8.4164 -8.92051,-0.2249 -15.60654,0.1904 -14.86217,0.923 0.13697,0.1349 4.5447,0.6009 9.79497,1.0356 13.8489,1.1467 15.19044,1.6731 24.74874,9.7104 4.47245,3.7607 8.23662,7.4441 8.36482,8.1853 0.57411,3.3189 -7.01128,14.5822 -18.74947,27.8405 -14.30646,16.1592 -30.85771,32.2202 -56.80513,55.1226 -17.09179,15.0861 -23.86761,22.1323 -34.82908,36.219 -4.46792,5.7418 -9.59281,12.1609 -11.38862,14.2648 -3.57783,4.1915 -4.04564,5.6775 -1.78739,5.6775 0.99055,0 8.45068,-6.9175 22.62742,-20.9814 11.63232,-11.5398 21.14966,-20.6272 21.14966,-20.1943 0,0.4329 -0.31819,0.9838 -0.7071,1.2241 -0.38891,0.2404 -0.70711,1.2138 -0.70711,2.1631 0,1.3697 -0.36495,1.726 -1.76777,1.726 -2.45024,0 -2.46035,2.6277 -0.0125,3.2421 l 1.7553,0.4405 -1.56397,1.2664 c -1.507,1.2203 -1.59814,1.2177 -2.5025,-0.074 -0.5162,-0.737 -1.39779,-1.3399 -1.9591,-1.3399 -1.64115,0 -1.18141,2.3942 1.05168,5.4768 l 2.07225,2.8607 -2.68769,-0.3605 c -3.6074,-0.4839 -4.1408,0.7437 -1.1022,2.5365 1.3606,0.8028 2.47382,1.884 2.47382,2.4027 0,2.0071 -1.7499,2.6401 -7.29907,2.6401 -5.01224,0 -5.50494,0.117 -4.67996,1.111 0.50713,0.6111 1.89844,1.5397 3.09179,2.0637 1.83067,0.8037 1.93015,0.9616 0.63657,1.0103 -2.27289,0.085 -3.77015,0.8015 -3.77015,1.803 0,0.5648 -0.64208,0.7642 -1.76776,0.549 -1.36089,-0.2601 -1.76777,-0.042 -1.76777,0.9466 0,0.9991 -0.18856,1.096 -0.84853,0.436 -1.02752,-1.0275 -3.39411,-1.1261 -3.39411,-0.1414 0,0.3889 -1.12368,0.7071 -2.49706,0.7071 -1.61492,0 -2.6473,0.3915 -2.92233,1.1082 -0.66866,1.7425 0.68452,2.5088 4.79613,2.7162 2.92117,0.1474 3.8596,0.4712 4.03922,1.3936 0.19241,0.9881 -0.12169,1.1154 -1.76777,0.7167 -1.10095,-0.2667 -2.7384,-0.7565 -3.63877,-1.0885 -0.90036,-0.332 -2.88909,-0.6036 -4.41941,-0.6036 -3.88578,0 -3.74271,1.821 0.22281,2.8361 4.54145,1.1625 4.77297,1.2798 4.77297,2.4175 0,0.5804 0.69639,1.7041 1.54754,2.497 l 1.54755,1.4418 h -3.31532 c -3.72041,0 -4.43379,1.0562 -1.19399,1.7678 1.16673,0.2562 2.12132,0.7199 2.12132,1.0304 0,0.3105 -9.78459,5.4493 -21.74353,11.4195 -18.72287,9.3469 -22.16702,10.8397 -24.79189,10.7453 -2.55293,-0.092 -2.91357,0.053 -2.21899,0.8897 1.36272,1.642 0.38195,2.7748 -6.4596,7.4606 -3.58837,2.4578 -8.18995,5.9909 -10.22574,7.8515 -2.3715,2.1674 -4.30099,3.3573 -5.37007,3.3116 -0.91774,-0.039 -4.6915,-1.4314 -8.38614,-3.0939 z"
         id="path13"
         transform="scale(0.26458333)" />
      <path
         style="fill:#1a1a1a;fill-opacity:1"
         d="m 165.05081,431.22951 c -2.48194,-0.87564 -5.74893,-1.73195 -7.25998,-1.90291 -3.35444,-0.37951 -4.59768,-1.5742 -13.41851,-12.89446 -10.28704,-13.20193 -12.31337,-17.28423 -10.55382,-21.262 0.53708,-1.21415 1.35902,-3.5451 1.82652,-5.17988 0.97875,-3.42251 2.35761,-5.14694 12.66621,-15.84052 3.55919,-3.69211 7.92624,-8.5502 9.70458,-10.79576 9.23401,-11.6601 9.99932,-12.45743 12.4876,-13.00999 3.1118,-0.69102 3.706,-1.065 6.84607,-4.30874 3.0878,-3.18974 2.84807,-3.11886 11.8449,-3.50211 10.57929,-0.45066 9.47091,6.5e-4 16.36737,-6.66444 9.69208,-9.36692 14.60389,-12.81316 18.8157,-13.20155 18.56408,-1.71186 28.70431,2.33196 29.91225,11.9287 1.09935,8.73394 0.84519,13.60933 -0.87803,16.84241 -1.38718,2.60261 -1.44652,2.88257 -0.75721,3.57189 5.95325,5.95324 4.5689,11.37187 -8.5145,33.32758 -3.45373,5.79583 -5.37708,9.59263 -8.61467,17.00587 -2.84031,6.50357 -2.70181,6.43236 -19.30948,9.92819 -18.25114,3.84177 -26.53673,6.85566 -39.27443,14.28609 -6.13374,3.57807 -6.38631,3.61358 -11.89057,1.67163 z m 6.35546,-0.24492 c 0.45719,-0.50519 1.85479,-1.57533 3.10577,-2.37808 1.69114,-1.0852 2.11827,-1.5682 1.66533,-1.88315 -0.42428,-0.29504 -0.32196,-0.34383 0.33712,-0.16078 0.59516,0.1653 1.70926,-0.21617 3.00238,-1.02802 1.13084,-0.70996 3.89188,-2.11259 6.13564,-3.11696 3.42666,-1.53387 3.90716,-1.8746 3.00238,-2.12902 -1.07718,-0.30289 -1.07718,-0.30289 0.0776,-0.35601 0.81859,-0.0377 0.97519,-0.16694 0.53793,-0.44411 -0.33926,-0.21505 -0.54711,-0.57562 -0.4619,-0.80126 0.0852,-0.22565 -0.42021,-0.47638 -1.12314,-0.55718 -0.70294,-0.0808 -1.16782,-0.32531 -1.03306,-0.54335 0.13506,-0.21854 0.91448,-0.20443 1.73692,0.0314 1.82629,0.52377 1.72897,0.52569 1.72897,-0.034 0,-0.25405 -0.1559,-0.43729 -0.34643,-0.40721 -1.2011,0.18965 -2.43788,-0.12207 -2.17459,-0.54809 0.16772,-0.27137 0.5957,-0.38182 0.95107,-0.24545 0.35538,0.13637 0.64614,0.0212 0.64614,-0.25602 0,-0.31281 0.29644,-0.26351 0.78152,0.12997 0.6671,0.54112 0.72363,0.53791 0.38613,-0.0219 -0.29899,-0.49596 -0.20214,-0.58171 0.39723,-0.35172 0.47081,0.18067 0.67804,0.11877 0.51042,-0.15245 -0.15521,-0.25114 0.19774,-0.46979 0.78434,-0.48589 1.06655,-0.0293 1.06655,-0.0293 0.0273,-0.44702 -1.56694,-0.62984 -1.25364,-0.89892 0.80785,-0.69383 1.85125,0.18417 2.09921,-1.05172 0.35221,-1.75553 -0.32047,-0.12911 -0.115,-0.25116 0.45661,-0.27121 0.63208,-0.0222 1.03928,0.235 1.03928,0.65639 0,0.84074 0.74309,0.91215 1.20156,0.11547 0.18275,-0.31756 0.1732,-0.43431 -0.0212,-0.25946 -0.49772,0.44765 -2.61434,-1.94468 -2.24677,-2.53942 0.17971,-0.29077 0.44359,-0.12698 0.65173,0.40454 0.19237,0.49124 0.36437,0.64857 0.38223,0.34964 0.0179,-0.29893 0.39621,-0.63857 0.8408,-0.75475 0.59309,-0.15499 0.52433,-0.22551 -0.25821,-0.26482 -0.59535,-0.0299 -0.93837,-0.26098 -0.77642,-0.52302 0.15957,-0.25819 0.51574,-0.33001 0.79148,-0.15959 0.30343,0.18753 0.36812,0.0943 0.16388,-0.2362 -0.19966,-0.32305 0.26869,-1.11231 1.14679,-1.93258 0.81635,-0.76258 1.38124,-1.48954 1.25531,-1.61547 -0.12592,-0.12592 -3.12262,2.79019 -6.65933,6.48026 -3.53671,3.69006 -6.72288,6.70921 -7.08038,6.70921 -0.43709,0 -0.2727,-0.41609 0.50182,-1.27024 0.6335,-0.69863 2.0071,-2.41345 3.05244,-3.81071 2.76857,-3.70064 4.9249,-5.93825 9.59476,-9.95641 11.93251,-10.26726 21.36715,-21.02856 19.55061,-22.29973 -0.59093,-0.41352 -1.8777,-1.47719 -2.85949,-2.36372 -1.64173,-1.48242 -2.08683,-1.63505 -5.54286,-1.90067 -3.75778,-0.28882 -3.75778,-0.28882 0.1884,-0.36034 3.94618,-0.0715 3.94618,-0.0715 6.6676,2.22953 3.14236,2.65697 3.81328,2.66028 1.68209,0.008 -0.81655,-1.01609 -1.28212,-1.84744 -1.0346,-1.84744 2.09078,0 3.81791,4.75488 2.48039,6.82865 -0.66337,1.02854 -0.38883,0.90138 1.53092,-0.70911 1.28659,-1.07932 2.45298,-1.9624 2.59198,-1.9624 0.13901,0 1.73923,-0.81709 3.55605,-1.81576 2.08248,-1.1447 4.91858,-2.18901 7.67389,-2.82571 7.5766,-1.75079 7.16101,-2.89281 -0.50757,-1.39477 -16.00636,3.12681 -14.96074,2.95663 -14.96074,2.43482 0,-0.20244 1.2991,-0.60354 2.8869,-0.89132 1.5878,-0.28779 6.42048,-1.29177 10.73929,-2.23107 4.31881,-0.93931 8.37202,-1.7506 9.00714,-1.80286 0.83321,-0.0686 1.20002,-0.4055 1.31729,-1.21 0.0894,-0.61324 0.80555,-2.46675 1.59146,-4.11891 0.78591,-1.65217 1.68428,-3.62751 1.99638,-4.38966 0.51543,-1.25868 0.57067,-1.28695 0.60259,-0.30837 0.0193,0.59254 -0.60576,2.53756 -1.38908,4.32228 -0.78331,1.78472 -1.54179,4.38422 -1.68551,5.77667 -0.18145,1.75809 -0.48727,2.60147 -1.00078,2.75994 -0.40672,0.12551 -1.55368,0.63479 -2.5488,1.13173 -1.43217,0.7152 -1.88802,0.77945 -2.18697,0.30826 -0.20772,-0.3274 -0.38085,-0.42835 -0.38474,-0.22433 -0.0186,0.9768 2.16671,3.37296 3.11078,3.41087 2.21625,0.089 2.47035,0.15922 2.19405,0.60629 -0.45495,0.73613 0.30519,0.53544 1.31219,-0.34643 0.85005,-0.74443 0.90043,-0.74629 0.63727,-0.0235 -0.20351,0.55894 -0.0931,0.71089 0.38358,0.52797 0.45756,-0.17558 0.66934,0.0597 0.66934,0.74364 0,1.83921 0.74861,0.57735 5.00423,-8.43509 5.45285,-11.54792 5.35913,-10.97882 2.41273,-14.6501 -3.09791,-3.86006 -3.19077,-4.37597 -1.32691,-7.37159 1.88265,-3.02581 2.4923,-10.90453 1.11092,-14.35694 -0.40387,-1.00936 -0.73867,-2.71439 -0.74402,-3.78895 -0.01,-1.98934 -4.08189,-7.23885 -5.64807,-7.28132 -0.31786,-0.009 -1.40936,-0.41728 -2.42555,-0.90814 -3.67068,-1.77306 -18.38125,-1.07285 -23.08091,1.09863 -3.08054,1.42337 -8.90028,5.79669 -13.68809,10.2861 -7.60096,7.12724 -7.4537,7.05962 -17.156,7.87714 -9.42369,0.79405 -9.75924,0.8951 -12.92277,3.89143 -1.6351,1.54868 -2.97982,2.34258 -4.88676,2.88506 -1.447,0.41164 -2.69782,0.94917 -2.77961,1.19453 -0.0818,0.24536 -1.37926,1.91534 -2.88329,3.71108 -1.50402,1.79574 -3.54504,4.34993 -4.5356,5.67598 -3.73779,5.00376 -23.26119,25.47233 -23.79088,24.94265 -0.15578,-0.15578 -0.28323,0.14523 -0.28323,0.6689 0,1.67171 -1.88232,7.22376 -3.06864,9.05119 -1.37055,2.11123 -1.26293,2.39139 3.87493,10.08744 7.07764,10.60163 6.38103,9.80207 9.03391,10.36909 2.52141,0.53891 3.96799,1.08229 11.87643,4.46111 8.96696,3.83107 9.02363,3.84138 10.99765,2.00019 1.39956,-1.30538 5.81302,-4.49679 8.27977,-5.98715 1.17193,-0.70806 0.51394,0.29039 -1.84762,2.80364 -1.66882,1.77599 -2.06491,2.3979 -1.27024,1.99438 0.74506,-0.37833 0.97885,-0.3986 0.65895,-0.0571 -0.2727,0.2911 -0.89627,0.60894 -1.38572,0.70633 -0.48944,0.0974 -2.05284,0.79196 -3.47422,1.5435 -2.91123,1.53928 -2.15397,1.67356 -15.42996,-2.73607 -3.04857,-1.01258 -5.85465,-1.87873 -6.23572,-1.92478 -0.38107,-0.0461 -0.83745,-0.28556 -1.01417,-0.53225 -0.17672,-0.24669 -0.43782,-0.33203 -0.58021,-0.18963 -0.1424,0.14239 0.19382,0.65602 0.74714,1.14138 0.63898,0.56051 0.86579,0.6297 0.62163,0.18963 -0.22486,-0.40529 -0.21233,-0.53554 0.0302,-0.31383 0.22803,0.20847 0.41724,0.72811 0.42048,1.15477 0.003,0.42665 0.28117,0.71861 0.61761,0.64881 0.33988,-0.0705 0.47372,0.0964 0.30118,0.37553 -0.3974,0.64301 1.13513,2.36526 1.76068,1.97865 0.28184,-0.17418 0.32903,-0.0608 0.11729,0.28176 -0.59644,0.96506 2.45822,3.72669 4.12212,3.72669 1.89651,0 7.41741,1.55618 10.4781,2.95346 3.06672,1.40004 2.85686,1.3845 3.85176,0.28515 z"
         id="path2" />
    </g>
  </g>
</svg>
