<?xml version="1.0" encoding="UTF-8" standalone="no"?>
<!-- Created with Inkscape (http://www.inkscape.org/) -->

<svg
   width="193.96576"
   height="347.9556"
   viewBox="0 0 193.96576 347.9556"
   version="1.1"
   id="svg1"
   xmlns="http://www.w3.org/2000/svg"
   xmlns:svg="http://www.w3.org/2000/svg">
  <defs
     id="defs1" />
  <g
     id="layer1"
     transform="translate(-444.15112,-230.21652)">
    <g
       id="g75"
       transform="rotate(90,641.634,244.69431)">
      <path
         style="fill:#eae4c7;fill-opacity:1;stroke:#1a1a1a;stroke-width:0;stroke-linecap:square;stroke-miterlimit:0;paint-order:markers fill stroke"
         d="m 786.10843,401.84535 c -2.05997,-0.92227 -4.5018,-1.43421 -8.39924,-1.76094 -1.90687,-0.15985 -3.64226,-0.46587 -3.85643,-0.68004 -0.62279,-0.62279 0.20832,-1.31377 2.41505,-2.00787 2.02501,-0.63695 2.0677,-1.22299 0.0899,-1.23451 -1.12081,-0.007 -1.5269,-0.85762 -2.11128,-4.42483 -0.53419,-3.26085 -0.52914,-17.96327 0.008,-23.33453 0.57417,-5.74148 1.57045,-10.49526 2.62036,-12.50318 1.61515,-3.08892 2.49094,-7.12946 1.65703,-7.64485 -0.19044,-0.11769 -0.67682,-0.0371 -1.08085,0.17916 -0.71701,0.38373 -0.72879,0.3418 -0.49197,-1.75142 0.13345,-1.17951 0.13476,-2.14456 0.003,-2.14456 -0.59111,0 -1.60707,3.16011 -1.64814,5.12652 l -0.0443,2.12132 -0.36205,-1.36777 c -0.3738,-1.41212 0.18478,-14.38135 0.65194,-15.13724 0.14468,-0.23409 0.98987,-0.28359 2.30395,-0.13492 1.63098,0.18453 2.07544,0.13165 2.07544,-0.24693 0,-0.76598 -1.83276,-2.29764 -3.15145,-2.63369 -1.8525,-0.47209 -2.22223,-1.90176 -2.41848,-9.35176 -0.16889,-6.41152 0.13422,-10.07514 1.21846,-14.72721 0.50137,-2.15119 0.52257,-2.63704 0.12577,-2.88228 -0.36567,-0.22599 -0.58559,-2.7619 -0.94071,-10.8477 -0.25491,-5.80401 -0.56765,-10.91072 -0.69497,-11.34824 -0.18838,-0.64732 -0.0921,-0.7955 0.51684,-0.7955 0.42949,0 0.74834,-0.22596 0.74834,-0.53033 0,-0.29463 -0.31427,-0.53033 -0.7071,-0.53033 -0.38891,0 -0.70711,0.22539 -0.70711,0.50087 0,0.27548 -0.16935,0.55731 -0.37633,0.62631 -0.59557,0.19852 -1.29165,6.89582 -1.53398,14.75907 -0.20714,6.72147 -0.31371,7.81698 -0.72083,7.40986 -0.38745,-0.38745 -0.89985,-5.05509 -0.90786,-8.27009 -0.01,-3.94011 -0.5182,-6.76332 -1.97362,-10.96015 -0.79771,-2.30027 -0.98528,-3.46684 -1.00449,-6.24725 -0.0205,-2.96548 0.0765,-3.55151 0.73164,-4.41942 0.61383,-0.81322 1.00775,-0.99187 2.10362,-0.954 1.92767,0.0666 2.97474,1.36384 2.97474,3.68543 0,1.29946 0.13291,1.74805 0.51789,1.74805 0.85593,0 1.35088,-1.39302 1.1369,-3.19974 -0.25907,-2.18747 0.34294,-3.14157 1.61619,-2.56144 1.23688,0.56356 1.3713,2.33435 1.31704,17.35041 -0.0472,13.07017 -0.05,13.03672 1.43594,17.57893 0.0636,0.19445 -0.23994,1.51234 -0.67455,2.92865 -1.64414,5.35788 -1.58606,11.037 0.1525,14.91102 1.52311,3.39395 5.70383,6.83224 9.23574,7.5956 0.74424,0.16086 2.80276,-0.12397 6.07324,-0.84032 5.91185,-1.29491 8.78183,-1.36657 12.62171,-0.31517 3.98355,1.09074 8.25441,1.09034 10.48087,-9.7e-4 4.45729,-2.18478 6.62366,-7.65177 6.18244,-15.60185 -0.49392,-8.89963 -3.74792,-15.18938 -9.29397,-17.9646 -2.57747,-1.28976 -4.61409,-1.74224 -9.14365,-2.03147 -3.64543,-0.23277 -4.49744,-0.48622 -5.63813,-1.67715 -0.57852,-0.60401 -1.00087,-0.67811 -3.0052,-0.52729 -3.05537,0.22992 -5.56975,1.39191 -8.87282,4.10046 -1.45841,1.19591 -2.82971,2.17457 -3.04733,2.17481 -0.95219,0.001 -1.11056,-5.5696 -0.26437,-9.29894 0.46554,-2.05171 0.81697,-2.77113 1.8141,-3.71367 1.19658,-1.13107 1.22937,-1.23146 1.01051,-3.09359 l -0.2262,-1.92459 h 1.26773 c 1.39232,0 3.33465,-1.55561 3.33465,-2.67072 0,-0.61315 -0.87454,-0.59999 -3.0936,0.0465 -0.69429,0.20229 -0.79505,0.10284 -0.79204,-0.78173 0.0112,-3.28947 4.58517,-9.14104 8.98114,-11.48978 4.26859,-2.28068 8.85361,-1.72395 12.38536,1.50387 2.49399,2.27936 3.98864,5.84111 2.15607,5.13789 -0.50174,-0.19254 -0.76726,-0.68535 -2.17247,-4.03205 -0.70116,-1.66991 -1.46222,-1.47587 -1.75047,0.44629 -0.13158,0.87743 -0.40411,1.69723 -0.60563,1.82178 -0.56277,0.34781 -1.31978,-0.94119 -1.31978,-2.24726 0,-0.64342 -0.12328,-1.16986 -0.27395,-1.16986 -0.15067,0 -0.94767,0.71595 -1.77112,1.59099 -1.65469,1.75837 -1.89846,1.82761 -3.73403,1.06066 -1.27213,-0.53153 -4.63342,-0.71829 -5.68247,-0.31573 -0.7834,0.30062 -0.69623,1.63722 0.17937,2.75036 l 0.73862,0.939 -2.59477,1.2499 -2.59478,1.24989 1.76777,-0.21216 c 0.97227,-0.11668 3.00868,-0.35822 4.52536,-0.53674 4.43649,-0.52221 13.3189,-0.82643 15.93846,-0.5459 4.10587,0.4397 2.17012,0.96552 -4.79206,1.30169 -3.56365,0.17207 -7.51352,0.48153 -8.77747,0.68769 -2.30642,0.37618 -5.57495,1.58671 -5.22612,1.93554 0.10255,0.10255 1.20106,0.0332 2.44112,-0.15401 1.24007,-0.18726 5.59575,-0.43752 9.67929,-0.55614 4.08354,-0.11862 8.41978,-0.30851 9.63608,-0.42199 l 2.21146,-0.20631 0.84313,1.89753 c 0.92313,2.07758 0.90727,2.49131 -0.0619,1.61422 -1.04228,-0.94325 -3.13378,-1.66123 -4.83923,-1.66123 -1.83802,0 -2.09008,0.46791 -0.54265,1.00735 4.89366,1.70594 10.1541,12.41021 8.88173,18.0731 -0.43952,1.95617 0.32816,4.15602 1.55804,4.4647 0.92964,0.23332 0.89868,-0.0553 1.608,14.98935 0.21538,4.56812 0.45896,8.41467 0.54128,8.54787 0.0823,0.13321 0.71896,0.43008 1.41475,0.65971 1.76817,0.58354 2.032,0.17862 2.26021,-3.46889 l 0.19296,-3.08422 0.49043,2.56188 c 0.39061,2.04043 0.40446,2.84885 0.068,3.97171 -0.62846,2.09762 -1.46287,2.3821 -3.73143,1.2722 -1.02467,-0.50132 -1.9665,-0.9115 -2.09296,-0.9115 -0.49803,0 -0.19137,1.52849 0.47718,2.3784 0.96279,1.224 0.90302,1.42336 -0.54678,1.82367 -1.8146,0.50103 -4.18148,1.97337 -5.28985,3.29059 -1.14383,1.35937 -0.71059,1.66295 0.93845,0.65758 0.65223,-0.39763 1.58361,-0.72123 2.06975,-0.71909 0.92713,0.004 4.45651,1.03226 5.21491,1.51921 0.86183,0.55336 0.45623,1.63836 -0.94255,2.52137 -0.76147,0.48069 -1.4698,1.01202 -1.57407,1.18073 -0.10427,0.16871 0.0396,1.72223 0.31962,3.45227 0.57828,3.57231 1.09448,13.57122 1.54772,29.97975 0.29159,10.55658 0.53547,12.72998 1.29124,11.50712 0.15391,-0.24903 0.40368,-4.67789 0.55505,-9.84191 0.41532,-14.16914 1.33462,-19.07021 3.47217,-18.51123 0.59312,0.15511 0.64708,0.5716 0.602,4.64623 -0.0408,3.68962 0.0612,4.67973 0.58088,5.63646 0.34672,0.63834 0.78273,1.06647 0.9689,0.95141 0.18617,-0.11506 0.3385,-1.5067 0.3385,-3.09252 0,-2.58249 0.0562,-2.82714 0.53853,-2.34479 0.70935,0.70934 1.13116,4.59043 1.57182,14.46223 0.4138,9.27011 0.46042,15.34202 0.13046,16.99183 l -0.23406,1.17031 -0.74091,-1.56374 c -0.90708,-1.91445 -1.97295,-2.31601 -1.97295,-0.74329 0,0.74137 0.47469,1.61382 1.58716,2.91711 0.87293,1.02267 1.51533,1.93122 1.42755,2.019 -0.25809,0.25809 -5.17883,-2.21907 -6.84246,-3.44458 -1.54896,-1.14104 -2.86727,-3.37507 -2.882,-4.88389 -0.004,-0.43752 -0.16686,-0.79549 -0.36132,-0.79549 -0.19445,0 -0.35355,0.5331 -0.35355,1.18468 0,2.40144 -0.62739,3.36188 -2.95664,4.52616 -1.19343,0.59655 -2.67634,1.46484 -3.29534,1.92954 -0.619,0.46469 -1.19118,0.8449 -1.2715,0.8449 -0.0803,0 0.13879,-0.83527 0.48692,-1.85616 l 0.63295,-1.85615 1.6992,-0.0269 c 0.93456,-0.0148 1.89808,-0.0546 2.14115,-0.0884 0.76732,-0.10672 0.48862,-2.43812 -0.6419,-5.36963 -1.23315,-3.19767 -1.97361,-4.06002 -1.63612,-1.90544 0.11889,0.75899 0.32318,2.49366 0.45398,3.85485 l 0.23782,2.47487 -1.09907,-1.03059 c -1.90698,-1.78817 -2.31316,-4.69941 -0.94664,-6.78498 1.04576,-1.59603 3.76109,-0.8321 4.53129,1.27483 0.10663,0.29168 0.20642,-0.0416 0.22177,-0.7407 0.0341,-1.55181 -0.61269,-2.1726 -2.90973,-2.79285 -3.17758,-0.85802 -6.45457,-5.16537 -7.24709,-9.52577 -0.57033,-3.13785 0.52318,-5.32545 2.66201,-5.32545 1.15413,0 0.99432,-0.5809 -0.22701,-0.82517 -0.64146,-0.12829 -1.14337,-0.51309 -1.32583,-1.01646 -0.16148,-0.44552 -0.24106,-4.9466 -0.17684,-10.00241 0.11692,-9.20634 -0.0806,-13.07802 -0.64934,-12.72654 -0.89791,0.55495 -1.55295,7.35741 -2.29792,23.86347 -0.64965,14.39404 -0.9879,18.03352 -1.80446,19.41586 -0.56703,0.9599 -0.56774,1.15083 -0.0117,3.13271 0.3257,1.16077 0.67044,3.92054 0.76611,6.13281 0.16989,3.92893 0.16052,3.99358 -0.40361,2.78487 -0.37853,-0.81105 -0.61059,-2.41147 -0.67348,-4.64466 -0.11614,-4.1245 -0.31558,-4.83588 -1.43453,-5.11672 -1.22234,-0.30679 -1.93335,0.39579 -1.68041,1.66049 0.34873,1.7436 -0.80996,1.26902 -1.8336,-0.75103 -0.91468,-1.80505 -1.58435,-2.03315 -1.58435,-0.53967 0,0.45085 -0.24249,1.02098 -0.53888,1.26695 -0.60693,0.50371 -0.58091,0.52187 -1.14972,-0.80258 -0.65458,-1.52416 -2.51142,-1.21226 -4.81286,0.80843 l -1.27672,1.12097 v -0.92051 c 0,-1.30578 -0.90539,-1.17889 -2.2776,0.31921 -1.25708,1.3724 -1.61148,1.30012 -1.61148,-0.3287 0,-1.73311 0.64025,-3.5092 1.49834,-4.15645 l 0.79064,-0.59639 -0.87933,-0.93548 -0.87932,-0.9355 -0.19798,-12.43478 c -0.10889,-6.83913 -0.32479,-12.71321 -0.47977,-13.0535 -0.37977,-0.83385 -1.15493,-0.78125 -1.63233,0.11077 -0.25049,0.46805 -0.50477,5.94813 -0.70951,15.29118 -0.30917,14.10869 -0.69291,19.82983 -1.37588,20.5128 -0.50788,0.50788 -1.7081,-4.11888 -1.95649,-7.54209 -0.23795,-3.27954 -0.77029,-4.36222 -1.63337,-3.322 -0.37812,0.45574 -0.4935,1.73091 -0.47345,5.23266 0.0271,4.74152 0.51182,7.28173 1.38939,7.28173 1.02433,0 3.78772,4.28831 3.05515,4.74106 -0.14284,0.0883 -0.8899,-0.12165 -1.66015,-0.4665 z m 47.15444,-10.04911 c 0.0661,-0.34102 -0.11131,-0.58941 -0.42107,-0.58941 -0.65681,0 -1.05322,0.57634 -0.74237,1.07932 0.31981,0.51745 1.02573,0.2202 1.16344,-0.48991 z m -24.24433,-5.00883 c -0.13149,-0.52599 -2.30271,-0.42808 -2.48273,0.11195 -0.11435,0.34308 0.20336,0.43607 1.20798,0.35356 0.74973,-0.0616 1.32337,-0.27106 1.27475,-0.46551 z m 14.16081,-16.96572 c 0.0384,-0.19179 -0.20871,-0.40233 -0.549,-0.46787 -0.387,-0.0745 -0.61872,0.0989 -0.61872,0.46303 0,0.6151 1.04486,0.61943 1.16772,0.005 z m -13.18853,-2.84437 c 0,-0.29778 -0.24935,-0.63711 -0.5541,-0.75405 -0.66494,-0.25516 -1.39005,0.3705 -1.05593,0.91112 0.36016,0.58276 1.61003,0.46083 1.61003,-0.15707 z m -25.8094,-2.45573 c 0,-1.94836 -0.32461,-2.91989 -0.7509,-2.2474 -0.34953,0.5514 -0.41446,3.6078 -0.0837,3.93859 0.48616,0.48616 0.83457,-0.21985 0.83457,-1.69119 z m -0.0552,-5.33288 c -0.1922,-0.99145 -1.00543,-1.04552 -1.00543,-0.0668 0,0.46993 0.10872,0.96313 0.24159,1.09601 0.37541,0.3754 0.89929,-0.33045 0.76384,-1.02916 z m -3.95259,-15.55858 c 0.29467,-0.76791 -0.45341,-1.49006 -0.98888,-0.9546 -0.45256,0.45257 -0.17219,1.50869 0.4005,1.50869 0.20666,0 0.47143,-0.24934 0.58838,-0.55409 z m 37.15361,-3.77693 c -0.22275,-0.66899 -1.32599,-0.7641 -1.32599,-0.11432 0,0.32797 0.30229,0.55626 0.73657,0.55626 0.43204,0 0.67573,-0.18273 0.58942,-0.44194 z m -40.08428,-8.67894 c 0.27954,-0.4523 -0.36891,-1.24635 -0.80016,-0.97982 -0.5676,0.35079 -0.48357,1.26186 0.11638,1.26186 0.28021,0 0.58791,-0.12692 0.68378,-0.28204 z m 42.64738,-30.1353 c 0,-0.94257 -1.47379,-3.82726 -2.69966,-5.28412 -0.93318,-1.10902 -1.04772,-1.14623 -2.93639,-0.95376 -2.43787,0.24844 -4.617,0.8698 -4.617,1.3165 0,0.18532 0.26556,0.33694 0.59013,0.33694 0.75237,0 3.62897,1.62172 6.52365,3.67779 2.51053,1.78321 3.13927,1.9648 3.13927,0.90665 z m -34.64823,-2.30721 c 0,-0.51972 -0.7548,-0.69748 -1.17545,-0.27683 -0.31973,0.31973 0.47264,1.22065 0.86195,0.98004 0.17243,-0.10656 0.3135,-0.42301 0.3135,-0.70321 z m 22.89258,-3.77983 c -0.081,-0.24307 -0.51855,-0.44195 -0.97227,-0.44195 -0.45373,0 -0.89125,0.19888 -0.97227,0.44195 -0.0972,0.29152 0.23373,0.44194 0.97227,0.44194 0.73853,0 1.06944,-0.15042 0.97227,-0.44194 z m 6.0988,-3.90573 c 0,-0.42314 -0.7413,-1.19231 -3.8007,-3.94367 -1.9495,-1.7532 -1.26892,-0.34795 1.01281,2.09122 2.15368,2.30229 2.78789,2.7237 2.78789,1.85245 z"
         id="path12" />
      <path
         style="fill:#eae4c7;fill-opacity:1;stroke:#1a1a1a;stroke-width:0;stroke-linecap:square;stroke-miterlimit:0;paint-order:markers fill stroke"
         d="m 828.59588,314.48574 c -0.81293,-5.72014 -2.04944,-19.07977 -2.19247,-23.68808 -0.0935,-3.01404 -0.34072,-6.88881 -0.54928,-8.61061 -0.4478,-3.69677 -0.15357,-6.74558 0.73693,-7.63608 0.43649,-0.43649 1.46661,-0.71039 3.32752,-0.88478 4.44948,-0.41695 4.29064,-0.0674 4.29064,-9.44182 0,-4.34399 -0.14104,-8.69366 -0.31343,-9.66593 -0.31323,-1.76664 -0.31297,-1.76736 0.41369,-1.11982 1.20047,1.06975 1.66563,3.81336 1.65844,9.78188 -0.008,6.61938 -0.49742,9.22294 -2.02013,10.74565 -0.58728,0.58728 -0.92782,1.11693 -0.75673,1.177 0.17108,0.0601 0.7088,0.30973 1.19494,0.55483 1.99795,1.00731 2.25799,7.07056 0.43529,10.14994 -0.93957,1.58736 -0.94232,1.61375 -1.21045,11.59528 -0.27998,10.42296 -0.70625,13.43253 -1.18405,8.3597 -0.31429,-3.33685 0.0276,-15.01693 0.5261,-17.97091 0.1932,-1.14498 0.61935,-2.378 0.94699,-2.74004 0.56346,-0.62262 0.55447,-0.65825 -0.16619,-0.65825 -2.58656,0 -3.43935,4.48275 -4.30458,22.62742 -0.2179,4.56968 -0.44365,8.4676 -0.50165,8.66206 -0.058,0.19445 -0.20722,-0.3624 -0.33158,-1.23744 z m 6.66098,-36.39492 c 0.20952,-0.33901 -1.12343,-1.78885 -1.64463,-1.78885 -0.48077,0 -0.32088,0.79065 0.29824,1.47477 0.65153,0.71993 1.0396,0.81046 1.34639,0.31408 z m -2.99218,-3.17923 c 0,-0.4774 -1.29626,-0.81602 -2.12132,-0.55416 -1.19136,0.37812 -0.78675,0.88388 0.70711,0.88388 0.77781,0 1.41421,-0.14837 1.41421,-0.32972 z"
         id="path13" />
      <path
         style="fill:#eae4c7;fill-opacity:1;stroke:#1a1a1a;stroke-width:0;stroke-linecap:square;stroke-miterlimit:0;paint-order:markers fill stroke"
         d="m 843.94962,339.96051 c -1.34599,-1.44088 -1.78545,-4.00772 -1.78545,-10.42861 0,-5.79234 0.4273,-10.26888 1.25902,-13.19 0.48526,-1.70427 0.61449,-1.85616 1.57929,-1.85616 1.40691,0 1.33007,-0.58092 -0.15916,-1.20316 -0.66546,-0.27805 -1.4428,-0.87681 -1.72741,-1.33057 -0.70713,-1.12739 -1.06424,-10.13387 -0.62562,-15.77838 0.38119,-4.90538 1.01517,-6.68057 2.66571,-7.46414 1.52819,-0.72549 4.15783,-0.0926 11.15031,2.68381 7.36281,2.9234 10.77945,3.7857 17.85445,4.50617 6.70815,0.68311 11.65126,1.92148 10.50286,2.63122 -0.20681,0.12782 -0.52883,2.13924 -0.71559,4.46981 -0.3631,4.53099 -0.81793,6.03676 -1.93012,6.38975 -1.17069,0.37157 -1.36767,-0.49618 -1.13569,-5.00298 0.23127,-4.49296 0.0384,-6.16499 -0.71106,-6.16499 -0.70419,0 -0.9395,1.48297 -1.223,7.70775 -0.14436,3.16976 -0.40555,5.88904 -0.5804,6.04284 -0.58041,0.51053 -6.82327,1.14247 -7.53315,0.76255 -1.01539,-0.54342 -1.13718,-1.15074 -1.63861,-8.17161 -0.47798,-6.69251 -0.7331,-8.46285 -1.21954,-8.46285 -0.15071,0 -0.36573,0.43753 -0.47784,0.97228 -0.2396,1.14286 -0.92566,13.92999 -0.82886,15.44863 0.0821,1.2888 -0.19688,1.36263 -8.019,2.12182 -3.08578,0.2995 -6.22692,0.71052 -6.98032,0.91339 -2.31958,0.6246 -2.52158,1.39686 -2.81784,10.7727 -0.29533,9.34619 -0.85312,12.32219 -2.6455,14.11456 -0.78313,0.78314 -1.14676,0.70521 -2.25748,-0.48383 z m 28.26659,-29.18708 c 0,-0.29168 -0.23865,-0.53033 -0.53033,-0.53033 -0.29168,0 -0.53033,0.23865 -0.53033,0.53033 0,0.29168 0.23865,0.53033 0.53033,0.53033 0.29168,0 0.53033,-0.23865 0.53033,-0.53033 z m 6.01041,-12.04168 c 0,-0.51972 -0.7548,-0.69748 -1.17545,-0.27683 -0.31972,0.31973 0.47264,1.22065 0.86196,0.98004 0.17242,-0.10656 0.31349,-0.42301 0.31349,-0.70321 z m -3.0052,-0.88764 c 0,-0.27281 -0.27843,-0.54965 -0.61872,-0.61518 -0.60944,-0.11737 -0.86138,0.63284 -0.37565,1.11857 0.37059,0.3706 0.99437,0.0548 0.99437,-0.50339 z"
         id="path14" />
      <path
         style="fill:#eae4c7;fill-opacity:1;stroke:#1a1a1a;stroke-width:0;stroke-linecap:square;stroke-miterlimit:0;paint-order:markers fill stroke"
         d="m 735.60147,313.87291 c -0.15003,-0.14908 -0.48928,-0.78813 -0.75389,-1.4201 -0.52989,-1.26556 -0.91473,-1.41773 -1.57462,-0.62261 -0.75657,0.9116 -1.06372,0.22123 -1.0693,-2.40346 -0.007,-3.25681 -0.53086,-4.23282 -0.86725,-1.61558 -0.13442,1.04588 -0.40288,2.52026 -0.59657,3.27639 -0.29977,1.17027 -0.42461,1.30175 -0.8392,0.88388 -0.62373,-0.62865 -1.4411,-3.77909 -1.76487,-6.80244 -0.40407,-3.77319 -0.87602,-3.10242 -0.88128,1.25254 -0.005,4.3907 -0.19637,5.58934 -0.89099,5.58934 -0.63686,0 -1.22437,-3.00365 -1.23091,-6.29298 -0.008,-4.09648 -0.51105,-4.12374 -0.98859,-0.0536 -0.22972,1.95792 -0.60232,3.90489 -0.82802,4.3266 -0.40079,0.74889 -0.41671,0.75046 -0.68353,0.0675 -0.15024,-0.38457 -0.28436,-1.35206 -0.29803,-2.14996 -0.0442,-2.5827 -0.46991,-5.78229 -0.74652,-5.61133 -0.14818,0.0916 -0.39377,1.16116 -0.54576,2.37685 -0.23857,1.9082 -0.3101,2.06535 -0.52328,1.14968 -0.13582,-0.58336 -0.26577,-2.50459 -0.28878,-4.2694 -0.0612,-4.69732 0.27491,-4.92325 8.04753,-5.40893 3.10547,-0.19405 4.43163,-0.41887 4.89151,-0.82924 0.36792,-0.32832 1.66263,-0.66918 3.10581,-0.81769 2.90296,-0.29871 5.49844,-1.19798 8.44936,-2.92746 4.17797,-2.44865 10.33426,-3.84932 12.76385,-2.90402 1.8108,0.70454 0.23302,1.19154 -2.90706,0.89729 -3.45657,-0.32391 -3.16596,0.2709 0.52748,1.07962 1.50322,0.32914 2.932,0.75653 3.17507,0.94975 0.55649,0.44236 0.58201,5.07951 0.0638,11.59615 -0.35031,4.40527 -0.44717,4.82777 -1.31601,5.74049 -1.50403,1.57999 -4.09089,2.14334 -9.97312,2.17188 -3.21316,0.0156 -5.37804,-0.12386 -5.80042,-0.37362 -0.6002,-0.35492 -0.68831,-0.93479 -0.80577,-5.3033 -0.14284,-5.31268 -0.44055,-7.58396 -0.99521,-7.59266 -0.19445,-0.003 -0.4514,0.36182 -0.57099,0.81082 -0.16427,0.61675 -0.28372,0.36057 -0.48854,-1.04773 -0.26309,-1.80898 -0.67774,-2.52659 -1.1737,-2.03123 -0.1329,0.13275 -0.32119,4.19798 -0.41842,9.03386 -0.16679,8.29585 -0.39779,10.07559 -1.20379,9.27465 z m -1.42882,-5.78194 c 0.36435,-0.58952 -0.45509,-1.26554 -0.94283,-0.77781 -0.40797,0.40797 -0.15263,1.16217 0.39346,1.16217 0.1715,0 0.41872,-0.17296 0.54937,-0.38436 z m -0.0572,-2.29538 c 0.25821,-0.67289 -0.0983,-2.27001 -0.50669,-2.27001 -0.44532,0 -0.76797,1.3269 -0.51583,2.12133 0.26941,0.84882 0.72825,0.91554 1.02252,0.14868 z m -0.96307,-7.07039 c 0.11771,-0.30676 -0.03,-0.8018 -0.32832,-1.10009 -0.48741,-0.48741 -0.56623,-0.46705 -0.77827,0.20103 -0.39811,1.25433 0.64504,2.10184 1.10659,0.89906 z m -5.27426,-0.7679 c 0.19331,-0.58057 -0.91445,-0.99501 -1.38959,-0.51987 -0.20334,0.20333 -0.25736,0.55146 -0.12005,0.77362 0.31238,0.50545 1.31285,0.33729 1.50964,-0.25375 z m 29.37075,-5.156 c 0.0661,-0.34103 -0.1113,-0.58942 -0.42107,-0.58942 -0.65681,0 -1.05322,0.57634 -0.74236,1.07932 0.3198,0.51745 1.02572,0.2202 1.16343,-0.4899 z"
         id="path15" />
      <path
         style="fill:#eae4c7;fill-opacity:1;stroke:#1a1a1a;stroke-width:0;stroke-linecap:square;stroke-miterlimit:0;paint-order:markers fill stroke"
         d="m 757.35282,339.71462 c -0.74005,-1.62424 -1.20058,-9.11862 -0.97457,-15.85972 0.30348,-9.05189 1.0493,-11.36164 3.21128,-9.94506 0.51446,0.33709 1.09294,1.02733 1.28553,1.53387 0.66648,1.75297 1.08195,11.88662 0.69681,16.99569 -0.32586,4.32261 -0.46701,4.99329 -1.35315,6.42928 -1.19192,1.93152 -2.23146,2.23837 -2.8659,0.84594 z"
         id="path16" />
      <path
         style="fill:#eae4c7;fill-opacity:1;stroke:#1a1a1a;stroke-width:0;stroke-linecap:square;stroke-miterlimit:0;paint-order:markers fill stroke"
         d="m 741.31307,313.89756 c -1.9487,-0.23754 -1.61542,-0.73517 0.70711,-1.05581 2.65639,-0.36673 11.98549,-0.3553 13.34664,0.0163 l 1.06066,0.2896 -0.88389,0.3559 c -0.92139,0.371 -11.9207,0.6755 -14.23052,0.39396 z"
         id="path17" />
      <path
         style="fill:#eae4c7;fill-opacity:1;stroke:#1a1a1a;stroke-width:0;stroke-linecap:square;stroke-miterlimit:0;paint-order:markers fill stroke"
         d="m 863.61795,405.17218 c 0.55732,-2.3147 0.39516,-2.81854 -0.94768,-2.94445 -1.44309,-0.13531 -2.47487,-0.93889 -2.47487,-1.92749 0,-0.38307 -0.42142,-1.63553 -0.93648,-2.78325 l -0.93648,-2.08675 0.7597,-0.80867 c 0.90375,-0.962 0.94891,-1.40336 0.20664,-2.01939 -0.36379,-0.30192 -0.47852,-0.75596 -0.33526,-1.32675 0.22655,-0.90264 -0.002,-0.9363 -1.67687,-0.24693 -0.48591,0.2 -0.75402,-0.0407 -1.23505,-1.10893 -0.91997,-2.04296 -0.89732,-13.18756 0.033,-16.21364 0.78969,-2.56877 1.07156,-2.93639 2.8834,-3.76057 1.7304,-0.78715 3.37912,-0.82467 5.71782,-0.13015 1.9704,0.58514 4.76515,2.81458 5.63366,4.49409 0.51133,0.98881 1.17145,7.04884 1.19129,10.93634 0.0109,2.13136 -0.88125,3.34108 -2.21674,3.00589 -0.71892,-0.18044 -1.07253,-0.63421 -1.55685,-1.99784 -0.34465,-0.97041 -0.75652,-1.76438 -0.91526,-1.76438 -0.41238,0 -1.31318,2.28877 -1.31318,3.33657 0,0.61027 0.65754,1.53991 2.12132,2.99915 2.40834,2.40087 2.91141,3.6733 0.61872,1.56493 -1.72585,-1.58709 -3.50998,-2.43101 -4.40961,-2.08579 -0.52153,0.20013 -0.37244,0.4455 0.92606,1.52411 1.9241,1.59826 3.21021,4.23009 3.21493,6.57885 0.003,1.56063 -0.12911,1.84139 -1.42546,3.02637 -0.95153,0.86978 -1.3566,1.49459 -1.21247,1.87018 0.1352,0.35232 -0.19383,1.00791 -0.87659,1.7466 l -1.09303,1.18256 z m 1.52719,-6.14406 c 0,-0.17073 -0.35797,-0.54863 -0.79549,-0.83976 -0.69815,-0.46455 -0.78583,-0.79433 -0.71654,-2.69477 0.0702,-1.92493 0.004,-2.16544 -0.59785,-2.16544 -0.86259,0 -0.92042,0.10695 -1.45358,2.68828 -0.60807,2.94397 -0.40493,3.32212 1.7846,3.32212 0.97838,0 1.77886,-0.13969 1.77886,-0.31043 z m 5.88428,-12.95232 c 0.11288,-0.29416 0.009,-0.77146 -0.23116,-1.06066 -0.61628,-0.74258 -1.76403,-0.67064 -1.76403,0.11057 0,1.2726 1.5823,2.02607 1.99519,0.95009 z m -2.7023,-3.15661 c 0,-0.69125 -0.68531,-1.06796 -1.13137,-0.62191 -0.19946,0.19946 -0.25575,0.53561 -0.1251,0.74701 0.34656,0.56074 1.25647,0.47015 1.25647,-0.1251 z m 1.87483,-1.07669 c 0.0384,-0.19179 -0.20871,-0.40233 -0.549,-0.46786 -0.387,-0.0745 -0.61872,0.0989 -0.61872,0.46302 0,0.61511 1.04486,0.61944 1.16772,0.005 z m -1.25434,-2.03777 c -0.21665,-0.65787 -1.41228,-0.71888 -2.21404,-0.11298 -0.66293,0.50098 -0.61405,0.5331 0.82752,0.54368 1.07122,0.008 1.48829,-0.1217 1.38652,-0.4307 z m -1.68115,-2.89595 c 0,-0.28021 -0.12692,-0.58791 -0.28204,-0.68378 -0.4523,-0.27954 -1.24635,0.36892 -0.97982,0.80016 0.35079,0.5676 1.26186,0.48357 1.26186,-0.11638 z m 2.65165,-1.55293 c 0,-1.09271 -0.68435,-0.97177 -0.82269,0.14539 -0.0807,0.65207 0.0258,0.88627 0.35355,0.77702 0.25803,-0.086 0.46914,-0.50109 0.46914,-0.92241 z m -2.71411,-2.65149 c 0.0661,-0.34102 -0.11131,-0.58942 -0.42108,-0.58942 -0.65681,0 -1.05322,0.57635 -0.74236,1.07933 0.3198,0.51744 1.02572,0.22019 1.16344,-0.48991 z"
         id="path18" />
      <path
         style="fill:#eae4c7;fill-opacity:1;stroke:#1a1a1a;stroke-width:0;stroke-linecap:square;stroke-miterlimit:0;paint-order:markers fill stroke"
         d="m 869.61014,368.3509 c -0.30061,-1.27418 -1.40575,-2.43075 -1.98223,-2.07447 -0.21554,0.13321 -0.28638,0.56831 -0.15825,0.972 0.18596,0.58591 0.11297,0.68518 -0.36809,0.50058 -0.33002,-0.12665 -0.66658,-0.23026 -0.74791,-0.23026 -0.0813,0 -0.14786,-0.32319 -0.14786,-0.7182 0,-0.93927 -0.8443,-1.23461 -2.27455,-0.79565 -0.85607,0.26273 -1.38681,0.23024 -2.06784,-0.12658 -2.05988,-1.07929 -4.53108,-8.68071 -3.9916,-12.27821 0.40445,-2.69706 2.71796,-4.78473 3.82932,-3.45551 0.26688,0.3192 0.93024,1.74367 1.47412,3.1655 0.54389,1.42183 1.30313,2.77417 1.6872,3.0052 0.38407,0.23104 1.21874,1.45421 1.85482,2.71817 1.4228,2.82722 3.48145,8.95585 3.29357,9.80496 -0.0933,0.4215 -0.22367,0.26283 -0.4007,-0.48753 z"
         id="path19" />
      <path
         style="fill:#eae4c7;fill-opacity:1;stroke:#1a1a1a;stroke-width:0;stroke-linecap:square;stroke-miterlimit:0;paint-order:markers fill stroke"
         d="m 852.07611,350.92498 c -0.88393,-1.65164 0.006,-2.97531 0.96617,-1.43745 0.61139,0.97899 1.14271,0.88415 1.14271,-0.20398 0,-0.54134 -0.43137,-1.34245 -1.06296,-1.97404 l -1.06296,-1.06295 -1.08549,0.91337 c -2.00472,1.68687 -4.56677,0.98517 -4.56677,-1.25075 0,-1.46047 0.75909,-2.78443 2.49626,-4.35386 1.26869,-1.14619 1.65316,-1.31046 2.6779,-1.14416 4.52726,0.73467 6.07363,7.02096 2.58522,10.50938 -0.87461,0.8746 -1.62353,0.8762 -2.09008,0.004 z m -3.90153,-4.08911 c 0,-0.29168 -0.23865,-0.53033 -0.53033,-0.53033 -0.29168,0 -0.53033,0.23865 -0.53033,0.53033 0,0.29169 0.23865,0.53034 0.53033,0.53034 0.29168,0 0.53033,-0.23865 0.53033,-0.53034 z"
         id="path20" />
      <path
         style="fill:#eae4c7;fill-opacity:1;stroke:#1a1a1a;stroke-width:0;stroke-linecap:square;stroke-miterlimit:0;paint-order:markers fill stroke"
         d="m 899.08683,381.92605 c -1.09501,-1.89174 -1.10879,-2.06972 -0.31362,-4.04815 0.40053,-0.99652 0.37655,-1.21771 -0.20124,-1.85616 -1.20949,-1.33647 -2.31413,-0.7742 -2.31413,1.17793 0,1.04014 -0.64164,1.63279 -1.76776,1.63279 -2.26347,0 -2.37426,-2.05267 -0.25211,-4.67083 2.18762,-2.69892 2.72698,-3.53885 2.72698,-4.24668 0,-0.8706 -1.29171,-0.81085 -1.76947,0.0819 -0.28688,0.53602 -0.59781,0.65566 -1.26733,0.48762 -0.81411,-0.20433 -0.86804,-0.14634 -0.65464,0.70392 0.2116,0.84309 0.13846,0.92659 -0.81163,0.92659 -1.18837,0 -2.04805,-0.79146 -2.40255,-2.2119 -0.55163,-2.21025 -5.45677,-5.55545 -12.13973,-8.27903 -5.65406,-2.30425 -7.88038,-4.12258 -8.4026,-6.86271 -0.12661,-0.66435 -0.45022,-1.64543 -0.71912,-2.18018 -0.2689,-0.53475 -0.34562,-0.97227 -0.17048,-0.97227 0.17514,0 2.8262,1.19667 5.89125,2.65927 3.06505,1.46261 6.72115,3.1191 8.12467,3.68109 3.46932,1.38919 14.47296,6.86744 14.06626,7.00301 -0.17985,0.06 -2.84285,-1.09154 -5.91779,-2.55886 -5.77872,-2.75753 -15.7757,-6.89543 -16.65906,-6.89543 -0.82119,0 -0.57679,0.56642 0.64674,1.49887 1.86382,1.42041 4.56332,2.65273 9.00867,4.11245 9.46536,3.10815 16.17017,7.75721 17.47678,12.11827 0.36154,1.20672 0.30911,1.71635 -0.39866,3.87525 -0.64521,1.96806 -0.76929,2.92252 -0.59578,4.58262 0.12054,1.15325 0.14527,2.09681 0.055,2.09681 -0.0903,0 -0.64769,-0.83527 -1.23861,-1.85615 z m -26.87062,-26.84222 c 0,-0.587 -1.07991,-1.70722 -1.64579,-1.70722 -0.61355,0 -0.59905,0.18992 0.0955,1.24988 0.59079,0.90165 1.55033,1.18471 1.55033,0.45734 z"
         id="path21" />
      <path
         style="fill:#eae4c7;fill-opacity:1;stroke:#1a1a1a;stroke-width:0;stroke-linecap:square;stroke-miterlimit:0;paint-order:markers fill stroke"
         d="m 896.03484,418.25222 c -7.97807,-1.01024 -14.78994,-2.72355 -16.23833,-4.08424 -0.45474,-0.42721 -1.05464,-0.68932 -1.33311,-0.58246 -0.60518,0.23223 -2.89836,-1.25377 -3.40993,-2.20965 -0.19931,-0.37242 -0.36238,-1.47007 -0.36238,-2.43922 0,-3.10493 0.69861,-3.78027 1.60834,-1.55476 0.29807,0.72921 0.91901,1.60098 1.37984,1.93729 4.76011,3.47375 22.33402,5.09514 35.12593,3.24077 5.35396,-0.77613 7.55657,-1.59187 11.91369,-4.41222 6.22785,-4.03126 11.13693,-6.18916 11.13693,-4.8955 0,0.20798 0.35706,0.3273 0.79347,0.26517 0.86112,-0.12261 3.09562,-3.45792 3.09562,-4.62064 0,-0.58055 -0.27331,-0.63877 -2.56326,-0.54597 -2.35211,0.0953 -2.57257,0.16941 -2.67624,0.89937 -0.0727,0.51185 -0.35683,0.7955 -0.79685,0.7955 -0.37612,0 -2.66544,1.03414 -5.08736,2.2981 -2.42193,1.26395 -4.80474,2.29809 -5.29514,2.29809 -0.71539,0 -1.05021,0.33195 -1.69394,1.67938 -0.8636,1.80766 -1.84518,2.2447 -1.8563,0.82651 -0.01,-1.24157 -0.67996,-1.27371 -1.89021,-0.0906 -0.89734,0.87718 -1.52988,1.10521 -4.06331,1.46483 -1.70663,0.24225 -5.41646,0.37415 -8.60311,0.30586 -4.8346,-0.1036 -5.76215,-0.21653 -6.76659,-0.82384 -0.98414,-0.59503 -1.21232,-0.6256 -1.47671,-0.19781 -0.38974,0.63061 -3.81042,1.03421 -9.02655,1.06504 -4.0936,0.0242 -5.59949,0.24119 -5.27846,0.76063 0.46473,0.75195 -1.2486,0.20987 -2.94281,-0.93107 -3.37848,-2.2752 -3.8714,-4.37721 -1.32467,-5.64898 2.55801,-1.27741 15.20279,-1.12988 15.20279,0.17738 0,0.31818 -0.28487,0.50096 -0.71514,0.45886 -0.60888,-0.0596 -0.71514,0.13742 -0.71514,1.32582 0,1.59048 -0.10179,1.56733 3.19805,0.72718 l 2.47487,-0.63011 -0.10702,-1.75668 -0.10702,-1.75669 1.27184,0.14848 c 0.81899,0.0956 1.48653,-0.0432 1.87479,-0.38993 0.72951,-0.65144 4.19122,-1.12514 5.89139,-0.80618 0.67731,0.12706 1.71346,0.63658 2.30255,1.13227 0.8562,0.72044 1.07106,1.17865 1.07106,2.28403 0,0.76053 0.15642,1.38278 0.3476,1.38278 0.63661,0 2.12728,-3.46802 2.12728,-4.94909 0,-1.78164 -0.50714,-2.0266 -2.95407,-1.42686 -1.0004,0.24519 -2.9326,0.56412 -4.29378,0.70872 -1.36118,0.1446 -3.62733,0.47695 -5.03589,0.73855 -2.07363,0.38513 -3.41932,0.39654 -7.07106,0.0599 -7.04725,-0.64957 -11.71434,-2.21852 -14.15029,-4.75694 -1.49935,-1.56243 -1.85358,-2.89399 -1.50097,-5.64215 0.3598,-2.80419 0.74428,-3.7723 1.93994,-4.88471 2.16168,-2.01116 6.22098,-0.42949 12.7667,4.97443 4.9899,4.11949 7.5715,5.38669 7.5715,3.71654 0,-0.25283 -0.65601,-1.20495 -1.45778,-2.11582 -0.80178,-0.91087 -1.35872,-1.75519 -1.23764,-1.87627 0.12108,-0.12107 1.6149,0.44268 3.3196,1.2528 3.26812,1.55309 5.0019,1.8317 5.75461,0.92473 0.25318,-0.30506 0.86041,-0.50107 1.36912,-0.44194 0.8471,0.0985 0.91414,0.23591 0.91414,1.87403 v 1.76777 l 1.4818,0.1077 c 1.26182,0.0917 1.56985,-0.0267 2.07496,-0.79758 0.86427,-1.31904 0.1717,-2.78038 -1.76115,-3.71606 -0.81869,-0.39632 -1.68328,-0.72058 -1.92132,-0.72058 -0.85969,0 -3.16411,-1.407 -4.07245,-2.4865 -1.08191,-1.28578 -1.1196,-1.5144 -0.37278,-2.26122 1.51079,-1.51079 8.65619,0.0467 12.60186,2.74688 4.28648,2.93339 5.99585,6.99612 4.17985,9.93447 -1.14388,1.85083 -0.33482,1.53305 1.66345,-0.65337 1.9341,-2.11621 2.91957,-3.90544 2.91957,-5.30076 0,-1.17086 0.63233,-1.18485 3.38619,-0.0749 2.85385,1.15025 5.09909,1.51216 5.09909,0.82192 0,-0.65796 -4.24195,-2.90112 -6.75011,-3.56949 -2.32255,-0.61891 -5.72031,-2.15485 -9.61016,-4.34421 -1.59962,-0.90033 -4.60923,-2.57555 -6.68804,-3.72271 -5.57367,-3.07576 -6.85308,-4.9218 -5.38229,-7.766 0.49502,-0.95726 0.69766,-1.06221 1.72812,-0.89499 4.2957,0.6971 22.03513,10.62745 30.58978,17.12385 3.80713,2.89113 4.41079,3.63695 4.79736,5.9271 0.19747,1.16987 0.2882,1.29204 0.52515,0.70711 0.15754,-0.38891 0.29762,-1.45344 0.31128,-2.36562 0.027,-1.80236 0.52355,-2.52347 0.86371,-1.25433 0.47091,1.75696 0.22228,5.06049 -0.4853,6.44838 -0.38891,0.76282 -0.7077,1.87038 -0.70843,2.46124 -0.003,2.74782 -2.31471,4.54637 -10.90288,8.484 -3.16444,1.45088 -6.57963,3.10221 -7.58932,3.66962 -1.00969,0.56742 -2.04719,0.95417 -2.30555,0.85946 -0.25836,-0.0947 -0.98037,0.38526 -1.60447,1.06661 -0.81417,0.88886 -1.83005,1.46198 -3.59611,2.02878 -2.15067,0.69022 -3.37638,0.8044 -9.70924,0.9045 -4.79977,0.0759 -8.57706,-0.0538 -11.18316,-0.38377 z m 9.59217,-3.72448 c -2.7444,-0.34051 -14.22617,-0.34051 -16.97057,0 -1.26153,0.15653 2.17761,0.2632 8.48529,0.2632 6.30768,0 9.74681,-0.10667 8.48528,-0.2632 z m 18.56155,-3.6987 c 0,-0.29168 -0.23865,-0.53033 -0.53033,-0.53033 -0.29168,0 -0.53033,0.23865 -0.53033,0.53033 0,0.29168 0.23865,0.53033 0.53033,0.53033 0.29168,0 0.53033,-0.23865 0.53033,-0.53033 z m -23.53135,-5.20519 c 0.6851,-0.97812 0.69583,-1.33555 0.0401,-1.33555 -0.492,0 -1.61104,1.28255 -1.61104,1.84644 0,0.57922 1.04556,0.23919 1.57094,-0.51089 z m 4.43947,-0.24776 c 0,-0.83669 -1.64697,-2.85556 -2.32953,-2.85556 -0.82705,0 -0.56378,1.48458 0.45113,2.54392 1.10403,1.15236 1.8784,1.28083 1.8784,0.31164 z m -19.09189,-1.49027 c 0,-0.54251 -1.07913,-0.78113 -1.52341,-0.33685 -0.31792,0.31793 -0.29916,0.48695 0.0801,0.72134 0.55956,0.34583 1.44332,0.1104 1.44332,-0.38449 z m 45.25484,-5.0776 c 0,-0.29168 -0.22926,-0.53033 -0.50947,-0.53033 -0.59066,0 -0.98938,0.50462 -0.65943,0.83457 0.42255,0.42255 1.1689,0.2283 1.1689,-0.30424 z m -17.23553,-2.29189 c 1.02521,-0.80643 1.45526,-2.53692 1.01195,-4.07207 -0.27098,-0.93838 -0.33431,-0.97914 -0.54935,-0.35355 -0.13368,0.38891 -0.66697,1.58215 -1.18507,2.65165 -0.5181,1.0695 -0.99844,2.06387 -1.06741,2.20971 -0.25175,0.53232 0.92265,0.24642 1.78988,-0.43574 z m 19.19911,-0.39056 c 0.36434,-0.58952 -0.4551,-1.26555 -0.94283,-0.77782 -0.40797,0.40797 -0.15263,1.16218 0.39346,1.16218 0.1715,0 0.41872,-0.17297 0.54937,-0.38436 z m 2.98617,-1.72891 c 0,-0.90509 -0.36527,-1.77582 -0.74494,-1.77582 -0.3583,0 -0.43592,2.23683 -0.0896,2.58311 0.36278,0.36279 0.83457,-0.0936 0.83457,-0.80729 z"
         id="path22" />
      <path
         style="fill:#eae4c7;fill-opacity:1;stroke:#1a1a1a;stroke-width:0;stroke-linecap:square;stroke-miterlimit:0;paint-order:markers fill stroke"
         d="m 858.56905,404.85399 c -0.7713,-0.7713 -1.20208,-1.54294 -1.20208,-2.15323 0,-0.61429 -0.37563,-1.28075 -1.06066,-1.88185 -0.96481,-0.8466 -1.06066,-1.1292 -1.06066,-3.12706 0,-4.06596 1.38198,-5.53578 2.09202,-2.22498 0.21057,0.98184 0.38374,2.21486 0.38482,2.74004 0.004,1.93555 0.79077,3.69358 2.49533,5.57582 0.95994,1.06 1.74534,2.00514 1.74534,2.1003 0,0.0952 -0.4932,0.17304 -1.09601,0.17304 -0.77505,0 -1.44805,-0.35204 -2.2981,-1.20208 z"
         id="path23" />
      <path
         style="fill:#eae4c7;fill-opacity:1;stroke:#1a1a1a;stroke-width:0;stroke-linecap:square;stroke-miterlimit:0;paint-order:markers fill stroke"
         d="m 742.81567,391.14646 c -1.45841,-0.34639 -4.08354,-0.73453 -5.83363,-0.86255 -1.75009,-0.12803 -3.455,-0.37319 -3.78869,-0.54482 -1.15704,-0.59511 -1.39294,-2.74696 -0.99276,-9.05596 0.52831,-8.32901 0.68574,-9.05887 2.11326,-9.79707 0.54671,-0.28272 2.61346,-0.7934 4.59278,-1.13486 4.23818,-0.73115 5.03852,-0.49401 6.20456,1.83838 0.63575,1.27165 0.71682,2.27785 0.83039,10.30551 0.0692,4.89295 -0.009,9.11787 -0.1742,9.38871 -0.25392,0.41672 -0.70779,0.3956 -2.95171,-0.13734 z m -7.6014,-2.41935 c 0,-0.75784 -1.02731,-0.64838 -1.17631,0.12534 -0.091,0.47248 0.053,0.61648 0.52549,0.52549 0.35795,-0.0689 0.65082,-0.36181 0.65082,-0.65083 z m 1.01688,-2.66019 c 0.12014,-0.31309 -0.0202,-0.63155 -0.33098,-0.75079 -0.69177,-0.26545 -1.00744,0.0537 -0.74067,0.74892 0.26838,0.69939 0.80363,0.70032 1.07165,0.002 z"
         id="path24" />
      <path
         style="fill:#eae4c7;fill-opacity:1;stroke:#1a1a1a;stroke-width:0;stroke-linecap:square;stroke-miterlimit:0;paint-order:markers fill stroke"
         d="m 736.22991,367.48799 c -0.73975,-0.21445 -1.25294,-0.67603 -1.5506,-1.39463 -0.96256,-2.32384 0.44988,-8.32103 3.11205,-13.21374 1.48339,-2.72626 2.36153,-3.53527 2.9144,-2.68499 1.13816,1.75044 2.46346,8.7265 2.46346,12.96708 0,2.6872 -0.0839,3.05891 -0.86781,3.84278 -0.73201,0.73201 -1.18845,0.86282 -2.91681,0.83593 -1.12696,-0.0175 -2.54657,-0.17613 -3.15469,-0.35243 z"
         id="path25" />
      <path
         style="fill:#eae4c7;fill-opacity:1;stroke:#1a1a1a;stroke-width:0;stroke-linecap:square;stroke-miterlimit:0;paint-order:markers fill stroke"
         d="m 747.20903,349.57591 c -1.67143,-1.80539 -1.76188,-2.45115 -0.68467,-4.88802 1.04134,-2.35575 2.47028,-4.0392 3.42853,-4.0392 0.65511,0 3.46938,2.56181 3.46938,3.15816 0,0.18135 -0.32747,0.43366 -0.72771,0.56069 -0.4944,0.15692 -0.69275,0.47629 -0.61865,0.9961 0.0921,0.64601 0.31547,0.75301 1.43483,0.68731 0.72916,-0.0428 1.32575,0.0442 1.32575,0.19341 0,0.76777 -4.95556,4.65738 -5.93373,4.65738 -0.25646,0 -1.01864,-0.59662 -1.69373,-1.32583 z"
         id="path26" />
      <path
         style="fill:#eae4c7;fill-opacity:1;stroke:#1a1a1a;stroke-width:0;stroke-linecap:square;stroke-miterlimit:0;paint-order:markers fill stroke"
         d="m 736.60975,404.31773 c -1.69374,-1.25163 -4.04713,-4.27415 -4.04713,-5.19782 0,-0.36956 0.31396,-0.868 0.69769,-1.10764 0.64484,-0.40271 0.68241,-0.35929 0.49593,0.57309 -0.12074,0.60374 0.0252,1.44768 0.36343,2.10177 0.60269,1.16548 3.3287,3.24762 4.2519,3.24762 1.4032,0 -0.005,-2.32502 -1.66987,-2.75634 -1.47655,-0.38261 -1.94663,-1.62434 -1.3583,-3.58799 0.70989,-2.36943 2.66829,-3.52826 4.25996,-2.52074 0.40867,0.2587 0.32796,0.52095 -0.44194,1.43593 -1.08165,1.28546 -1.15263,1.61578 -0.40854,1.90132 0.86896,0.33345 2.28184,-0.40189 2.65426,-1.38141 0.46168,-1.21431 0.8784,-0.87594 1.60117,1.30014 0.74834,2.25304 0.34364,3.92946 -1.39318,5.77102 -1.52708,1.61918 -3.02395,1.68529 -5.00538,0.22105 z"
         id="path27" />
      <path
         style="fill:#eae4c7;fill-opacity:1;stroke:#1a1a1a;stroke-width:0;stroke-linecap:square;stroke-miterlimit:0;paint-order:markers fill stroke"
         d="m 744.25229,396.48337 c -0.0123,-0.3064 -0.38255,-0.89543 -0.82273,-1.30895 -1.34544,-1.26398 -3.24199,-1.84627 -6.01339,-1.84627 -2.2663,0 -2.80195,0.13201 -4.24247,1.04556 -1.81417,1.15051 -2.40662,0.9488 -1.30957,-0.44589 1.05628,-1.34284 3.60606,-2.1715 6.71338,-2.18181 3.53885,-0.0117 5.50798,0.826 5.98269,2.54527 0.1961,0.7102 0.20621,1.52922 0.0245,1.98016 -0.20388,0.50585 -0.31762,0.57837 -0.33237,0.21193 z"
         id="path28" />
      <path
         style="fill:#eae4c7;fill-opacity:1;stroke:#1a1a1a;stroke-width:0;stroke-linecap:square;stroke-miterlimit:0;paint-order:markers fill stroke"
         d="m 711.06113,399.70147 c -3.11974,-0.4836 -3.03217,-0.95553 0.24079,-1.29762 2.46543,-0.25769 2.65841,-0.73875 0.55706,-1.38863 -1.01584,-0.31417 -1.17085,-0.441 -0.57202,-0.46802 0.58018,-0.0262 0.78665,-0.21758 0.70304,-0.65173 -0.18153,-0.94262 -1.30286,-0.98234 -1.6447,-0.0582 -0.16756,0.45295 -0.39249,0.63387 -0.52383,0.42136 -0.1266,-0.20485 0.0859,-0.77422 0.47211,-1.26527 0.8878,-1.12865 0.90726,-1.77787 0.0451,-1.50423 -0.76926,0.24415 -1.30933,-0.30498 -1.65519,-1.68297 -0.23121,-0.92123 -0.18747,-0.97258 0.64964,-0.76248 0.96959,0.24335 1.66275,-0.54521 1.66275,-1.89159 0,-0.85509 0.91935,-1.72789 1.13587,-1.07834 0.0909,0.27271 0.3968,0.334 0.82987,0.16628 0.6572,-0.25452 0.65918,-0.28531 0.0475,-0.73572 -0.58161,-0.42824 -0.47149,-0.54892 1.23744,-1.35598 3.57114,-1.68653 6.23124,-1.85276 8.17358,-0.51076 0.54293,0.37511 0.74007,0.322 1.28997,-0.34759 0.94594,-1.15184 1.07437,-0.51256 1.07437,5.34791 0,3.74858 -0.12585,5.20213 -0.49398,5.70559 -0.41069,0.56164 -1.09144,0.70717 -4.03728,0.86307 -1.94881,0.10313 -3.66222,0.30683 -3.80758,0.45267 -0.55779,0.55963 0.37925,0.79903 3.5065,0.89587 4.1047,0.1271 5.08325,0.32043 4.51235,0.89147 -0.50848,0.50862 -10.53646,0.69937 -13.40333,0.25496 z m 13.36976,-7.83646 c 0,-0.40116 -1.01322,-0.82348 -1.29636,-0.54033 -0.11286,0.11286 -0.11202,0.44803 0.002,0.74482 0.21435,0.55861 1.29449,0.38798 1.29449,-0.20449 z m -9.19238,-2.93542 c 0,-0.72623 -0.73195,-1.08306 -1.07686,-0.52498 -0.15989,0.2587 -0.21226,0.59728 -0.11639,0.7524 0.29714,0.48078 1.19325,0.30999 1.19325,-0.22742 z m 6.0104,-2.14218 c 0,-0.29168 -0.22925,-0.53033 -0.50946,-0.53033 -0.59066,0 -0.98939,0.50462 -0.65944,0.83457 0.42256,0.42255 1.1689,0.22829 1.1689,-0.30424 z"
         id="path29" />
      <path
         style="fill:#eae4c7;fill-opacity:1;stroke:#1a1a1a;stroke-width:0;stroke-linecap:square;stroke-miterlimit:0;paint-order:markers fill stroke"
         d="m 700.74282,408.51831 c -8.38787,-0.30276 -11.48719,-0.57323 -12.44544,-1.08607 -0.78852,-0.422 -0.81068,-1.41919 -0.0643,-2.89633 0.97122,-1.92226 1.91718,-2.72248 3.21832,-2.72248 1.18116,0 1.6589,0.35199 3.48601,2.56844 0.50245,0.60951 1.3552,1.02065 2.69299,1.29838 1.88152,0.3906 3.07613,0.30457 7.35511,-0.52965 1.12462,-0.21925 1.17752,-0.1949 0.58027,0.26709 -0.80791,0.62495 -0.63777,1.82101 0.2843,1.99859 0.81556,0.15706 1.64727,-0.85249 1.34699,-1.635 -0.18894,-0.49238 -0.11285,-0.48825 0.63328,0.0344 1.87374,1.31241 5.55472,0.41366 6.16366,-1.50493 0.80485,-2.53587 6.69312,-2.75995 9.10652,-0.34656 0.87169,0.8717 0.99542,1.21178 0.79347,2.18104 -0.13159,0.63157 -0.54596,1.46651 -0.92083,1.85542 -0.63333,0.65706 -1.17517,0.71011 -7.65524,0.74959 -3.83551,0.0234 -10.39429,-0.081 -14.57506,-0.23189 z m -7.70103,-3.89951 c -0.16537,-1.96444 -1.84491,-3.19593 -1.84491,-1.35274 0,1.03395 1.03511,2.85888 1.52334,2.6857 0.24166,-0.0857 0.37873,-0.65392 0.32157,-1.33296 z"
         id="path30" />
      <path
         style="fill:#eae4c7;fill-opacity:1;stroke:#1a1a1a;stroke-width:0;stroke-linecap:square;stroke-miterlimit:0;paint-order:markers fill stroke"
         d="m 685.54924,398.54597 c -1.69942,-0.61552 -2.19967,-1.72745 -2.0087,-4.46483 0.24257,-3.47724 2.04458,-5.28962 3.57639,-3.59698 0.89946,0.99389 1.27013,0.90495 1.0403,-0.24961 -0.45907,-2.30614 3.51475,-5.39169 6.94385,-5.39169 1.72645,0 2.43625,0.40261 3.18877,1.80869 0.20395,0.3811 0.26708,1.01975 0.14029,1.41923 -0.3139,0.98902 -2.80824,2.05817 -4.82376,2.06762 -2.52714,0.0119 -3.54072,0.51164 -3.40524,1.67912 0.17572,1.51429 1.37074,1.9268 5.0616,1.74724 2.32873,-0.1133 3.84562,-0.41051 5.65685,-1.10836 1.36118,-0.52446 2.87263,-1.02685 3.35876,-1.11643 l 0.88389,-0.16286 -0.83388,0.63357 c -0.45862,0.34847 -1.81097,1.04176 -3.0052,1.54064 -1.76888,0.73895 -2.19118,1.07383 -2.27844,1.80679 -0.13251,1.1131 1.46007,3.11978 2.47598,3.11978 0.63339,0 0.68751,-0.15138 0.47407,-1.32582 l -0.24096,-1.32583 0.81542,0.80041 c 0.63856,0.62681 0.73394,0.92959 0.43973,1.39601 -0.75736,1.20065 -4.609,1.44393 -4.15563,0.26248 0.10613,-0.27659 -0.29435,-0.98481 -0.89854,-1.589 -0.89716,-0.89717 -1.32556,-1.07054 -2.42136,-0.97996 -1.10646,0.0915 -1.41428,0.29834 -1.82231,1.22469 -0.27002,0.61305 -0.90072,1.30133 -1.40154,1.52952 -1.3752,0.62659 -5.34451,0.78839 -6.76034,0.27558 z m 0.63542,-1.79998 c 0.0661,-0.34102 -0.11131,-0.58942 -0.42107,-0.58942 -0.65681,0 -1.05322,0.57635 -0.74236,1.07933 0.3198,0.51744 1.02572,0.22019 1.16343,-0.48991 z m 3.15623,-2.9759 c 0.0863,-0.25922 -0.15739,-0.44194 -0.58942,-0.44194 -0.43429,0 -0.73657,0.22828 -0.73657,0.55625 0,0.64979 1.10324,0.55468 1.32599,-0.11431 z m 6.80573,-8.06421 c 0,-0.2802 -0.23864,-0.50946 -0.53033,-0.50946 -0.53253,0 -0.72679,0.74635 -0.30424,1.1689 0.32996,0.32995 0.83457,-0.0688 0.83457,-0.65944 z"
         id="path31" />
      <path
         style="fill:#eae4c7;fill-opacity:1;stroke:#1a1a1a;stroke-width:0;stroke-linecap:square;stroke-miterlimit:0;paint-order:markers fill stroke"
         d="m 660.8019,400.30046 c -1.18912,-0.6017 -2.48549,-2.61241 -2.48549,-3.85506 0,-2.50159 1.94733,-3.92628 13.5054,-9.8807 11.21524,-5.77781 13.01111,-6.76201 13.01111,-7.13057 0,-0.46877 -1.06166,-0.0456 -10.25305,4.08629 -15.10158,6.78884 -15.2028,6.8263 -15.2028,5.62671 0,-0.98672 1.32537,-1.97275 4.24264,-3.15637 1.45841,-0.59172 8.29967,-3.38795 15.2028,-6.21386 6.90313,-2.82591 13.02844,-5.25243 13.6118,-5.39226 1.01285,-0.2428 1.0352,-0.22398 0.49572,0.4174 -1.22766,1.45956 -1.21743,1.67956 0.068,1.46403 0.66221,-0.11104 1.52222,-0.30681 1.91113,-0.43505 1.5195,-0.50105 -2.89467,3.02297 -6.40815,5.11589 -3.62829,2.16132 -14.02709,7.17839 -15.80168,7.62379 -0.78208,0.19628 -0.87347,0.12971 -0.70521,-0.51373 0.23144,-0.88502 -0.32229,-0.9627 -1.12691,-0.15808 -0.34588,0.34588 -0.50386,0.88914 -0.39023,1.34189 0.1735,0.69126 0.0746,0.74715 -1.08334,0.61197 -0.85419,-0.0997 -1.19637,-0.0227 -1.03797,0.23357 0.32724,0.52949 -0.87842,1.24394 -4.29923,2.54764 -2.94974,1.12417 -3.78913,1.87672 -3.40755,3.05506 0.9536,2.94484 1.55658,3.41663 1.55658,1.21795 0,-1.75515 0.89032,-2.6523 1.62925,-1.64175 0.60266,0.82419 0.62648,3.33864 0.0389,4.10397 -0.37041,0.48245 -1.75059,1.39406 -2.08683,1.37836 -0.0614,-0.003 -0.5046,-0.20405 -0.9849,-0.44709 z m 26.34815,-21.14526 c 0.36435,-0.58952 -0.4551,-1.26554 -0.94283,-0.77781 -0.40797,0.40797 -0.15263,1.16217 0.39346,1.16217 0.1715,0 0.41872,-0.17296 0.54937,-0.38436 z m 3.07455,-1.16846 c 0.75104,-0.57012 0.80913,-1.2756 0.10503,-1.2756 -0.88517,0 -2.31473,0.79928 -2.31473,1.29418 0,0.60575 1.4028,0.59395 2.2097,-0.0186 z"
         id="path32" />
      <path
         style="fill:#eae4c7;fill-opacity:1;stroke:#1a1a1a;stroke-width:0;stroke-linecap:square;stroke-miterlimit:0;paint-order:markers fill stroke"
         d="m 711.18547,370.18841 c -1.15967,-0.84829 -2.72075,-1.72579 -3.46907,-1.94999 -2.03724,-0.61037 -1.60008,-1.37178 1.33492,-2.32507 1.36118,-0.44211 6.03557,-2.41177 10.38753,-4.37702 8.05484,-3.6374 9.59244,-4.22951 9.58282,-3.69024 -0.012,0.67176 -0.66855,1.12322 -3.91395,2.6912 -3.595,1.7369 -8.07903,4.88306 -10.36898,7.27526 -1.11399,1.16374 -1.37447,1.68937 -1.33659,2.69714 0.0259,0.68843 0.0121,1.24481 -0.0306,1.23639 -0.0427,-0.008 -1.02645,-0.70937 -2.18612,-1.55767 z"
         id="path33" />
      <path
         style="fill:#eae4c7;fill-opacity:1;stroke:#1a1a1a;stroke-width:0;stroke-linecap:square;stroke-miterlimit:0;paint-order:markers fill stroke"
         d="m 704.43895,379.51339 c -0.12907,-0.20885 0.10019,-0.73617 0.50947,-1.17183 1.08735,-1.15744 1.04302,-4.07196 -0.0818,-5.37967 -1.42769,-1.65979 -2.12264,-0.13577 -1.1082,2.43025 0.21061,0.53275 0.0708,0.61143 -0.94219,0.53033 -1.16073,-0.0929 -1.18774,-0.0642 -1.11663,1.18789 l 0.0729,1.28311 -1.0222,-1.02219 c -0.5622,-0.56221 -1.49964,-1.11769 -2.08319,-1.2344 -1.35267,-0.27053 -1.79464,-1.19351 -0.57152,-1.19351 0.9081,0 0.99923,-0.19698 1.37295,-2.96751 0.18341,-1.35972 1.18931,-2.77623 2.45632,-3.45898 1.08628,-0.58536 2.29262,-0.0285 3.01991,1.39401 0.37123,0.72609 1.31646,1.89501 2.10052,2.59759 1.52251,1.3643 1.96933,2.64537 1.76661,5.06505 -0.10976,1.31014 -0.1809,1.37913 -1.88184,1.825 -2.19831,0.57624 -2.20569,0.57658 -2.49105,0.11486 z"
         id="path34" />
      <path
         style="fill:#eae4c7;fill-opacity:1;stroke:#1a1a1a;stroke-width:0;stroke-linecap:square;stroke-miterlimit:0;paint-order:markers fill stroke"
         d="m 678.29218,411.8391 c -0.38891,-0.30714 -2.0369,-1.20523 -3.66219,-1.99574 -3.23731,-1.57457 -4.17633,-1.51893 -4.04943,0.23994 0.0366,0.50738 -0.0429,0.9186 -0.17677,0.91381 -0.53132,-0.019 -5.15192,-3.0246 -5.28574,-3.43825 -0.26164,-0.80868 0.914,-0.86309 1.95877,-0.0907 1.19959,0.8869 3.43718,0.88825 3.43718,0.002 0,-1.06678 -3.73063,-2.49653 -7.4266,-2.8462 -3.24999,-0.30748 -4.21851,-0.63501 -4.86842,-1.64637 -0.15081,-0.23469 -0.82698,-1.15088 -1.5026,-2.03599 -1.17911,-1.54472 -1.60959,-3.01738 -0.88203,-3.01738 0.1905,0 0.66985,0.63407 1.06521,1.40904 0.89231,1.74907 1.82251,2.37413 4.20576,2.82611 2.34765,0.44522 6.5784,2.42195 11.32235,5.29013 3.65912,2.21231 7.10194,4.5522 7.10194,4.8268 0,0.29777 -0.55502,0.10161 -1.23743,-0.43732 z"
         id="path35" />
      <path
         style="fill:#eae4c7;fill-opacity:1;stroke:#1a1a1a;stroke-width:0;stroke-linecap:square;stroke-miterlimit:0;paint-order:markers fill stroke"
         d="m 683.64252,416.62871 c -3.82814,-0.4039 -6.19853,-1.15644 -8.22517,-2.61131 -0.94675,-0.67964 -2.42159,-1.61056 -3.27742,-2.06871 l -1.55605,-0.83301 1.33876,-0.21725 c 1.21868,-0.19776 1.50094,-0.075 3.14704,1.36876 2.92826,2.56831 6.2277,3.90836 6.2277,2.52934 0,-0.20696 -0.26331,-0.66723 -0.58513,-1.02284 -0.32181,-0.3556 -0.42085,-0.64655 -0.22006,-0.64655 0.20078,0 0.58341,0.26329 0.85029,0.58509 1.26042,1.51983 2.46998,1.68119 14.09704,1.88066 11.94262,0.20487 12.52832,0.49552 2.14733,1.06558 -7.30728,0.40128 -9.91166,0.39572 -13.94433,-0.0298 z"
         id="path36" />
      <path
         style="fill:#eae4c7;fill-opacity:1;stroke:#1a1a1a;stroke-width:0;stroke-linecap:square;stroke-miterlimit:0;paint-order:markers fill stroke"
         d="m 672.10675,399.25016 c -0.002,-1.16774 -0.0982,-1.18354 -1.38991,-0.22852 -1.78953,1.32305 -3.23437,0.2065 -3.27212,-2.52864 -0.0228,-1.64974 0.73786,-2.93929 2.293,-3.88752 1.38044,-0.84171 2.47856,-0.87464 3.76794,-0.11298 2.08764,1.2332 4.79835,-0.25422 4.36966,-2.39771 -0.11435,-0.57173 -0.0486,-1.00928 0.15169,-1.00928 0.7319,0 0.8628,2.88853 0.22298,4.92047 -0.12025,0.3819 -0.25591,0.40292 -0.57044,0.0884 -0.83903,-0.83902 -1.52687,-0.37544 -2.6683,1.79835 -0.63778,1.21462 -1.55181,2.68569 -2.03118,3.26906 l -0.87156,1.06066 z m 1.91803,-3.05353 c 0.29741,-0.48123 -0.6967,-1.14085 -1.34464,-0.89221 -0.60811,0.23335 -0.72942,0.58003 -0.33944,0.97 0.34101,0.34102 1.45711,0.28946 1.68408,-0.0778 z m -1.95698,-2.29334 c 0.46488,-0.56014 0.16223,-1.6358 -0.46025,-1.6358 -0.6222,0 -1.27032,0.75761 -1.27032,1.48492 0,0.76104 1.14158,0.86057 1.73057,0.15088 z"
         id="path37" />
      <path
         style="fill:#eae4c7;fill-opacity:1;stroke:#1a1a1a;stroke-width:0;stroke-linecap:square;stroke-miterlimit:0;paint-order:markers fill stroke"
         d="m 676.80279,399.27879 -0.0752,-2.17465 1.20092,1.16398 c 1.42372,1.37992 2.30818,1.25244 2.30818,-0.33268 0,-1.17215 0.37726,-1.36488 1.0604,-0.54175 0.5044,0.60777 0.10648,1.85693 -1.07003,3.35908 -0.57003,0.7278 -0.75069,0.79378 -1.02311,0.37365 -0.26972,-0.41597 -0.50187,-0.4323 -1.25667,-0.0884 -0.50921,0.23202 -0.95813,0.4204 -0.99759,0.41863 -0.0395,-0.002 -0.10558,-0.98181 -0.14693,-2.17787 z"
         id="path38" />
      <path
         style="fill:#eae4c7;fill-opacity:1;stroke:#1a1a1a;stroke-width:0;stroke-linecap:square;stroke-miterlimit:0;paint-order:markers fill stroke"
         d="m 674.30453,402.86554 c -0.0549,-0.066 -0.0935,-0.31138 -0.10722,-0.68098 -0.0271,-0.72995 0.10934,-1.10502 0.45435,-1.24917 0.30098,-0.12576 0.45435,-0.11614 1.01783,0.0638 0.60043,0.19176 0.91157,0.20098 1.08051,0.0321 0.125,-0.125 0.125,-0.125 0.125,0.12131 0,0.29637 0.0721,0.35328 0.31827,0.2513 0.39236,-0.16252 0.199,-0.008 -0.70539,0.56489 -1.54555,0.97849 -1.97042,1.153 -2.18335,0.89679 z"
         id="path39" />
      <path
         style="fill:#eae4c7;fill-opacity:1;stroke:#1a1a1a;stroke-width:0;stroke-linecap:square;stroke-miterlimit:0;paint-order:markers fill stroke"
         d="m 680.67187,405.15811 c -0.20922,-0.16547 -0.22041,-0.36212 -0.0416,-0.73142 0.35264,-0.72845 1.56373,-1.31954 1.99241,-0.97242 0.5469,0.44286 -0.47825,1.68778 -1.48689,1.80565 -0.23826,0.0278 -0.32363,0.009 -0.46388,-0.10181 z"
         id="path40" />
      <path
         style="fill:#eae4c7;fill-opacity:1;stroke:#1a1a1a;stroke-width:0;stroke-linecap:square;stroke-miterlimit:0;paint-order:markers fill stroke"
         d="m 682.41404,402.16486 c -0.13931,-0.15394 -0.22654,-0.47241 -0.22654,-0.82708 0,-0.50865 0.39327,-0.92784 0.91722,-0.97766 0.58033,-0.0552 0.83125,0.39655 0.51156,0.92096 -0.2202,0.36122 -0.5548,0.7406 -0.77107,0.87427 -0.25107,0.15516 -0.29841,0.15621 -0.43117,0.01 z"
         id="path41" />
      <path
         style="fill:#eae4c7;fill-opacity:1;stroke:#1a1a1a;stroke-width:0;stroke-linecap:square;stroke-miterlimit:0;paint-order:markers fill stroke"
         d="m 698.90625,398.84179 c -1.7797,-0.32295 -3.46591,-0.95703 -4.2657,-1.60407 -0.65239,-0.5278 -0.47093,-0.81729 0.5504,-0.87809 1.06953,-0.0637 1.933,0.38591 1.93381,1.00686 3.3e-4,0.24734 0.21589,0.60756 0.46624,0.7791 0.28427,0.19478 0.84616,0.25371 1.0632,0.1115 0.15475,-0.1014 0.1583,-0.10024 0.1583,0.0515 0,0.46615 0.92091,0.69069 2.09975,0.51196 1.09093,-0.16539 1.90534,-0.55926 2.15065,-1.04012 0.2473,-0.48474 0.16006,-0.72509 -0.51371,-1.41537 -0.27988,-0.28674 -0.48785,-0.52134 -0.46216,-0.52134 0.19383,0 0.94289,0.69734 1.12282,1.0453 0.4095,0.79188 -0.11085,1.54145 -1.33485,1.92288 -0.55097,0.1717 -2.10118,0.18729 -2.96875,0.0299 z"
         id="path42" />
      <path
         style="fill:#eae4c7;fill-opacity:1;stroke:#1a1a1a;stroke-width:0;stroke-linecap:square;stroke-miterlimit:0;paint-order:markers fill stroke"
         d="m 722.43854,415.88918 c -0.0854,-0.0436 -0.17678,-0.15608 -0.20313,-0.24988 -0.0263,-0.0938 -0.0692,-0.24789 -0.0951,-0.34243 -0.1284,-0.46758 -1.05511,-0.54458 -2.53047,-0.21026 -0.86884,0.19689 -1.35983,0.24512 -1.35983,0.13359 0,-0.26348 5.43617,-3.71111 5.5974,-3.54988 0.0596,0.0596 -0.0832,0.28907 -0.53579,0.86093 -0.73729,0.93154 -0.98821,1.44346 -0.81174,1.65609 0.30624,0.369 1.47246,-0.28879 3.26053,-1.83905 0.49272,-0.42719 0.94524,-0.81842 1.00561,-0.86941 0.23727,-0.20039 0.17068,0.0147 -0.20412,0.65947 -0.59856,1.02964 -1.10307,1.73704 -1.65444,2.31979 -1.00262,1.05967 -2.03022,1.6553 -2.46891,1.43104 z"
         id="path43" />
      <path
         style="fill:#ede5e4;fill-opacity:1;stroke:#1a1a1a;stroke-width:0;stroke-linecap:square;stroke-miterlimit:0;paint-order:markers fill stroke"
         d="m 714.74567,418.15459 c -0.71544,-0.0599 -1.02042,-0.14218 -0.98031,-0.26435 0.071,-0.2161 1.10989,-0.69082 2.15562,-0.98496 1.19313,-0.3356 1.70101,-0.40528 2.95402,-0.40528 1.05577,0 1.18184,0.0118 1.45079,0.13608 0.32487,0.15009 0.42855,0.355 0.31061,0.61386 -0.13989,0.30703 -0.91793,0.61788 -2.04265,0.81612 -0.67344,0.1187 -2.88167,0.1695 -3.84808,0.0885 z"
         id="path44" />
      <path
         style="fill:#ede5e4;fill-opacity:1;stroke:#1a1a1a;stroke-width:0;stroke-linecap:square;stroke-miterlimit:0;paint-order:markers fill stroke"
         d="m 770.60398,270.60899 c -0.73269,-0.57634 -0.85565,-0.85073 -0.54757,-1.22195 0.50052,-0.60308 0.14216,-1.21679 -0.71051,-1.21679 -0.93623,0 -1.46404,-1.74028 -1.68685,-5.56177 -0.23134,-3.96781 0.23794,-5.89423 1.91242,-7.85048 2.33367,-2.72637 5.30622,-2.6384 6.65164,0.19685 0.54212,1.14245 0.59776,2.04429 0.43173,6.99826 -0.10482,3.12774 -0.33458,6.1641 -0.51056,6.74747 -0.3802,1.26033 -2.28734,2.65165 -3.63473,2.65165 -0.52838,0 -1.38589,-0.33446 -1.90557,-0.74324 z"
         id="path46" />
      <path
         style="fill:#ede5e4;fill-opacity:1;stroke:#1a1a1a;stroke-width:0;stroke-linecap:square;stroke-miterlimit:0;paint-order:markers fill stroke"
         d="m 826.52388,262.3135 c -1.34016,-0.72717 -2.03761,-2.25738 -2.03605,-4.46713 0.002,-3.09792 2.16358,-5.5816 4.86003,-5.58471 2.31226,-0.003 3.24835,2.27858 2.59634,6.32722 -0.40749,2.53029 -0.65564,2.92894 -2.31248,3.71517 -1.44151,0.68404 -1.86221,0.68532 -3.10784,0.009 z"
         id="path47" />
      <path
         style="fill:#ede5e4;fill-opacity:1;stroke:#1a1a1a;stroke-width:0;stroke-linecap:square;stroke-miterlimit:0;paint-order:markers fill stroke"
         d="m 823.97839,267.02633 c -0.16066,-0.13519 -0.31083,-0.38575 -0.38572,-0.64358 -0.16839,-0.57977 -0.16666,-2.61591 0.003,-3.01723 0.11741,-0.27844 0.14641,-0.29409 0.46555,-0.25128 0.39316,0.0527 1.48854,0.70875 1.90079,1.13837 0.43759,0.45603 0.5041,0.72024 0.29836,1.18535 -0.19095,0.43167 -0.94402,1.27426 -1.36805,1.53069 -0.47719,0.28857 -0.62781,0.29808 -0.91351,0.0577 z"
         id="path48" />
      <path
         style="fill:#ede5e4;fill-opacity:1;stroke:#1a1a1a;stroke-width:0;stroke-linecap:square;stroke-miterlimit:0;paint-order:markers fill stroke"
         d="m 824.16365,271.90465 c -0.14803,-0.15799 -0.33482,-0.3856 -0.41509,-0.5058 -0.31825,-0.47658 -0.0764,-1.26525 0.47561,-1.55069 0.24849,-0.1285 0.29624,-0.12923 0.48215,-0.007 0.29909,0.19597 0.43148,0.68508 0.36837,1.36088 -0.0915,0.98023 -0.41642,1.23094 -0.91104,0.70303 z"
         id="path49" />
      <path
         style="fill:#ede5e4;fill-opacity:1;stroke:#1a1a1a;stroke-width:0;stroke-linecap:square;stroke-miterlimit:0;paint-order:markers fill stroke"
         d="m 826.33286,268.95393 c -0.17998,-0.21686 -0.15808,-1.13982 0.0316,-1.32945 0.14292,-0.14292 0.16376,-0.13975 0.37282,0.0566 0.38619,0.3628 0.38513,0.89003 -0.003,1.27772 -0.17628,0.17628 -0.2522,0.17535 -0.40181,-0.005 z"
         id="path50" />
      <path
         style="fill:#ede5e4;fill-opacity:1;stroke:#1a1a1a;stroke-width:0;stroke-linecap:square;stroke-miterlimit:0;paint-order:markers fill stroke"
         d="m 806.39417,403.84636 c -0.0497,-0.14584 -0.12269,-0.72587 -0.16231,-1.28896 -0.0799,-1.13562 -0.42714,-1.74033 -1.36633,-2.37953 -0.89876,-0.61169 -1.86932,-0.80047 -3.62516,-0.70513 -2.49668,0.13557 -4.6999,1.10971 -7.06342,3.12307 -1.69772,1.44619 -1.92791,1.20343 -1.27955,-1.34949 0.24179,-0.95205 0.61114,-2.18421 0.82078,-2.73814 1.23371,-3.25981 7.59268,-5.6718 10.48476,-3.97693 2.24884,1.31791 3.82609,4.68542 3.31298,7.07343 -0.24175,1.12512 -0.99168,2.62376 -1.12175,2.24168 z"
         id="path53" />
      <path
         style="fill:#ede5e4;fill-opacity:1;stroke:#1a1a1a;stroke-width:0;stroke-linecap:square;stroke-miterlimit:0;paint-order:markers fill stroke"
         d="m 817.23866,402.24659 c 0,-1.47349 2.41792,-3.17871 5.65685,-3.98947 1.82677,-0.45726 5.19559,-0.4613 6.49903,-0.008 1.836,0.63882 3.85965,2.55079 3.72249,3.51706 -0.091,0.64092 -1.75213,0.55444 -3.68078,-0.19163 -3.07029,-1.1877 -5.69091,-1.54489 -7.43982,-1.01405 -0.75074,0.22788 -2.01844,0.83913 -3.51758,1.69609 -0.80298,0.45902 -1.24019,0.45542 -1.24019,-0.0102 z m 8.90528,-3.21408 c 0.14826,-0.23543 0.12521,-0.37356 -0.0999,-0.5987 -0.52957,-0.52957 -1.31966,0.16254 -0.84224,0.7378 0.27487,0.3312 0.68405,0.27079 0.94217,-0.1391 z"
         id="path54" />
      <path
         style="fill:#ede5e4;fill-opacity:1;stroke:#1a1a1a;stroke-width:0;stroke-linecap:square;stroke-miterlimit:0;paint-order:markers fill stroke"
         d="m 797.26289,324.18744 c -1.24199,-0.24472 -1.62405,-0.45215 -1.52568,-0.82836 0.1606,-0.61411 -0.19501,-0.82995 -1.36858,-0.83066 -2.89734,-0.002 -3.42712,-1.55101 -3.65701,-10.69433 -0.0807,-3.2085 -0.20212,-6.06278 -0.26987,-6.34286 -0.0678,-0.28008 -0.27103,-0.54789 -0.45172,-0.59514 -0.1807,-0.0473 -0.32853,-0.20609 -0.32853,-0.35296 0,-0.58838 1.19913,-2.66148 2.03208,-3.51314 0.79416,-0.81199 1.15163,-1.00822 3.4919,-1.91676 1.43394,-0.5567 2.65177,-1.08433 2.70628,-1.17253 0.15885,-0.25703 3.42634,-0.18497 5.13664,0.11328 1.79584,0.31317 4.05554,1.03989 5.72498,1.84115 l 1.14905,0.55149 -1.35143,-0.10139 c -1.74067,-0.13059 -4.25173,0.0706 -4.16466,0.33366 0.0355,0.10727 0.84642,0.53803 1.80204,0.95724 0.95561,0.41921 2.10266,1.01293 2.54899,1.31938 2.02398,1.38966 4.68802,4.7191 5.2263,6.53167 0.24116,0.81208 0.24119,0.95 3.3e-4,1.31761 -0.14796,0.22582 -0.42322,0.41058 -0.61169,0.41058 -0.54909,0 -0.77067,1.17829 -0.64823,3.44715 0.15981,2.96164 -0.18844,3.87146 -1.64942,4.30919 -0.38023,0.11392 -0.86188,0.42394 -1.07033,0.68895 -0.37649,0.47862 -0.38846,0.83884 -0.0649,1.95283 0.11303,0.38916 0.0862,0.40406 -0.52229,0.28991 -0.86338,-0.16198 -1.40498,-0.002 -2.12293,0.62882 -0.75913,0.66653 -1.60221,1.01951 -3.1897,1.33549 -1.27977,0.25474 -6.02317,0.47706 -6.82162,0.31973 z"
         id="path55" />
      <path
         style="fill:#40616f;fill-opacity:1;stroke:#1a1a1a;stroke-width:0;stroke-linecap:square;stroke-miterlimit:0;paint-order:markers fill stroke"
         d="m 810.0792,331.64812 c -0.68059,-0.2261 -1.84038,-0.65729 -2.57733,-0.95821 -1.98581,-0.81086 -4.00258,-1.11215 -7.49894,-1.12026 -4.21435,-0.01 -5.64727,0.19962 -10.11489,1.47815 -0.41015,0.11737 -0.8079,0.15004 -0.88389,0.0726 -0.076,-0.0774 0.23785,-0.4823 0.69741,-0.8997 2.49272,-2.26399 8.9451,-4.86652 11.49271,-4.63551 1.15437,0.10468 3.01725,0.91163 4.67607,2.02556 2.38335,1.60045 4.60232,2.58431 6.29484,2.79101 1.20532,0.1472 1.63593,0.4605 1.32257,0.96227 -0.50271,0.80497 -1.57227,0.89411 -3.40855,0.28409 z"
         id="path56" />
      <path
         style="fill:#40616f;fill-opacity:1;stroke:#1a1a1a;stroke-width:0;stroke-linecap:square;stroke-miterlimit:0;paint-order:markers fill stroke"
         d="m 782.85413,322.92683 c -0.34123,-0.82682 -0.46348,-1.80571 -0.60495,-4.8444 -0.19117,-4.106 -0.35111,-4.52464 -1.6033,-4.19651 -0.42962,0.11258 -0.42551,-0.83458 0.009,-2.03354 1.10413,-3.04792 3.20147,-6.32568 5.32714,-8.32536 3.38212,-3.18165 9.41533,-6.31109 11.68016,-6.05851 0.66257,0.0739 0.50692,0.1477 -1.1519,0.5462 -1.4593,0.35057 -2.75819,0.95072 -3.97478,1.83657 -0.50541,0.368 -1.41187,0.94752 -2.01435,1.28782 -0.60248,0.34029 -1.71114,1.19679 -2.46369,1.90332 -1.09029,1.02362 -1.5328,1.60315 -2.17805,2.85249 -0.95474,1.84855 -1.80831,2.70858 -2.54248,2.56175 -0.67342,-0.13468 -1.08435,0.36558 -1.21644,1.48086 -0.19909,1.68103 0.30245,2.78207 0.82366,1.80818 0.48953,-0.91469 0.66071,-0.33226 0.89564,3.04741 0.31716,4.56242 -0.31298,9.76322 -0.98549,8.13372 z"
         id="path57" />
      <path
         style="fill:#40616f;fill-opacity:1;stroke:#1a1a1a;stroke-width:0;stroke-linecap:square;stroke-miterlimit:0;paint-order:markers fill stroke"
         d="m 820.18396,318.02127 c -0.90158,-5.39897 -1.41543,-7.50908 -2.66896,-10.96015 l -0.12843,-0.35355 0.29276,0.35355 c 0.53515,0.64627 1.62579,2.636 2.09401,3.82025 0.74181,1.87618 1.01654,3.94677 0.96117,7.24413 l -0.0487,2.90098 z"
         id="path58" />
      <path
         style="fill:#b86a43;fill-opacity:1;stroke:#1a1a1a;stroke-width:0;stroke-linecap:square;stroke-miterlimit:0;paint-order:markers fill stroke"
         d="m 783.88465,327.38818 c -0.79873,-0.63338 -1.39845,-1.6436 -1.13319,-1.90886 0.46658,-0.46658 2.07665,0.87525 2.17841,1.81548 0.065,0.60037 -0.35821,0.63817 -1.04522,0.0934 z"
         id="path59" />
      <path
         style="fill:#b86a43;fill-opacity:1;stroke:#1a1a1a;stroke-width:0;stroke-linecap:square;stroke-miterlimit:0;paint-order:markers fill stroke"
         d="m 646.82918,404.206 c -0.6347,-1.18596 -0.70557,-9.97699 -0.0976,-12.10567 0.58329,-2.04222 1.70399,-3.63354 2.55893,-3.63354 0.47081,0 1.19066,0.63518 1.69482,1.49545 0.72617,1.23912 0.97089,2.8286 0.97267,6.31758 0.002,4.78464 -0.17535,5.62189 -1.30005,6.12188 -0.40614,0.18056 -1.21574,0.73786 -1.7991,1.23845 -1.12528,0.96562 -1.72608,1.13312 -2.02968,0.56585 z m 2.19348,-13.01145 c 0.38049,-0.38049 0.0555,-1.00359 -0.48332,-0.92653 -0.49068,0.0702 -0.61141,0.66774 -0.19625,0.97132 0.39106,0.28594 0.34586,0.28892 0.67957,-0.0448 z"
         id="path60" />
      <path
         style="fill:#b86a43;fill-opacity:1;stroke:#1a1a1a;stroke-width:0;stroke-linecap:square;stroke-miterlimit:0;paint-order:markers fill stroke"
         d="m 639.66647,402.61731 c -6.12359,-1.59303 -8.98617,-3.85956 -7.79175,-6.16933 0.35587,-0.68817 1.61657,-1.80578 2.85012,-2.52664 2.11828,-1.23786 7.18084,-3.15646 8.3289,-3.15646 0.79723,0 0.94376,0.36719 0.94376,2.36501 0,1.49971 -0.0439,1.73219 -0.40687,2.15415 -0.36055,0.41916 -0.58696,0.48991 -1.98874,0.62139 -0.87003,0.0816 -2.47283,0.23252 -3.56179,0.33537 -2.09879,0.19822 -4.10968,0.71613 -4.47102,1.15152 -0.11976,0.14429 -0.16688,0.39488 -0.10472,0.55687 0.10242,0.26691 0.38173,0.28022 2.98079,0.14205 4.21798,-0.22425 6.30898,-0.19966 6.986,0.0822 1.24392,0.51779 0.32048,1.26319 -2.35312,1.89944 -1.06804,0.25417 -2.2402,0.53408 -2.6048,0.62203 -0.3646,0.088 -0.66292,0.22612 -0.66292,0.30703 0,0.0809 0.56745,0.20304 1.26099,0.27138 2.01231,0.19829 4.57265,1.14265 4.57265,1.6866 0,0.33895 -2.02968,0.16414 -3.97748,-0.34257 z m -0.53033,-7.78656 c 0,-0.34538 -0.10128,-0.45369 -0.46355,-0.4957 -0.53499,-0.062 -0.8132,0.39399 -0.48305,0.7918 0.33907,0.40855 0.9466,0.21851 0.9466,-0.2961 z"
         id="path61" />
      <path
         style="fill:#b86a43;fill-opacity:1;stroke:#1a1a1a;stroke-width:0;stroke-linecap:square;stroke-miterlimit:0;paint-order:markers fill stroke"
         d="m 948.7293,403.88553 c -1.67983,-1.10787 -2.444,-3.68225 -2.44315,-8.23064 8.5e-4,-4.61476 0.49932,-7.13352 1.54769,-7.82044 0.90788,-0.59486 3.79847,0.12433 4.75463,1.18299 0.461,0.51041 0.766,1.55673 0.76704,2.63133 10e-4,1.08018 -0.47641,5.1224 -0.89558,7.58207 -0.67598,3.96666 -2.09303,5.7347 -3.73063,4.65469 z"
         id="path62" />
      <path
         style="fill:#b86a43;fill-opacity:1;stroke:#1a1a1a;stroke-width:0;stroke-linecap:square;stroke-miterlimit:0;paint-order:markers fill stroke"
         d="m 955.85721,402.3294 c -0.3744,-0.82172 -0.54896,-2.75944 -0.54813,-6.08444 8.8e-4,-3.51363 0.15775,-4.63826 0.73226,-5.24994 0.78605,-0.83688 2.10435,-0.64869 5.90224,0.84254 2.69133,1.05675 3.69907,1.56269 3.49918,1.75676 -0.0845,0.082 -1.54573,0.43921 -3.24721,0.79374 -3.50187,0.72966 -5.37807,1.32033 -5.9109,1.86088 -0.3642,0.36948 -0.36421,0.37032 -0.0111,0.64255 0.51139,0.39428 3.24306,0.19107 6.45235,-0.47998 4.97625,-1.04051 4.59699,-0.99963 4.97247,-0.53594 0.18641,0.23021 0.33083,0.68653 0.33083,1.04534 0,0.54079 -0.14249,0.77099 -0.94532,1.52721 -2.21545,2.08681 -7.04064,3.8439 -8.29637,3.02111 -0.56052,-0.36727 -0.95926,-0.19745 -1.64387,0.70012 -0.55808,0.73168 -1.00086,0.78676 -1.28641,0.16005 z"
         id="path63" />
      <path
         style="fill:#b86a43;fill-opacity:1;stroke:#1a1a1a;stroke-width:0;stroke-linecap:square;stroke-miterlimit:0;paint-order:markers fill stroke"
         d="m 894.05445,308.02294 c -2.97494,-0.46014 -4.37303,-1.58186 -3.26187,-2.61706 1.07033,-0.99716 5.74243,-0.99658 8.40884,10e-4 1.20697,0.45158 1.65262,0.87272 1.65262,1.56172 0,0.93547 -0.58504,1.14217 -3.34667,1.18241 -1.31922,0.0192 -2.87303,-0.0384 -3.45292,-0.12813 z"
         id="path64" />
      <path
         style="fill:#b86a43;fill-opacity:1;stroke:#1a1a1a;stroke-width:0;stroke-linecap:square;stroke-miterlimit:0;paint-order:markers fill stroke"
         d="m 704.46476,308.03007 c -2.29808,-0.48782 -1.13189,-1.61605 2.30205,-2.22711 3.17148,-0.56436 8.6778,-0.38173 9.10027,0.30183 0.3405,0.55095 -1.27273,1.23675 -3.97166,1.68839 -1.89283,0.31674 -6.38049,0.45981 -7.43066,0.23689 z"
         id="path65" />
      <path
         style="fill:#b86a43;fill-opacity:1;stroke:#1a1a1a;stroke-width:0;stroke-linecap:square;stroke-miterlimit:0;paint-order:markers fill stroke"
         d="m 754.12947,401.35927 c -0.57477,-0.24169 -1.20861,-0.83992 -1.51615,-1.43097 -0.55605,-1.06862 -0.47187,-3.71534 0.13025,-4.09515 0.20996,-0.13244 0.72402,-0.0765 1.8629,0.20284 0.8651,0.21216 1.77551,0.38575 2.02312,0.38575 0.64244,0 1.07421,0.57168 1.16786,1.54629 0.18477,1.92296 -0.81488,3.40165 -2.37644,3.51524 -0.46733,0.034 -1.04852,-0.0218 -1.29154,-0.124 z"
         id="path66" />
      <path
         style="fill:#b86a43;fill-opacity:1;stroke:#1a1a1a;stroke-width:0;stroke-linecap:square;stroke-miterlimit:0;paint-order:markers fill stroke"
         d="m 843.22483,401.0001 c -1.00349,-0.29983 -1.15969,-0.55596 -0.67587,-1.10827 0.77302,-0.88243 4.0044,-1.63645 5.13024,-1.1971 0.26229,0.10236 0.60697,0.38463 0.76596,0.62728 0.69494,1.06061 -0.37999,1.72596 -2.92167,1.80844 -0.92397,0.03 -1.95836,-0.0287 -2.29866,-0.13035 z"
         id="path67" />
      <path
         style="fill:#b86a43;fill-opacity:1;stroke:#1a1a1a;stroke-width:0;stroke-linecap:square;stroke-miterlimit:0;paint-order:markers fill stroke"
         d="m 842.38458,396.74821 c -0.68636,-0.68636 1.38261,-1.74739 3.64753,-1.87057 1.3907,-0.0756 1.57778,-0.046 2.14247,0.33991 1.00878,0.68931 0.82879,0.899 -0.97227,1.13269 -0.87504,0.11354 -1.94896,0.29346 -2.38649,0.39981 -1.04465,0.25394 -2.17631,0.25309 -2.43124,-0.002 z"
         id="path68" />
      <path
         style="fill:#b86a43;fill-opacity:1;stroke:#1a1a1a;stroke-width:0;stroke-linecap:square;stroke-miterlimit:0;paint-order:markers fill stroke"
         d="m 844.81582,382.5242 c -2.3054,-0.4145 -3.88985,-0.97964 -4.0281,-1.43675 -0.11475,-0.37945 0.85662,-0.60253 3.19113,-0.73286 1.70839,-0.0954 2.32538,-0.19474 2.53964,-0.409 0.41948,-0.41948 0.57914,-1.54785 0.58773,-4.15383 0.009,-2.68644 0.27657,-4.39121 0.60278,-3.83849 0.21704,0.36775 0.40773,9.82845 0.21368,10.60159 -0.12962,0.51646 -0.06,0.51714 -3.10686,-0.0307 z"
         id="path69" />
      <path
         style="fill:#b86a43;fill-opacity:1;stroke:#1a1a1a;stroke-width:0;stroke-linecap:square;stroke-miterlimit:0;paint-order:markers fill stroke"
         d="m 749.55922,376.52914 c -0.65814,-0.55379 -1.12562,-1.89414 -1.05268,-3.01824 0.0564,-0.86961 0.49632,-1.35388 0.49632,-0.54639 0,0.70124 0.53715,1.19726 1.48916,1.37511 1.03759,0.19385 1.33926,0.41834 1.33926,0.99663 0,0.48701 -1.03443,1.64005 -1.47136,1.64005 -0.1481,0 -0.50842,-0.20122 -0.8007,-0.44716 z"
         id="path70" />
      <path
         style="fill:#23231e;fill-opacity:1;stroke:#1a1a1a;stroke-width:0;stroke-linecap:square;stroke-miterlimit:0;paint-order:markers fill stroke"
         d="m 755.21991,367.67887 c -0.60737,-0.42542 -0.9787,-2.01811 -0.86016,-3.68942 0.0554,-0.78125 0.17348,-1.61638 0.26237,-1.85584 0.15471,-0.41674 0.16944,-0.42052 0.34376,-0.0884 0.34681,0.66078 1.13389,3.00239 1.29623,3.85637 0.28186,1.48268 -0.2261,2.3489 -1.0422,1.77728 z"
         id="path71" />
      <path
         style="fill:#23231e;fill-opacity:1;stroke:#1a1a1a;stroke-width:0;stroke-linecap:square;stroke-miterlimit:0;paint-order:markers fill stroke"
         d="m 778.13573,418.78274 c -1.29426,-0.62699 -2.53045,-2.42158 -3.21271,-4.66391 -0.30528,-1.00331 -0.34131,-1.31888 -0.34898,-3.05633 -0.01,-2.19365 0.19271,-3.16985 0.98231,-4.73779 0.62374,-1.23859 0.97223,-2.34752 0.87576,-2.78676 -0.0489,-0.22262 -0.23716,-0.46795 -0.47529,-0.61937 l -0.39432,-0.25074 0.875,0.0838 c 2.16177,0.20698 5.6795,1.00604 6.40621,1.45517 0.97197,0.60071 1.20304,1.75615 1.19604,5.98071 -0.006,3.56977 -0.13996,4.58813 -0.78555,5.96773 -0.44561,0.95225 -1.71678,2.28918 -2.52556,2.65621 -0.74022,0.33591 -1.86599,0.32345 -2.59291,-0.0287 z m 2.09018,-0.8595 c 0.49706,-0.50841 0.73387,-1.07288 0.56397,-1.34427 -0.0717,-0.11453 -0.33394,-0.22135 -0.59805,-0.24362 -0.64982,-0.0548 -1.06683,0.33892 -1.06683,1.00716 0,1.00611 0.45194,1.24451 1.10091,0.58073 z m -2.2955,-3.01355 c 0.26415,-0.37713 0.24472,-0.88341 -0.0476,-1.23959 -0.33481,-0.40798 -0.68072,-0.19362 -0.73528,0.45564 -0.0838,0.99772 0.33756,1.4197 0.78286,0.78395 z m 3.19459,-7.84719 c 0.21845,-0.40818 -0.0528,-0.7732 -0.53956,-0.72605 -0.3071,0.0297 -0.40733,0.10483 -0.43908,0.32889 -0.0657,0.4639 0.0675,0.64716 0.47032,0.64716 0.24659,0 0.42022,-0.0854 0.50832,-0.25 z m -2,-2 c 0.21845,-0.40818 -0.0528,-0.7732 -0.53956,-0.72605 -0.3071,0.0297 -0.40733,0.10483 -0.43908,0.32889 -0.0657,0.4639 0.0675,0.64716 0.47032,0.64716 0.24659,0 0.42022,-0.0854 0.50832,-0.25 z"
         id="path72" />
      <path
         style="fill:#23231e;fill-opacity:1;stroke:#1a1a1a;stroke-width:0;stroke-linecap:square;stroke-miterlimit:0;paint-order:markers fill stroke"
         d="m 827.4274,418.87927 c -0.0468,-0.18648 0.0574,-0.73142 0.2638,-1.37965 0.48451,-1.5216 0.48955,-1.52151 -1.2728,-0.0208 -1.1311,0.9632 -1.70173,1.25098 -2.50265,1.26213 -0.80835,0.0113 -1.22159,-0.26851 -1.70263,-1.15269 -0.71959,-1.32266 -0.95907,-3.8111 -0.73026,-7.5883 0.27695,-4.57188 0.49869,-4.9233 3.19304,-5.06037 0.83138,-0.0423 1.84138,-0.0319 2.24445,0.0232 1.50832,0.20596 2.98527,1.35996 3.72028,2.90679 0.58197,1.22476 0.77704,2.37333 0.699,4.11574 -0.0807,1.80133 -0.35986,2.88906 -1.1732,4.57082 -0.94169,1.94715 -2.50138,3.27001 -2.73903,2.32312 z m -2.46609,-2.77126 c 0.18318,-0.47734 -0.56273,-0.94126 -1.16711,-0.72589 -0.4551,0.16217 -0.63938,0.47758 -0.4279,0.7324 0.23491,0.28305 1.48586,0.27794 1.59501,-0.007 z M 824.125,413.0625 c 0.21845,-0.40818 -0.0528,-0.7732 -0.53956,-0.72605 -0.3071,0.0297 -0.40733,0.10483 -0.43908,0.32889 -0.0657,0.4639 0.0675,0.64716 0.47032,0.64716 0.24659,0 0.42022,-0.0854 0.50832,-0.25 z m 0,-3 c 0.21845,-0.40818 -0.0528,-0.7732 -0.53956,-0.72605 -0.3071,0.0297 -0.40733,0.10483 -0.43908,0.32889 -0.0657,0.4639 0.0675,0.64716 0.47032,0.64716 0.24659,0 0.42022,-0.0854 0.50832,-0.25 z m 1,-3 c 0.21845,-0.40818 -0.0528,-0.7732 -0.53956,-0.72605 -0.3071,0.0297 -0.40733,0.10483 -0.43908,0.32889 -0.0657,0.4639 0.0675,0.64716 0.47032,0.64716 0.24659,0 0.42022,-0.0854 0.50832,-0.25 z"
         id="path73" />
      <path
         style="fill:#23231e;fill-opacity:1;stroke:#1a1a1a;stroke-width:0;stroke-linecap:square;stroke-miterlimit:0;paint-order:markers fill stroke"
         d="m 822.02232,438.99609 c -0.88593,-0.19232 -1.67172,-0.54213 -1.74442,-0.77657 -0.0842,-0.27146 0.60139,-0.41917 2.53203,-0.54555 2.37748,-0.15563 3.82004,-0.39579 5.24507,-0.87322 1.56156,-0.52317 2.35267,-1.0046 3.45854,-2.10468 1.58036,-1.57209 2.28533,-3.34603 2.67333,-6.72695 0.43423,-3.78383 0.95138,-5.84705 1.60065,-6.38589 1.22362,-1.01552 1.76956,5.75838 0.77885,9.66388 -1.06119,4.18331 -4.53603,6.96439 -9.69137,7.75647 -1.46514,0.2251 -3.79781,0.2215 -4.85268,-0.007 z"
         id="path74" />
      <path
         style="fill:#23231e;fill-opacity:1;stroke:#1a1a1a;stroke-width:0;stroke-linecap:square;stroke-miterlimit:0;paint-order:markers fill stroke"
         d="m 777.03641,438.88011 c -4.10546,-0.85282 -8.10447,-2.54122 -7.48534,-3.16035 0.1528,-0.1528 1.25034,0.22929 2.94645,1.02575 2.70627,1.27082 4.41166,1.66814 6.55559,1.52731 3.45827,-0.22717 6.22004,-2.20428 7.28208,-5.21314 0.43457,-1.23118 0.53432,-3.19755 0.24129,-4.75692 -0.11081,-0.58974 -0.20148,-1.20314 -0.20148,-1.36313 0,-0.27734 0.011,-0.28093 0.2363,-0.077 0.36035,0.32612 0.98328,1.57094 1.1973,2.39259 0.37041,1.42212 0.18205,3.42666 -0.47482,5.0529 -0.45276,1.12091 -1.04953,2.05373 -1.91405,2.99186 -1.36058,1.47643 -2.52101,1.88792 -5.29473,1.87753 -1.26272,-0.005 -2.04019,-0.0796 -3.08859,-0.29737 z"
         id="path75" />
    </g>
  </g>
</svg>
