<?xml version="1.0" encoding="UTF-8" standalone="no"?>
<!-- Created with Inkscape (http://www.inkscape.org/) -->

<svg
   width="445.84488"
   height="403.87549"
   viewBox="0 0 445.84488 403.87549"
   version="1.1"
   id="svg1"
   xml:space="preserve"
   xmlns="http://www.w3.org/2000/svg"
   xmlns:svg="http://www.w3.org/2000/svg"><defs
     id="defs1" /><g
     id="layer2"
     transform="translate(-73.566559,-617.76367)"><g
       id="g10"
       transform="translate(-354.4473,173.05913)"><path
         d="m 559.91992,471.77344 c -4.57298,-0.17865 -9.00863,0.79537 -13.18359,3.27734 -0.67345,0.40036 -1.31189,0.82819 -1.92188,1.27539 -19.60203,14.37056 -7.00998,52.32887 1.4336,75.93945 17.61278,49.25941 68.22449,110.29349 113.91601,158.59571 44.52075,47.06454 84.3711,82.04492 84.3711,82.04492 0,0 -8.97446,-33.35313 -24.22266,-77.95313 -28.61528,-37.39617 -53.92442,-76.88685 -64.56836,-110.77539 -4.99815,-15.91145 -11.5379,-38.17447 -9.76367,-55.61523 -9.34576,-14.75277 -19.10771,-27.89967 -29.21289,-38.38281 -14.66079,-15.20852 -37.03142,-37.63209 -56.84766,-38.40625 z"
         style="fill:#ffffff"
         id="path8" /><path
         id="path10"
         style="display:inline;fill:#ffffff"
         d="m 699.99152,519.7597 c -3.7139,0.13258 -7.34582,1.12195 -10.83203,3.17773 -8.04686,4.7455 -11.64124,13.04483 -12.63867,22.84961 -1.77423,17.44076 4.76552,39.70378 9.76367,55.61524 10.64394,33.88854 35.95308,73.37922 64.56836,110.77539 55.23133,72.17964 123.00586,136.40234 123.00586,136.40234 0,0 -48.19063,-211.91773 -116.90429,-289.01563 -14.4859,-16.25199 -36.90782,-40.52063 -56.9629,-39.80468 z" /><path
         d="m 454.46359,444.78612 c -6.24078,-0.44932 -12.09432,0.92567 -17.16407,4.92773 -20.32428,16.04283 -2.61771,54.11261 8.89649,77.4375 31.4834,63.78505 124.85182,141.76213 180.65039,184.63477 -45.69152,-48.30222 -96.30324,-109.33631 -113.91602,-158.59571 -8.44358,-23.61058 -21.03562,-61.56889 -1.43359,-75.93945 -0.36479,-0.30706 -0.72894,-0.65946 -1.09375,-0.96094 -15.00708,-12.40146 -37.21713,-30.15595 -55.93945,-31.5039 z"
         style="fill:#ffffff"
         id="path6" /></g></g></svg>
