<?xml version="1.0" encoding="UTF-8" standalone="no"?>
<!-- Created with Inkscape (http://www.inkscape.org/) -->

<svg
   width="400"
   height="394.66669"
   viewBox="0 0 400 394.66669"
   version="1.1"
   id="svg1"
   xml:space="preserve"
   xmlns:xlink="http://www.w3.org/1999/xlink"
   xmlns="http://www.w3.org/2000/svg"
   xmlns:svg="http://www.w3.org/2000/svg"><defs
     id="defs1" /><g
     id="layer1"
     style="display:none"
     transform="translate(-746,-403.66669)"><image
       width="400"
       height="394.66666"
       preserveAspectRatio="none"
       style="image-rendering:optimizeQuality"
       id="image1"
       x="746"
       y="403.66669" /></g><g
     id="layer2"
     style="fill:#eaeaea;fill-opacity:0.83161"
     transform="translate(-746,-403.66669)"><path
       style="fill:#ffffff;fill-opacity:1;stroke:#1a1a1a;stroke-width:5;stroke-linecap:square;stroke-miterlimit:0;stroke-dasharray:none;paint-order:markers fill stroke"
       d="M 810.34437,797.61645 866.2058,782.0601 c 5.73093,-3.01628 79.19596,-94.0452 79.19596,-94.0452 50.67352,-18.39931 92.63104,-43.48707 92.63104,-43.48707 0,0 63.8648,-13.98405 80.756,-22.12801 18.0977,-7.5407 27.0777,-20.2984 27.0777,-20.2984 l -322.79421,-1.06066 10.6066,17.67767 -15.9099,3.18198 9.89949,8.13173 -22.62741,2.47487 -54.44722,0.70711 -1.06066,6.01041 c 13.27164,10.25536 86.97413,31.8198 86.97413,31.8198 l 15.9099,-3.53553 2.12132,5.3033 -26.87006,13.78858 14.14214,6.71752 -14.14214,21.56675 6.36397,1.41422 c 0,0 -10.60199,18.45493 -31.1127,76.36753 z"
       id="path1" /><path
       style="fill:#000000;fill-opacity:0.83161;stroke:#1a1a1a;stroke-width:0;stroke-linecap:square;stroke-miterlimit:0;paint-order:markers fill stroke"
       d="m 937.15852,601.44644 -19.90745,21.11397 16.89117,18.09768 19.3042,2.41303 22.32048,-9.04884 15.0814,7.23907 45.84748,1.20651 30.4644,-7.5407 -9.3504,-7.84233 -19.0026,4.82605 -2.7147,3.92116 -27.7497,4.52443 -14.77982,-6.33419 -31.36933,-1.20652 -10.25535,2.71466 -18.39932,-0.30163 -12.66838,-13.8749 z"
       id="path2" /><path
       style="fill:#000000;fill-opacity:0.83161;stroke:#1a1a1a;stroke-width:0;stroke-linecap:square;stroke-miterlimit:0;paint-order:markers fill stroke"
       d="m 970.03598,602.0497 5.73094,4.22279 24.73348,6.93745 14.7798,-0.90489 12.3668,5.42931 5.4293,-1.80977 19.3042,-0.90489 21.4156,-10.55698 v -1.80977 z"
       id="path3" /><path
       style="fill:#000000;fill-opacity:0.83161;stroke:#1a1a1a;stroke-width:0;stroke-linecap:square;stroke-miterlimit:0;paint-order:markers fill stroke"
       d="m 912.72664,602.35132 -61.83376,14.17653 -19.3042,-15.08141 -6.33419,0.30163 9.6521,17.1928 -15.68466,3.01628 9.95373,7.84233 5.12768,3.92117 6.03256,0.30163 16.89117,9.65209 3.92117,-5.12767 -25.94002,-13.57327 -0.30163,-3.01628 76.01029,-16.58954 7.5407,-3.01629 z"
       id="path4" /></g><g
     id="g8"
     style="fill:#eaeaea;fill-opacity:0.83161"
     transform="translate(-746,-403.66669)"><g
       id="g9"
       transform="matrix(1,0,0,-1,0,1203.4122)"><path
         style="fill:#ffffff;fill-opacity:1;stroke:#1a1a1a;stroke-width:5;stroke-linecap:square;stroke-miterlimit:0;stroke-dasharray:none;paint-order:markers fill stroke"
         d="M 810.34437,797.61645 866.2058,782.0601 c 5.73093,-3.01628 79.19596,-94.0452 79.19596,-94.0452 50.67352,-18.39931 92.63104,-43.48707 92.63104,-43.48707 0,0 63.8648,-13.98405 80.756,-22.12801 18.0977,-7.5407 27.0777,-20.2984 27.0777,-20.2984 l -322.79421,-1.06066 10.6066,17.67767 -15.9099,3.18198 9.89949,8.13173 -22.62741,2.47487 -54.44722,0.70711 -1.06066,6.01041 c 13.27164,10.25536 86.97413,31.8198 86.97413,31.8198 l 15.9099,-3.53553 2.12132,5.3033 -26.87006,13.78858 14.14214,6.71752 -14.14214,21.56675 6.36397,1.41422 c 0,0 -10.60199,18.45493 -31.1127,76.36753 z"
         id="path5" /><path
         style="fill:#000000;fill-opacity:0.83161;stroke:#1a1a1a;stroke-width:0;stroke-linecap:square;stroke-miterlimit:0;paint-order:markers fill stroke"
         d="m 937.15852,601.44644 -19.90745,21.11397 16.89117,18.09768 19.3042,2.41303 22.32048,-9.04884 15.0814,7.23907 45.84748,1.20651 30.4644,-7.5407 -9.3504,-7.84233 -19.0026,4.82605 -2.7147,3.92116 -27.7497,4.52443 -14.77982,-6.33419 -31.36933,-1.20652 -10.25535,2.71466 -18.39932,-0.30163 -12.66838,-13.8749 z"
         id="path6" /><path
         style="fill:#000000;fill-opacity:0.83161;stroke:#1a1a1a;stroke-width:0;stroke-linecap:square;stroke-miterlimit:0;paint-order:markers fill stroke"
         d="m 970.03598,602.0497 5.73094,4.22279 24.73348,6.93745 14.7798,-0.90489 12.3668,5.42931 5.4293,-1.80977 19.3042,-0.90489 21.4156,-10.55698 v -1.80977 z"
         id="path7" /><path
         style="fill:#000000;fill-opacity:0.83161;stroke:#1a1a1a;stroke-width:0;stroke-linecap:square;stroke-miterlimit:0;paint-order:markers fill stroke"
         d="m 912.72664,602.35132 -61.83376,14.17653 -19.3042,-15.08141 -6.33419,0.30163 9.6521,17.1928 -15.68466,3.01628 9.95373,7.84233 5.12768,3.92117 6.03256,0.30163 16.89117,9.65209 3.92117,-5.12767 -25.94002,-13.57327 -0.30163,-3.01628 76.01029,-16.58954 7.5407,-3.01629 z"
         id="path8" /></g></g><g
     id="layer4"
     transform="translate(-746,-403.66669)"><path
       style="fill:#ffffff;fill-opacity:1;stroke:#1a1a1a;stroke-width:0;stroke-linecap:square;stroke-miterlimit:0;stroke-dasharray:none;paint-order:markers fill stroke"
       d="m 1075.6058,603.55784 v -7.23908 l 61.2305,0.90489 6.3342,3.01628 -1.2065,3.92116 -5.4293,2.71466 -61.2305,-0.30163 z"
       id="path9" /><path
       style="fill:#ffffff;fill-opacity:1;stroke:#1a1a1a;stroke-width:0;stroke-linecap:square;stroke-miterlimit:0;stroke-dasharray:none;paint-order:markers fill stroke"
       d="m 915.96104,603.54327 v -7.23908 l 50.88935,0.90489 5.26442,3.01628 -1.00273,3.92116 -4.51236,2.71466 -50.88934,-0.30163 z"
       id="path9-7" /></g></svg>
