<?xml version="1.0" encoding="UTF-8" standalone="no"?>
<!-- Created with Inkscape (http://www.inkscape.org/) -->

<svg
   width="268.38086"
   height="400.97989"
   viewBox="0 0 268.38086 400.97989"
   version="1.1"
   id="svg1"
   xml:space="preserve"
   xmlns="http://www.w3.org/2000/svg"
   xmlns:svg="http://www.w3.org/2000/svg"><defs
     id="defs1" /><g
     id="layer4"
     transform="translate(-1471.4648,-277.07278)"><g
       id="g32"><path
         d="m 1715.666,400.39453 a 134.19024,96.126514 0 0 0 -40.4668,-26.85156 c -3.3779,11.33803 -6.5297,22.93086 -3.6484,34.7793 3.5009,13.77293 -4.2408,26.04349 -12.4063,36.47851 -10.1474,14.37034 -2.0984,31.74949 -3.83,47.55859 -0.9113,15.97485 -15.7738,-7.87521 -22.1172,-1.07226 -5.9458,12.01494 -10.4501,25.02531 -10.2715,38.54492 0.1184,5.83022 -1.2964,31.67672 -7.0176,16.04688 -1.9585,-13.75871 -14.1367,-22.78352 -17.8086,-35.8125 -3.785,-9.81942 -5.2187,-21.29054 -12.1035,-29.48047 -3.1897,4.01415 -8.4246,10.61103 -13.25,3.26562 -13.9014,-16.54161 -22.0773,-36.72756 -31.2441,-55.96679 -2.0274,-14.01487 -12.5501,-2.33622 -16.7989,3.92968 -9.3805,-11.053 -5.7385,-26.58489 -8.3164,-39.71484 -0.8031,-1.87961 -1.4835,-3.80034 -2.1172,-5.73242 a 134.19024,96.126514 0 0 0 -18.625,16.06836 c -2.5598,9.60075 -4.1767,19.47988 -4.4023,29.7207 0.5214,30.21357 13.6156,58.61581 27.8867,84.66016 5.0911,2.76472 8.152,20.68936 10.627,30.1289 -0.1505,5.74377 2.6538,26.20237 4.6543,10.3418 1.451,-8.6902 4.7513,-36.49791 16.0312,-19.91016 11.034,8.47407 16.418,22.84425 23.9258,34.50977 10.4,29.27997 19.6152,59.07027 32.9551,87.18359 2.137,7.82963 7.9459,31.14396 7.5879,10.95508 -0.6006,-22.6595 7.0345,-44.84299 21.0156,-62.66992 12.0326,-18.63817 28.6765,-36.23147 31.8906,-58.97461 2.2088,10.89959 2.2926,-27.10692 8.7363,-9.87109 7.9224,6.87747 10.3369,17.28634 17.0196,22.3125 -0.7398,-21.59749 -0.4854,-44.08503 10.1191,-63.58399 11.317,-27.29325 21.0098,-58.06533 11.9102,-87.4082 0.017,-3.09616 0.042,-6.27348 0.064,-9.43555 z"
         style="fill:#ffffff;stroke-width:0;stroke-miterlimit:0;stroke-opacity:0;paint-order:markers fill stroke"
         id="path29" /><path
         id="path32"
         style="fill:#ffffff;stroke-width:0;stroke-miterlimit:0;stroke-opacity:0;paint-order:markers fill stroke"
         d="m 1605.6562,277.07279 a 134.19024,96.126514 0 0 0 -134.1914,96.12695 134.19024,96.126514 0 0 0 10.5899,37.33399 134.19024,96.126514 0 0 1 13.5898,-17.91406 134.19024,96.126514 0 0 1 18.625,-16.06836 c -0.5715,-1.74272 -1.076,-3.504 -1.5117,-5.2793 -0.4357,-1.7753 -0.8036,-3.56513 -1.0996,-5.36523 -0.296,-1.80011 -0.5213,-3.6106 -0.6738,-5.42774 -0.1525,-1.81713 -0.2313,-3.64041 -0.2364,-5.4668 0,1.82639 0.084,3.64967 0.2364,5.4668 0.1525,1.81714 0.3777,3.62763 0.6738,5.42774 0.2961,1.8001 0.6639,3.58993 1.0996,5.36523 0.4358,1.7753 0.9402,3.53658 1.5117,5.2793 a 134.19024,96.126514 0 0 1 92.3516,-26.60352 134.19024,96.126514 0 0 1 68.5781,13.7793 134.19024,96.126514 0 0 1 40.4668,26.85156 134.19024,96.126514 0 0 1 14.5664,18.14258 134.19024,96.126514 0 0 0 9.6133,-35.52149 134.19024,96.126514 0 0 0 -134.1895,-96.12695 z m 49.168,14.59766 c 1.7598,1.3258 3.4791,2.70104 5.1504,4.13086 1.6713,1.42982 3.295,2.9143 4.8652,4.45898 1.5702,1.54469 3.0864,3.14991 4.543,4.82031 1.4566,1.67041 2.8531,3.40592 4.1836,5.2129 0.7264,0.8962 1.3884,1.81229 1.9902,2.74609 0.6019,0.93379 1.1432,1.88621 1.6289,2.85351 0.4858,0.96731 0.9168,1.94857 1.295,2.94532 0.3781,0.99674 0.7035,2.00719 0.9824,3.02929 0.2789,1.02211 0.5112,2.05622 0.6992,3.09961 0.188,1.04339 0.3319,2.09761 0.4375,3.15821 -0.1056,-1.0606 -0.2495,-2.11482 -0.4375,-3.15821 -0.188,-1.04339 -0.4203,-2.0775 -0.6992,-3.09961 -0.2789,-1.0221 -0.6043,-2.03255 -0.9824,-3.02929 -0.3782,-0.99675 -0.8092,-1.97801 -1.295,-2.94532 -0.4857,-0.9673 -1.027,-1.91972 -1.6289,-2.85351 -0.6018,-0.9338 -1.2638,-1.84989 -1.9902,-2.74609 -1.3305,-1.80698 -2.727,-3.54249 -4.1836,-5.2129 -1.4566,-1.6704 -2.9728,-3.27562 -4.543,-4.82031 -1.5702,-1.54468 -3.1939,-3.02916 -4.8652,-4.45898 -1.6713,-1.42982 -3.3906,-2.80506 -5.1504,-4.13086 z m 37.3145,33.86328 c 2.0279,3.51311 3.9699,7.09616 6.084,10.58203 1.057,1.74294 2.1566,3.4617 3.332,5.13477 -1.1754,-1.67307 -2.275,-3.39183 -3.332,-5.13477 -2.1141,-3.48587 -4.0561,-7.06892 -6.084,-10.58203 z m -11.8809,15.55273 c -0.2802,2.17734 -0.6493,4.35132 -1.0742,6.50782 -0.425,2.15649 -0.9057,4.29539 -1.4082,6.39843 0.5025,-2.10304 0.9832,-4.24194 1.4082,-6.39843 0.4249,-2.1565 0.794,-4.33048 1.0742,-6.50782 z" /></g></g></svg>
